<?xml version="1.0" encoding="utf-8"?>
<!-- Generator: Adobe Illustrator 18.1.1, SVG Export Plug-In . SVG Version: 6.00 Build 0)  -->
<svg version="1.1" id="Слой_1" xmlns="http://www.w3.org/2000/svg" xmlns:xlink="http://www.w3.org/1999/xlink" x="0px" y="0px"
	 viewBox="0 0 238.1 114.3" enable-background="new 0 0 238.1 114.3" xml:space="preserve">
<g>
	<path fill="#52B7DD" d="M61.9,0c27.8,0,50.4,22.6,50.4,50.5c0,15.5-7,29.4-17.9,38.6c4.1-7.4,6.5-15.9,6.5-25
		C100.9,35.9,78,13,49.8,13c-11.3,0-21.7,3.7-30.1,9.8C28.7,9.1,44.3,0,61.9,0L61.9,0z"/>
	<path fill="#ABCB56" d="M68.1,16.5C62.4,14.3,56.2,13,49.7,13c-11.3,0-21.7,3.7-30.1,9.9C14,31,10.7,40.8,10.7,51.4
		c0,21.7,13.8,40.2,33,47.3c5.7,2.2,11.9,3.5,18.5,3.5c11.3,0,21.7-3.7,30.1-9.8c5.6-8.1,8.8-17.9,8.9-28.5
		C101.1,42.1,87.4,23.6,68.1,16.5L68.1,16.5z"/>
	<path fill="#FFFFFF" d="M95.3,46.5c0,18.3-18.6,32.4-29.4,41.7h29l-0.9,1.7l-1.9,3l-2.8,2.7l-7.6,6.6H45.3l-0.1-10.6
		C67,72.6,80.3,59.8,80.3,47.5c0-4.6-1.8-10.4-9.6-10.4c-6.2,0-12.3,3.6-11.2,18.7H46.8c-3.2-17.5,6.4-31.4,24.5-31.4
		C86.2,24.4,95.3,33.7,95.3,46.5L95.3,46.5z"/>
	<path fill="#F6EC46" d="M92.3,92.3c-8.4,6.2-18.9,9.8-30.1,9.8c-6.5,0-12.7-1.2-18.5-3.5c-19.3-7-33-25.6-33-47.3
		c0-10.4,3.2-20.1,8.6-28.2C7.5,32.6,0,47,0,63.2c0,28.2,22.8,51.1,51,51.1c13.5,0,28.4-4.6,41.7-22.2c1.2-1.5,1.8-2.7,2-3.7
		C93.9,89.8,93.2,91.1,92.3,92.3L92.3,92.3z"/>
	<polygon fill="#272624" points="186.4,98.4 174.4,98.4 174.4,29.2 186.4,29.2 186.4,98.4 	"/>
	<polygon fill="#272624" points="186.4,98.4 174.4,98.4 174.4,29.2 186.4,29.2 186.4,98.4 	"/>
	<path fill="#272624" d="M238.1,80.1c0-27-31.1-18-31.1-33.1c0-4.5,3-8,8.3-8c6.3,0,10.3,4,9.5,12.1h11.9c1-7.9-2.1-22.7-20.9-22.7
		c-11.7,0-21.2,5.7-21.2,18.4c0,26.1,31.1,17.6,30.9,33.3c-0.1,5.7-4.4,8.6-9.6,8.6c-5.7,0-10.4-3.6-9.6-13.5h-11.9
		c-1,14.1,5.3,24.2,21.8,24.2C230.3,99.2,238.1,91.5,238.1,80.1L238.1,80.1z"/>
	<path fill="#272624" d="M152.1,50.8h12.1c0.4-7.8-2.6-22.7-21.7-22.7c-14,0-24.2,9.5-24.2,27c0,2.4,0.1,12,0.1,19.6
		c0,19,13.1,24.7,25.5,24.7c5.3,0,13.7-0.9,19.4-7.3V62.8h-21.7v11.5h9.7v13.6c-7.3,2.5-20.6,3.1-20.6-13.7V54
		c0-11,4.8-15.5,10.7-15.5C147.7,38.4,152.1,42.1,152.1,50.8L152.1,50.8z"/>
</g>
</svg>
