<?xml version="1.0" encoding="utf-8"?>
<!-- Generator: Adobe Illustrator 18.1.1, SVG Export Plug-In . SVG Version: 6.00 Build 0)  -->
<svg version="1.1" id="Слой_1" xmlns="http://www.w3.org/2000/svg" xmlns:xlink="http://www.w3.org/1999/xlink" x="0px" y="0px"
	 viewBox="0 0 652 119.5" enable-background="new 0 0 652 119.5" xml:space="preserve">
<g>
	<g>
		<path fill="#2FC7F7" d="M0,7.6h54.1l-4.2,13.9H17.1v17.2h5.6c8.9,0,16.7,1.1,22.9,4.4c7.2,3.7,11.6,10.5,11.6,21
			c0,14.7-8.9,25.8-34.1,25.8H0V7.6z M23.5,75.9c11.7,0,16.6-3.7,16.6-11.6c0-4.5-1.7-7.6-4.6-9.4c-3.1-1.9-7.6-2.4-12.7-2.4h-5.6
			v23.3H23.5z"/>
		<path fill="#2FC7F7" d="M65.4,30.9h16.4v23.6c0,4.9-0.1,9.6-0.5,13h0.4c1.4-2.4,4.2-7.4,7.6-12.2l16.9-24.4h16.5v59.1h-16.5V66.3
			c0-4.9,0.3-9.6,0.6-13h-0.4c-1.4,2.4-4.4,7.4-7.6,12.2L81.9,89.9H65.4V30.9z"/>
		<path fill="#2FC7F7" d="M146,44.8h-17.6v-14H184l-4.4,14h-16.9v45.1H146V44.8z"/>
		<path fill="#2FC7F7" d="M188.2,33.2c6.5-2.2,14.5-3.9,23.4-3.9c22,0,33.1,12.4,33.1,31c0,17.7-12,30.8-31.1,30.8
			c-2.9,0-5.7-0.4-8.5-1.1v29.5h-16.9V33.2z M212.3,77.3c10.1,0,15.1-6.6,15.1-17c0-11.5-6.2-17.1-16.6-17.1c-2.1,0-3.9,0.1-5.7,0.7
			v32.1C207.3,76.8,209.4,77.3,212.3,77.3z"/>
		<path fill="#2FC7F7" d="M251.6,30.9h16.4v23.6c0,4.9-0.1,9.6-0.5,13h0.4c1.4-2.4,4.2-7.4,7.6-12.2l16.9-24.4h16.5v59.1h-16.5V66.3
			c0-4.9,0.3-9.6,0.6-13h-0.4c-1.4,2.4-4.4,7.4-7.6,12.2l-16.9,24.3h-16.5V30.9z"/>
		<path fill="#2FC7F7" d="M318.6,30.9h16.9v22.6h6.2c7.1,0,6.9-12,12.1-19c2.2-3.1,5.7-5.1,11.1-5.1c1.7,0,4.9,0.2,6.7,0.9v14.4
			c-1-0.4-2.2-0.6-3.5-0.6c-1.9,0-3.1,0.6-4.1,1.9c-3,3.7-3.5,11.4-7.9,14.1v0.2c2.9,1.1,5,3.3,6.7,7l10.6,22.7h-18.2l-7-18.5
			c-1.5-3.6-3-5.2-4.6-5.2h-8.2v23.7h-16.9V30.9z"/>
		<path fill="#2FC7F7" d="M375.3,60.7c0-18.7,14.5-31.3,31.8-31.3c8,0,13.2,2.2,16.4,4.2v14.1c-4.2-3.2-8.7-5-14.5-5
			c-10.4,0-16.5,7.9-16.5,17.9c0,11.1,6.2,17.1,15.7,17.1c5.2,0,9.2-1.5,13.6-4l4.7,11.5c-4.9,3.5-12.5,6-20.7,6
			C386.3,91.2,375.3,78.1,375.3,60.7z"/>
	</g>
	<g>
		<path fill="#0066A1" d="M482,26.1c0-7.7-6.4-10.5-13.2-10.5c-9.1,0-16.6,3-23.5,6.1l-4.7-14.2C448.3,3.9,459,0,471.8,0
			c19.9,0,29.6,10,29.6,24.2c0,24.7-33.9,31.6-39.6,50.5h40.8v15.7h-65C441.2,46.3,482,43.7,482,26.1z"/>
		<path fill="#0066A1" d="M500.9,57.3l44.8-57H559v53.9h13.3v14.9H559v21.3h-18V69.1h-40V57.3z M532.8,54.1h8.1v-9.6
			c0-6.9,0.5-14.9,0.8-16.7l-20.2,26.7C523.2,54.4,529.7,54.1,532.8,54.1z"/>
	</g>
	<g>
		<path fill="#0066A1" d="M621,3.1C636.4,3.1,649,15.6,649,31S636.4,59,621,59c-15.4,0-27.9-12.5-27.9-27.9S605.6,3.1,621,3.1
			 M621,0.1c-17.1,0-30.9,13.9-30.9,30.9c0,17.1,13.9,30.9,30.9,30.9C638.1,62,652,48.1,652,31C652,14,638.1,0.1,621,0.1L621,0.1z"
			/>
	</g>
	<line fill="none" stroke="#0066A1" stroke-width="3" stroke-miterlimit="10" x1="620.5" y1="30.2" x2="620.5" y2="15.5"/>
	<line fill="none" stroke="#0066A1" stroke-width="3" stroke-miterlimit="10" x1="617.4" y1="30.2" x2="633" y2="30.2"/>
</g>
</svg>
