<?xml version="1.0" encoding="utf-8"?>
<!-- Generator: Adobe Illustrator 19.1.0, SVG Export Plug-In . SVG Version: 6.00 Build 0)  -->
<svg version="1.1" id="Слой_1" xmlns="http://www.w3.org/2000/svg" xmlns:xlink="http://www.w3.org/1999/xlink" x="0px" y="0px"
	 viewBox="115 291 841.8 211" style="enable-background:new 115 291 841.8 211;" xml:space="preserve">
<style type="text/css">
	.st0{display:none;}
	.st1{display:inline;}
	.st2{fill:#8D81AC;}
	.st3{fill:#333333;}
	.st4{fill:#FFFFFF;}
</style>
<g id="Слой_1_1_" class="st0">
	<g class="st1">
		<g>
			<path class="st2" d="M336.3,398.9c0.1-2.1-0.7-3.9-2-5.3l-19.4-19.5l0.2-44.7c-0.1-0.3-0.2-0.8-0.3-1.2c0-0.1,0-0.3-0.1-0.4
				c-0.1-0.2-0.2-0.5-0.2-0.7c-0.1-0.3-0.1-0.5-0.2-0.8c-0.1-0.1-0.2-0.3-0.2-0.4c-0.1-0.3-0.3-0.5-0.4-0.8l-0.2-0.3
				c-0.2-0.3-0.4-0.5-0.6-0.7c-0.1-0.1-0.2-0.2-0.3-0.3c-0.3-0.2-0.5-0.5-0.8-0.7c-0.2-0.1-0.3-0.2-0.5-0.3l-0.3-0.1
				c-0.1-0.1-0.3-0.2-0.5-0.3c-0.6-0.3-1.4-0.4-2.2-0.5h-0.4h-16.1c-1.8,0-3.5,0.7-4.8,2s-2,3-2,4.8c0,3.7,3.1,6.8,6.8,6.8h9.3v41.1
				c0,0.6,0,1.2,0.1,1.7c0.3,2.1,1.5,3.8,3.1,4.9l0.8,0.6l14.9,14.9l-16.6,16.6c-0.8,0.7-1.4,1.6-1.8,2.5c-0.2,0.4-0.2,0.7-0.3,1.1
				l-0.1,0.3c-0.1,0.5-0.1,1.2-0.1,1.8v41.7h-9.3c-3.8,0-6.8,2.9-6.8,6.6c0,1.8,0.7,3.5,2,4.7c1.3,1.3,3,2,4.8,2l16.2-0.1
				c0.9,0,1.7-0.2,2.5-0.5l0.9-0.5c0.1-0.1,0.3-0.1,0.4-0.2c0.2-0.2,0.5-0.4,0.8-0.7l0.3-0.3c0.2-0.2,0.4-0.5,0.6-0.8l0.2-0.2
				c0.2-0.3,0.3-0.6,0.4-0.8l0.1-0.3c0.1-0.2,0.1-0.5,0.2-0.7c0-0.2,0.1-0.4,0.2-0.6c0.1-0.2,0.1-0.5,0.2-0.7c0-0.1,0,0,0,0.1
				c0-0.5,0.2-0.9,0.3-1.3l-0.2-45.1l19.3-19.5C335.6,402.6,336.3,400.9,336.3,398.9z M261.8,296.6c-0.8-0.6-2-1.4-3.1-1.4h-0.5
				L214,291c-0.1,0-0.2,0-0.3,0.1c-0.1,0-0.2,0-0.3,0.1c-0.3,0.1-0.6,0.2-0.9,0.3c-0.3,0.1-0.5,0.1-0.8,0.2c-0.1,0-0.3,0.1-0.4,0.2
				l-0.8,0.4c-0.3,0.1-0.6,0.4-0.8,0.6l-0.3,0.1c-0.2,0.1-0.4,0.4-0.7,0.7l-0.2,0.2c-0.2,0.3-0.4,0.6-0.5,0.8l-0.1,0.3
				c-0.1,0.3-0.2,0.5-0.3,0.8c0,0.1-0.1,0.3-0.2,0.4c0,0.1,0,0.1,0,0.2l-0.1,0.4c0,0.2-0.1,0.4-0.1,0.6l-15.1,172.5
				c-0.3,1.9,0.2,3.8,1.4,5.2l19.8,24c0.1,0.1,0.1,0.3,0.2,0.4c1.3,1.5,3.1,2.4,5,2.4c1.5,0,3-0.5,4.2-1.6l23.9-20.5
				c0.2-0.2,0.5-0.5,0.8-0.9l0.1-0.2c0.8-1.1,1.2-2.4,1.3-3.7l11.6-133.7l0.1-0.4c0.1-0.5,0.2-0.8,0.2-1.1s0-0.6,0-1.1v-0.4
				l3.2-35.9C264.3,300.2,263.4,298,261.8,296.6z M236.7,467.5l-30.9-2.7l10.6-122.3l30.9,2.7L236.7,467.5z M248.3,331.9l-30.9-2.7
				l2.2-24l30.9,2.7L248.3,331.9z M159.5,462.7h-9.3v-41.6c0-0.6,0-1.3-0.1-1.8L150,419c-0.1-0.3-0.2-0.7-0.3-1.1
				c-0.4-0.9-1-1.8-1.8-2.5l-16.6-16.6l14.9-14.9l0.8-0.6c1.6-1,2.7-2.7,3.1-4.9c0.1-0.5,0.1-1.1,0.1-1.8v-41.1h9.3
				c3.8,0,6.8-3,6.8-6.8c0-1.8-0.7-3.5-2-4.8c-1.3-1.3-3-2-4.8-2h-16.1H143c-0.8,0-1.6,0.2-2.2,0.5c-0.2,0.1-0.4,0.2-0.5,0.3H140
				c-0.2,0.1-0.3,0.2-0.5,0.3c-0.3,0.2-0.6,0.4-0.8,0.7c-0.1,0.1-0.2,0.2-0.3,0.3c-0.2,0.2-0.4,0.5-0.6,0.7l-0.2,0.3
				c-0.1,0.2-0.3,0.5-0.4,0.8c-0.2,0.1-0.2,0.3-0.3,0.4c-0.1,0.2-0.2,0.5-0.2,0.8c-0.1,0.2-0.1,0.5-0.2,0.7c0,0.1-0.1,0.3-0.1,0.4
				c0,0.5-0.1,0.9-0.3,1.2l0.2,44.7L117,393.6c-1.4,1.4-2.1,3.1-2,5.3c0,1.9,0.6,3.7,1.9,5l19.3,19.5l-0.1,45
				c0.1,0.3,0.2,0.8,0.3,1.3c0-0.1,0-0.2,0-0.1c0.1,0.2,0.1,0.5,0.2,0.7c0.1,0.2,0.1,0.4,0.2,0.6c0.1,0.2,0.1,0.5,0.2,0.7l0.1,0.3
				c0.1,0.3,0.3,0.6,0.4,0.8l0.2,0.2c0.2,0.3,0.4,0.6,0.6,0.8l0.3,0.3c0.3,0.3,0.6,0.5,0.8,0.7c0.1,0.1,0.3,0.2,0.4,0.2l0.9,0.5
				c0.8,0.3,1.7,0.5,2.5,0.5l16.2,0.1c1.8,0,3.6-0.7,4.8-2c1.3-1.3,2-2.9,2-4.7C166.4,465.7,163.4,462.7,159.5,462.7z"/>
		</g>
	</g>
	<g class="st1">
		<path class="st3" d="M476.9,349.4v13.2h-39.6v26.5h33.4v13.3h-33.4v36.4h-16.7v-89.4H476.9z"/>
		<path class="st3" d="M575.6,394.1c0,6.5-1.1,12.6-3.3,18.2c-2.2,5.5-5.2,10.4-9.2,14.5c-3.9,4.1-8.8,7.2-14.3,9.6
			c-5.5,2.3-11.7,3.4-18.5,3.4c-6.8,0-12.9-1.1-18.5-3.4c-5.5-2.3-10.4-5.4-14.3-9.6c-4-4.1-7-9-9.3-14.5s-3.3-11.7-3.3-18.2
			s1.1-12.6,3.3-18.2c2.2-5.5,5.2-10.4,9.3-14.5c4-4.1,8.8-7.2,14.3-9.6c5.5-2.3,11.8-3.4,18.5-3.4c6.7,0,12.9,1.1,18.5,3.4
			c5.5,2.3,10.4,5.5,14.3,9.6c3.9,4,7,8.9,9.2,14.5C574.5,381.5,575.6,387.6,575.6,394.1z M558.5,394.1c0-4.9-0.6-9.3-1.9-13.2
			c-1.3-3.9-3.1-7.2-5.6-10c-2.4-2.7-5.4-4.8-8.9-6.2c-3.5-1.4-7.4-2.1-11.8-2.1c-4.4,0-8.3,0.7-11.8,2.1c-3.5,1.4-6.4,3.5-9,6.2
			c-2.4,2.7-4.3,6-5.6,10c-1.3,3.9-2,8.3-2,13.2s0.7,9.3,2,13.2s3.2,7.1,5.6,9.9c2.4,2.7,5.4,4.7,9,6.2c3.5,1.4,7.4,2.1,11.8,2.1
			c4.4,0,8.3-0.7,11.8-2.1s6.4-3.5,8.9-6.2c2.4-2.7,4.3-6,5.6-9.9C557.9,403.4,558.5,399,558.5,394.1z"/>
		<path class="st3" d="M605.9,403.9v34.9h-16.6v-89.4h27.3c6.1,0,11.3,0.6,15.7,1.9c4.3,1.2,7.9,3,10.7,5.2c2.8,2.3,4.8,4.9,6.1,8.2
			c1.3,3.2,1.9,6.6,1.9,10.4c0,3-0.4,5.8-1.3,8.6c-0.9,2.7-2.1,5.1-3.8,7.2c-1.7,2.2-3.7,4.1-6.1,5.7c-2.4,1.6-5.2,2.9-8.4,3.9
			c2.1,1.2,3.9,2.9,5.4,5.1l22.3,33h-15c-1.4,0-2.7-0.3-3.7-0.9c-1-0.6-1.9-1.4-2.5-2.5L619,406.7c-0.7-1.1-1.5-1.8-2.3-2.3
			s-2.1-0.7-3.7-0.7h-7.1V403.9z M605.9,392h10.4c3.1,0,5.8-0.4,8.2-1.2c2.3-0.8,4.2-1.9,5.7-3.2c1.5-1.4,2.6-3,3.3-4.9
			c0.7-1.9,1.1-3.9,1.1-6.2c0-4.5-1.5-8-4.5-10.5c-3-2.4-7.5-3.6-13.7-3.6h-10.7V392H605.9z"/>
		<path class="st3" d="M686.8,386.9h3.9c1.6,0,2.8-0.2,3.9-0.6c1-0.4,1.9-1.1,2.6-2.1l24.7-31.2c1-1.3,2.1-2.2,3.2-2.7
			c1.1-0.5,2.5-0.8,4.3-0.8h14.3l-30.1,37.1c-0.9,1.1-1.8,2.1-2.7,2.9s-1.8,1.4-2.8,1.9c1.4,0.5,2.6,1.2,3.7,2.1
			c1.1,0.9,2.1,2,3.2,3.4l31,41.9h-14.7c-2,0-3.4-0.3-4.4-0.8c-1-0.6-1.8-1.4-2.4-2.4l-25.4-33c-0.8-1.1-1.7-1.8-2.8-2.3
			c-1-0.5-2.5-0.7-4.4-0.7h-5.2v39.2H670v-89.4h16.6v37.4h0.2V386.9z"/>
		<path class="st2" d="M774.5,438.8h-16.7v-89.4h16.7V438.8z"/>
		<path class="st2" d="M880.4,394.1c0,6.5-1.1,12.6-3.3,18.2c-2.2,5.5-5.2,10.4-9.2,14.5c-3.9,4.1-8.8,7.2-14.3,9.6
			c-5.5,2.3-11.7,3.4-18.5,3.4s-12.9-1.1-18.5-3.4c-5.5-2.3-10.4-5.4-14.3-9.6c-4-4.1-7-9-9.3-14.5s-3.3-11.7-3.3-18.2
			s1.1-12.6,3.3-18.2c2.2-5.5,5.2-10.4,9.3-14.5c3.9-4.1,8.8-7.2,14.3-9.6c5.5-2.3,11.8-3.4,18.5-3.4s12.9,1.1,18.5,3.4
			c5.5,2.3,10.4,5.5,14.3,9.6c3.9,4.1,7,8.9,9.2,14.5C879.2,381.5,880.4,387.6,880.4,394.1z M863.2,394.1c0-4.9-0.6-9.3-1.9-13.2
			c-1.3-3.9-3.1-7.2-5.6-10c-2.4-2.7-5.4-4.8-8.9-6.2c-3.5-1.4-7.4-2.1-11.8-2.1c-4.4,0-8.3,0.7-11.8,2.1c-3.5,1.4-6.4,3.5-9,6.2
			c-2.4,2.7-4.3,6-5.6,10s-2,8.3-2,13.2s0.7,9.3,2,13.2s3.2,7.1,5.6,9.9c2.4,2.7,5.4,4.7,9,6.2c3.5,1.4,7.4,2.1,11.8,2.1
			c4.4,0,8.3-0.7,11.8-2.1s6.4-3.5,8.9-6.2c2.4-2.7,4.3-6,5.6-9.9C862.6,403.4,863.2,399,863.2,394.1z"/>
	</g>
</g>
<g id="Слой_2">
	<g>
		<g>
			<path class="st2" d="M230.7,305.6c12.6,0,22.8,12.1,22.8,27.1s-10.2,41.4-22.8,41.4c-12.6,0-22.9-26.4-22.9-41.4
				C207.9,317.8,218.1,305.6,230.7,305.6 M230.7,291c-20.6,0-37.4,18.7-37.4,41.8c0,19.6,12.9,56,37.5,56s37.5-36.5,37.5-56
				C268.2,309.7,251.4,291,230.7,291L230.7,291z"/>
		</g>
		<g>
			<path class="st2" d="M259.8,426.9c14.5,10.4,24,38.5,24,60.5H177.6c0-21.9,9.6-50.1,24-60.5c8.6,5.4,18.5,8.6,29.1,8.6
				C241.4,435.5,251.3,432.4,259.8,426.9 M201.6,411.8c-3,0-6,0.9-8.5,2.7c-18.9,13.6-30.1,47.7-30.1,72.4c0,8.1,6.5,15.1,14.6,15.1
				h106.3c8.1,0,14.6-7,14.6-15.1c0-24.7-11.3-58.6-30.1-72.1c-2.5-1.8-5.5-2.9-8.5-2.9c-2.7,0-5.5,0.7-7.9,2.2
				c-6.5,4.1-13.8,6.3-21.3,6.3c-7.4,0-14.8-2.2-21.3-6.3C207.1,412.6,204.3,411.8,201.6,411.8L201.6,411.8z"/>
		</g>
		<g>
			<path class="st2" d="M193.4,479.6c-2,0-3.7-1.6-3.7-3.7c0-18.3,5-30.1,16.2-38.2c1.2-0.9,2.8-0.9,4.1-0.1
				c2.1,1.3,4.3,2.5,6.5,3.3c1.9,0.8,2.8,2.9,2,4.8c-0.8,1.9-2.9,2.8-4.8,2c-1.8-0.7-3.7-1.6-5.4-2.6c-7.9,6.6-11.3,15.9-11.3,30.8
				C197.1,478,195.5,479.6,193.4,479.6z"/>
		</g>
		<g>
			<path class="st2" d="M230.7,451.1c-1.4,0-2.9-0.1-4.3-0.2c-2-0.2-3.5-2-3.3-4s2-3.5,4-3.3c1.2,0.1,2.4,0.2,3.6,0.2
				c2,0,3.7,1.6,3.7,3.7C234.4,449.5,232.7,451.1,230.7,451.1z"/>
		</g>
		<g>
			<path class="st2" d="M340.6,494.7h-28.5c-4,0-7.3-3.3-7.3-7.3s3.3-7.3,7.3-7.3h20.6c-2.2-16.4-11-39.5-22.4-48.6
				c-1.5,0.4-3.2,0.9-5.1,1.4c-1.7,0.4-3.8,1-4.5,1.3c-3.8,1.4-8-0.5-9.4-4.3s0.5-8,4.3-9.4c1.5-0.6,3.6-1.1,6-1.7
				c1.9-0.5,5.5-1.4,6.5-1.9c2.2-1,4.9-1,7,0.2c20.1,11.7,32.9,49.5,32.9,70.4C347.9,491.4,344.7,494.7,340.6,494.7z"/>
		</g>
		<g>
			<path class="st2" d="M136.7,494.7h-14.4c-4,0-7.3-3.3-7.3-7.3c0-20.9,12.8-58.7,32.9-70.4c2.2-1.3,4.8-1.3,7-0.2
				c1.7,0.9,2.9,1.8,3.8,2.5c0.8,0.6,1.1,0.9,1.6,1.1c3.8,1.4,5.7,5.6,4.3,9.4c-1.4,3.8-5.6,5.7-9.4,4.3c-1.5-0.5-2.6-1.2-3.6-1.8
				c-11,9.6-19.3,31.9-21.5,47.8h6.5c4,0,7.3,3.3,7.3,7.3S140.7,494.7,136.7,494.7z"/>
		</g>
		<g>
			<path class="st2" d="M178,399.9c-0.9,0-1.7-0.1-2.4-0.1C157.2,399.1,146,368,146,351c0-19,13.5-34.4,30.2-34.4
				c4,0,7.3,3.3,7.3,7.3s-3.3,7.3-7.3,7.3c-8.6,0-15.5,8.9-15.5,19.8c0,14.4,9.9,34.1,15.5,34.1c0.4,0,0.8,0,1.2,0.1
				c0.5,0.1,6.4,0.6,10.8-6c2.2-3.4,6.8-4.3,10.1-2c3.4,2.2,4.3,6.8,2,10.1C193.7,397.3,184.2,399.9,178,399.9z"/>
		</g>
		<g>
			<path class="st2" d="M282.8,399.9c-6.2,0-15.7-2.6-22.3-12.6c-2.2-3.4-1.3-7.9,2-10.1c3.4-2.2,7.9-1.3,10.1,2
				c4.6,6.8,10.7,6.1,10.8,6c0.4-0.1,0.8-0.1,1.2-0.1c5.6,0,15.5-19.7,15.5-34.1c0-10.9-7-19.8-15.5-19.8c-4,0-7.3-3.3-7.3-7.3
				s3.3-7.3,7.3-7.3c16.6,0,30.2,15.5,30.2,34.4c0,17-11.2,48.1-29.6,48.7C284.5,399.8,283.7,399.9,282.8,399.9z"/>
		</g>
	</g>
	<g>
		<path class="st4" d="M438,424.7h32.5v13.9h-49.9v-88.9H438V424.7z"/>
		<path class="st4" d="M526.4,399.5h-29.8v25.1h35.1v13.9h-52.5v-88.8h52.4v13.9h-35v22.1h29.8V399.5z"/>
		<path class="st4" d="M580.6,419.5h-23.4l-4.8,19h-17.5l25-88.8H578l25,88.8h-17.5L580.6,419.5z M560.7,405.7h16.4l-8-31.4h-0.4
			L560.7,405.7z"/>
		<path class="st4" d="M609.8,438.5v-88.8h26.8c9.1,0,16.6,3.4,22.6,10.3c5.9,6.9,8.9,15.8,8.9,26.6v14.9c0,10.9-3,19.7-8.9,26.6
			s-13.5,10.3-22.6,10.3L609.8,438.5L609.8,438.5z M627.2,363.5v61.1h8.5c4.8,0,8.6-2.1,11.2-6.3c2.6-4.2,3.9-9.8,3.9-16.8v-15
			c0-6.9-1.3-12.5-3.9-16.7c-2.6-4.2-6.4-6.3-11.2-6.3H627.2z"/>
		<path class="st2" d="M724.2,405.2h7.7v13.9h-7.7v19.5H707v-19.5h-29.5l-0.9-10.8l30.3-58.6h17.3L724.2,405.2L724.2,405.2z
			 M692.3,405.2H707v-30.7l-0.4-0.1l-0.9,1.6L692.3,405.2z"/>
		<path class="st4" d="M797.9,409.9l0.2,0.4c0.1,9.8-2.2,17.1-7,22.1c-4.7,5-11.7,7.4-20.9,7.4s-16.5-2.8-22-8.5
			c-5.5-5.6-8.2-13.6-8.2-23.9v-26.5c0-10.3,2.7-18.3,8-23.9c5.3-5.7,12.4-8.5,21.3-8.5c9.4,0,16.6,2.5,21.4,7.6
			c4.8,5,7.3,12.5,7.5,22.4l-0.2,0.4h-16.7c0.2-5.8-0.5-10-2.4-12.6c-1.8-2.6-5-3.9-9.6-3.9c-3.9,0-6.9,1.5-9,4.6s-3.1,7.7-3.1,13.9
			v26.7c0,6.3,1.1,10.9,3.3,14s5.5,4.6,9.7,4.6s7.1-1.2,8.8-3.6c1.6-2.4,2.4-6.6,2.2-12.4h16.7V409.9z"/>
		<path class="st4" d="M826,403.2v35.3h-17.3v-88.8h29c8.7,0,15.6,2.3,20.6,6.9s7.5,11,7.5,19.3c0,4.6-1,8.6-3.1,12s-5.1,6-9.1,8
			c4.6,1.5,7.8,4.1,9.9,7.7c2,3.6,3,8.1,3,13.4v6.3c0,2.4,0.3,5.1,0.9,7.8c0.6,2.8,1.6,4.8,3,6.1v1.3h-17.9
			c-1.4-1.3-2.3-3.4-2.7-6.3c-0.4-2.9-0.5-5.9-0.5-9v-6c0-4.4-0.9-7.9-2.7-10.3s-4.4-3.7-7.8-3.7H826z M826,389.3h11.6
			c3.5,0,6.2-1.1,8.1-3.2c1.8-2.2,2.7-5.2,2.7-9.2c0-4.1-0.9-7.3-2.7-9.7s-4.5-3.6-8-3.6H826V389.3z"/>
		<path class="st4" d="M901.7,349.7l15.9,65.2h0.4l16.1-65.2h22.6v88.8h-17.3v-25.8l1.5-34.5l-0.4-0.1l-17,60.4H912l-16.8-59.9
			l-0.4,0.1l1.5,34v25.8H879v-88.8H901.7z"/>
	</g>
</g>
</svg>
