<?xml version="1.0" encoding="UTF-8" standalone="no"?>
<svg width="50px" height="35px" viewBox="0 0 50 35" version="1.1" xmlns="http://www.w3.org/2000/svg" xmlns:xlink="http://www.w3.org/1999/xlink" xmlns:sketch="http://www.bohemiancoding.com/sketch/ns">
    <!-- Generator: Sketch 3.5.2 (25235) - http://www.bohemiancoding.com/sketch -->
    <title>maestro</title>
    <desc>Created with Sketch.</desc>
    <defs></defs>
    <g id="Page-1" stroke="none" stroke-width="1" fill="none" fill-rule="evenodd" sketch:type="MSPage">
        <g id="Desktop_v1" sketch:type="MSArtboardGroup" transform="translate(-468.000000, -306.000000)">
            <g id="про-меню" sketch:type="MSLayerGroup" transform="translate(328.000000, 255.000000)">
                <g id="1" transform="translate(0.000000, 51.000000)" sketch:type="MSShapeGroup">
                    <g id="maestro" transform="translate(143.000000, 4.000000)">
                        <path d="M22.5105882,23.459177 C25.2295989,20.9940531 26.9379144,17.4329204 26.9379144,13.4732389 C26.9379144,9.51284071 25.2295989,5.95218584 22.5105882,3.48706195 C20.1202941,1.32037168 16.9486364,0 13.4687166,0 C6.03048128,0 0,6.03223009 0,13.4732389 C0,20.9137699 6.03048128,26.9455221 13.4687166,26.9455221 C16.9486364,26.9455221 20.1202941,25.6258673 22.5105882,23.459177" id="Fill-74" fill="#0092C7"></path>
                        <path d="M31.455,0 C27.9750802,0 24.8039037,1.32037168 22.4136096,3.48706195 C21.9263102,3.92861947 21.471738,4.40577876 21.0535027,4.91352212 L23.772754,4.91352212 C24.1445455,5.36559292 24.4879412,5.84179646 24.7998128,6.34022124 L20.0266845,6.34022124 C19.7405615,6.79826549 19.4809091,7.27423009 19.2503743,7.76692035 L25.5754011,7.76692035 C25.791738,8.22854867 25.9830481,8.70475221 26.1466845,9.19338053 L18.6798128,9.19338053 C18.5243583,9.65787611 18.3936898,10.1340796 18.2887701,10.6198407 L26.5379679,10.6198407 C26.736016,11.5397522 26.8409358,12.4940708 26.8409358,13.4732389 C26.8409358,14.9687522 26.5969251,16.408115 26.1466845,17.7526195 L18.6798128,17.7526195 C18.8434492,18.2412478 19.0340374,18.7176903 19.2503743,19.1793186 L25.5754011,19.1793186 C25.3446257,19.671531 25.0859358,20.1479735 24.7998128,20.6057788 L20.0266845,20.6057788 C20.3380749,21.1042035 20.6814706,21.580646 21.053262,22.0324779 L23.772754,22.0324779 C23.3542781,22.5402212 22.9006684,23.0176195 22.4136096,23.459177 C24.8039037,25.6258673 27.9750802,26.9455221 31.455,26.9455221 C38.8934759,26.9455221 44.9237166,20.9137699 44.9237166,13.4732389 C44.9237166,6.03223009 38.8934759,0 31.455,0" id="Fill-75" fill="#D82331"></path>
                        <path d="M11.6343048,16.8661593 L9.95799465,16.8661593 L10.9542513,11.6152566 L8.66045455,16.8661593 L7.1318984,16.8661593 L6.85275401,11.6451239 L5.85312834,16.8661593 L4.3315508,16.8661593 L5.63173797,10.0353982 L8.24751337,10.0353982 L8.38612299,14.2643628 L10.2301604,10.0353982 L12.9559091,10.0353982 L11.6343048,16.8661593" id="Fill-78" fill="#FFFFFF"></path>
                        <path d="M30.4445455,16.7985398 C29.9858824,16.9244602 29.6275668,16.9784602 29.2401337,16.9784602 C28.382246,16.9784602 27.9144385,16.5483717 27.9144385,15.7586814 C27.9144385,15.6024159 27.9315241,15.436115 27.9637701,15.2602566 L28.0658021,14.7166726 L28.1442513,14.2770265 L28.9210428,10.0353982 L30.5882086,10.0353982 L30.3466043,11.3110885 L31.2020856,11.3110885 L30.9720321,12.6618053 L30.1129412,12.6618053 L29.671123,14.9792655 C29.651631,15.0810531 29.6424866,15.1575133 29.6424866,15.2093628 C29.6424866,15.4958496 29.8159893,15.6210531 30.2147326,15.6210531 C30.4055615,15.6210531 30.5533155,15.6038496 30.6666578,15.5692035 L30.4445455,16.7985398" id="Fill-79" fill="#FFFFFF"></path>
                        <path d="M35.3976738,11.3364159 C35.2573797,11.2809823 35.2241711,11.2809823 35.2080481,11.2764425 C35.1192513,11.2568496 35.0718449,11.2451416 35.0636631,11.2439469 C35.0128877,11.2346283 34.9563369,11.2300885 34.8949733,11.2300885 C34.344385,11.2300885 33.9482888,11.4754779 33.4347594,12.1320796 L33.582754,11.2903009 L32.0645455,11.2903009 L31.0427807,16.8458496 L32.7202941,16.8458496 C33.3202139,13.4483894 33.5777005,12.8531947 34.3824064,12.8531947 C34.4425668,12.8531947 34.5130749,12.8579735 34.5939305,12.8670531 L34.7902941,12.9071947 L35.3976738,11.3364159" id="Fill-80" fill="#FFFFFF"></path>
                        <path d="M23.7433957,12.8694425 C23.7433957,13.5712035 24.1385294,14.0545752 25.0346791,14.4177611 C25.7214706,14.6963628 25.8275936,14.7785575 25.8275936,15.0303982 C25.8275936,15.3768584 25.5248663,15.532646 24.8541979,15.532646 C24.3478877,15.532646 23.8774332,15.4645487 23.3340642,15.312823 L23.1016043,16.5942478 L23.1769251,16.6069115 L23.4878342,16.6633009 C23.5874599,16.6807434 23.7352139,16.697469 23.930615,16.7122832 C24.3339305,16.7431062 24.6460428,16.7586372 24.8659893,16.7586372 C26.6554011,16.7586372 27.4820053,16.1720442 27.4820053,14.9049558 C27.4820053,14.1422655 27.1366845,13.6952124 26.2864973,13.3587876 C25.5756417,13.0775575 25.4935829,13.0151947 25.4935829,12.7559469 C25.4935829,12.4565575 25.775615,12.3026814 26.3237968,12.3026814 C26.6566043,12.3026814 27.1109358,12.3339823 27.5421658,12.3858319 L27.7837701,11.1001062 C27.3445989,11.0401327 26.6785027,10.9911504 26.2915508,10.9911504 C24.3940909,10.9911504 23.7376203,11.8446372 23.7433957,12.8694425" id="Fill-81" fill="#FFFFFF"></path>
                        <path d="M15.9410695,14.1967434 C15.7654011,14.1781062 15.6879144,14.1735664 15.566631,14.1735664 C14.6163369,14.1735664 14.1352941,14.4581416 14.1352941,15.0191681 C14.1352941,15.3649115 14.3701604,15.5856903 14.7366578,15.5856903 C15.4198396,15.5856903 15.9121925,15.0182124 15.9410695,14.1967434 L15.9410695,14.1967434 Z M17.1642513,16.6716637 L15.7711765,16.6716637 L15.8034225,16.095823 C15.3791711,16.5517168 14.8139037,16.7677168 14.0450535,16.7677168 C13.136631,16.7677168 12.513369,16.1488673 12.513369,15.2504602 C12.513369,13.897115 13.5964973,13.1086195 15.457861,13.1086195 C15.6486898,13.1086195 15.8912567,13.1236726 16.1410428,13.1513894 C16.1930214,12.9688407 16.2072193,12.8899912 16.2072193,12.7905929 C16.2072193,12.4226283 15.9145989,12.2852389 15.1320321,12.2852389 C14.6533957,12.2852389 14.1124332,12.3454513 13.7387166,12.4400708 L13.5064973,12.4990885 L13.3560963,12.5351681 L13.5885561,11.286 C14.4243048,11.0721504 14.9758556,10.9911504 15.595508,10.9911504 C17.0359893,10.9911504 17.7976203,11.5555221 17.7976203,12.620469 C17.7976203,12.8947699 17.7723529,13.102885 17.6616578,13.7212566 L17.3110428,15.6920177 L17.2520856,16.045885 L17.2092513,16.3280708 L17.180615,16.5213717 L17.1642513,16.6716637 L17.1642513,16.6716637 Z" id="Fill-82" fill="#FFFFFF"></path>
                        <path d="M21.7239305,13.2601062 C21.7328342,13.1442212 21.7376471,13.0496018 21.7376471,12.9767257 C21.7376471,12.5256106 21.4438235,12.2608673 20.9447326,12.2608673 C20.4114706,12.2608673 20.0300535,12.6159292 19.8753209,13.2567611 L21.7239305,13.2601062 L21.7239305,13.2601062 Z M22.6169519,16.5655752 C22.0422995,16.7175398 21.4861765,16.7918496 20.8990107,16.7904159 C19.024893,16.7894602 18.0481283,15.9359735 18.0481283,14.302115 C18.0481283,12.3951504 19.2905615,10.9911504 20.9777005,10.9911504 C22.3577807,10.9911504 23.2387701,11.7774956 23.2387701,13.010177 C23.2387701,13.4197168 23.1788503,13.8187434 23.0330214,14.3819204 L19.7001337,14.3819204 C19.6873797,14.4672212 19.6840107,14.5056903 19.6840107,14.5565841 C19.6840107,15.2005221 20.1809358,15.5290619 21.1545722,15.5290619 C21.7532888,15.5290619 22.294492,15.4203451 22.8953743,15.1775841 L22.6169519,16.5655752 L22.6169519,16.5655752 Z" id="Fill-83" fill="#FFFFFF"></path>
                        <path d="M38.8448663,13.4763451 C38.8448663,12.8952478 38.6090374,12.346646 37.9217647,12.346646 C37.0667647,12.346646 36.5363904,13.3578319 36.5363904,14.2509823 C36.5363904,15.0038761 36.8995187,15.5101858 37.4991979,15.4994336 C37.8623262,15.4994336 38.6369519,15.0038761 38.7904813,14.1393982 C38.8263369,13.9374956 38.8448663,13.7162389 38.8448663,13.4763451 L38.8448663,13.4763451 Z M40.5712299,14.1871858 C40.3204813,16.0351327 39.0301604,16.8546903 37.315107,16.8546903 C35.4186096,16.8546903 34.6524064,15.7037257 34.6524064,14.2939912 C34.6524064,12.3251416 35.9494652,10.9911504 37.9532888,10.9911504 C39.6924064,10.9911504 40.6157487,12.088115 40.6157487,13.4978496 C40.6157487,13.8407257 40.6152674,13.8641416 40.5712299,14.1871858 L40.5712299,14.1871858 Z" id="Fill-84" fill="#FFFFFF"></path>
                    </g>
                </g>
            </g>
        </g>
    </g>
</svg>