<?xml version="1.0" encoding="UTF-8" standalone="no"?>
<svg width="90px" height="35px" viewBox="0 0 90 35" version="1.1" xmlns="http://www.w3.org/2000/svg" xmlns:xlink="http://www.w3.org/1999/xlink">
    <!-- Generator: Sketch 3.7.1 (28215) - http://www.bohemiancoding.com/sketch -->
    <title>связной</title>
    <desc>Created with Sketch.</desc>
    <defs>
        <polygon id="path-1" points="85.4685714 8.616 85.4685714 0.129846154 8.93573219e-21 0.129846154 0 8.616"></polygon>
    </defs>
    <g id="Page-1" stroke="none" stroke-width="1" fill="none" fill-rule="evenodd">
        <g id="01_Sposobi_Desktop" transform="translate(-1093.000000, -462.000000)">
            <g id="про-меню" transform="translate(328.000000, 255.000000)">
                <g id="6" transform="translate(660.000000, 207.000000)">
                    <g id="связной" transform="translate(108.000000, 8.000000)">
                        <g id="Group-3" transform="translate(0.000000, 2.810374)">
                            <mask id="mask-2" fill="white">
                                <use xlink:href="#path-1"></use>
                            </mask>
                            <g id="Clip-2"></g>
                            <path d="M65.5283077,0.129846154 C62.5287473,0.129846154 58.6661099,1.20523077 58.6661099,4.40830769 C58.6661099,7.54303297 62.5724835,8.616 65.5283077,8.616 C68.4863297,8.616 72.3902857,7.54303297 72.3902857,4.40830769 C72.3902857,1.20523077 68.5276484,0.129846154 65.5283077,0.129846154 L65.5283077,0.129846154 Z M10.9195165,8.20347253 C12.954022,8.38237363 14.6729231,8.47753846 16.5566593,8.47753846 C19.3074286,8.47753846 22.8707253,8.32808791 22.8707253,6.18171429 C22.8707253,4.93072527 21.4665495,4.27138462 20.2568791,4.27138462 L20.2568791,4.18742857 C21.4122637,4.05094505 22.3480879,3.26698901 22.3480879,2.34545055 C22.3480879,0.434241758 19.3074286,0.282813187 16.4478681,0.282813187 C14.5491868,0.282813187 13.023033,0.352263736 10.9195165,0.545010989 L10.9195165,8.20347253 Z M27.339956,8.20347253 L28.9058901,5.63358242 L30.4883077,5.63358242 L30.4883077,8.20347253 L34.6828132,8.20347253 L34.6828132,0.545010989 C32.896,0.352263736 30.3507253,0.282813187 29.5533626,0.282813187 C26.168967,0.282813187 22.9797363,0.503252747 22.9797363,3.08940659 C22.9797363,4.20149451 23.9562198,4.86215385 25.0562198,5.13797802 L22.7749011,8.20347253 L27.339956,8.20347253 Z M76.6535824,8.20347253 L81.1918242,4.36720879 L81.1918242,8.20347253 L85.4687473,8.20347253 L85.4687473,0.545010989 L81.672044,0.545010989 L77.1331429,4.38149451 L77.1331429,0.545010989 L72.857978,0.545010989 L72.857978,8.20347253 L76.6535824,8.20347253 Z M46.5228132,8.20347253 L50.8825934,8.20347253 L50.8825934,5.34237363 L53.8524835,5.34237363 L53.8524835,8.20347253 L58.2263297,8.20347253 L58.2263297,0.545010989 L53.8524835,0.545010989 L53.8524835,3.1992967 L50.8825934,3.1992967 L50.8825934,0.545010989 L46.5228132,0.545010989 L46.5228132,8.20347253 Z M10.0239121,3.1570989 L10.0239121,0.887868132 C8.91204396,0.421714286 7.6316044,0.129846154 6.11951648,0.129846154 C3.17643956,0.129846154 -4.3956044e-05,1.24676923 -4.3956044e-05,4.40830769 C-4.3956044e-05,7.45995604 3.16413187,8.616 6.17446154,8.616 C7.60391209,8.616 8.9938022,8.35621978 10.0239121,7.91643956 L10.0239121,5.64567033 C9.15907692,6.00193407 8.30567033,6.19512088 7.39775824,6.19512088 C6.10654945,6.19512088 4.68874725,5.76962637 4.68874725,4.40830769 C4.68874725,3.08940659 5.9138022,2.57995604 7.23314286,2.57995604 C8.08567033,2.57995604 9.11797802,2.81292308 10.0239121,3.1570989 L10.0239121,3.1570989 Z M65.5283077,6.49753846 C64.5395165,6.49753846 63.1621538,5.96193407 63.1621538,4.39468132 C63.1621538,2.73050549 64.5241319,2.25006593 65.5283077,2.25006593 C66.5329231,2.25006593 67.8916044,2.73050549 67.8916044,4.39468132 C67.8916044,5.96193407 66.517978,6.49753846 65.5283077,6.49753846 L65.5283077,6.49753846 Z M37.2814945,5.06852747 L40.0601758,5.06852747 C40.9127033,5.06852747 41.159956,5.34237363 41.159956,5.68676923 C41.159956,6.23863736 40.5555604,6.48457143 39.536,6.48457143 C38.3683077,6.48457143 36.8012747,6.18171429 35.6718242,5.88017582 L35.3432527,7.79028571 C36.6351209,8.17512088 38.1757802,8.56127473 40.3208352,8.56127473 C43.0722637,8.56127473 45.9601758,7.90171429 45.9601758,6.11248352 C45.9601758,4.89138462 44.5990769,4.35314286 43.4298462,4.27138462 L43.4298462,4.21687912 C44.365011,4.03665934 45.3124835,3.39116484 45.3124835,2.42830769 C45.3124835,0.792703297 43.0157802,0.172043956 40.608967,0.172043956 C38.8628132,0.172043956 36.9639121,0.545010989 35.6863297,0.887868132 L35.9485275,2.73050549 C37.088967,2.44237363 38.5318242,2.1538022 39.606989,2.1538022 C40.5555604,2.1538022 41.0494066,2.33248352 41.0494066,2.85204396 C41.0494066,3.18545055 40.8577582,3.4603956 40.1012747,3.4603956 L37.2814945,3.4603956 L37.2814945,5.06852747 Z M15.1142418,6.48457143 L15.1142418,4.93072527 L17.2863297,4.93072527 C18.0291868,4.93072527 18.4551209,5.13797802 18.4551209,5.71468132 C18.4551209,6.29094505 18.0291868,6.48457143 17.2863297,6.48457143 L15.1142418,6.48457143 Z M15.1142418,3.63907692 L15.1142418,2.16720879 L17.2043516,2.16720879 C17.6839121,2.16720879 18.2342418,2.30391209 18.2342418,2.88083516 C18.2342418,3.4603956 17.6839121,3.63907692 17.2043516,3.63907692 L15.1142418,3.63907692 Z M30.4883077,3.96720879 L28.4533626,3.96720879 C27.5458901,3.96720879 27.228967,3.50171429 27.228967,3.06127473 C27.228967,2.62105495 27.5458901,2.16720879 28.4533626,2.16720879 L30.4883077,2.16720879 L30.4883077,3.96720879 Z" id="Fill-1" fill="#6E6E6E" mask="url(#mask-2)"></path>
                        </g>
                        <polygon id="Fill-4" fill="#D4AB4F" points="81.0545714 2.68072527 77.9183077 6.59340658e-05 77.9183077 5.36292308"></polygon>
                        <polygon id="Fill-6" fill="#AAB9DF" points="0 20 17.0037363 20 17.0037363 15 0 15"></polygon>
                        <polygon id="Fill-8" fill="#D4AB4F" points="17 20 34.0037363 20 34.0037363 15 17 15"></polygon>
                        <polygon id="Fill-9" fill="#ABCB78" points="34 20 51.003956 20 51.003956 15 34 15"></polygon>
                        <polygon id="Fill-10" fill="#E4D95F" points="51 20 68.0037363 20 68.0037363 15 51 15"></polygon>
                        <polygon id="Fill-11" fill="#AC8CB6" points="68 20 85.0037363 20 85.0037363 15 68 15"></polygon>
                    </g>
                </g>
            </g>
        </g>
    </g>
</svg>