<?xml version="1.0" encoding="UTF-8" standalone="no"?>
<svg width="50px" height="30px" viewBox="0 0 50 30" version="1.1" xmlns="http://www.w3.org/2000/svg" xmlns:xlink="http://www.w3.org/1999/xlink" xmlns:sketch="http://www.bohemiancoding.com/sketch/ns">
    <!-- Generator: Sketch 3.5.2 (25235) - http://www.bohemiancoding.com/sketch -->
    <title>visa</title>
    <desc>Created with Sketch.</desc>
    <defs></defs>
    <g id="Page-1" stroke="none" stroke-width="1" fill="none" fill-rule="evenodd" sketch:type="MSPage">
        <g id="Desktop_v1" sketch:type="MSArtboardGroup" transform="translate(-328.000000, -311.000000)" fill="#242D69">
            <g id="про-меню" sketch:type="MSLayerGroup" transform="translate(328.000000, 255.000000)">
                <g id="1" transform="translate(0.000000, 51.000000)" sketch:type="MSShapeGroup">
                    <g id="visa" transform="translate(2.000000, 13.000000)">
                        <path d="M13.4730539,14.0847305 L17.6629042,0.269461078 L21.4011377,0.269461078 L17.211018,14.0847305 L13.4730539,14.0847305" id="Fill-74"></path>
                        <path d="M8.50526946,6.12592814 C7.64919162,7.6597006 7.14853293,8.4344012 6.90817365,9.40365269 L6.85697605,9.40365269 C6.91652695,8.17464072 6.7451497,6.6661976 6.7292515,5.81362275 L6.35766467,0.269461078 L0.0646706587,0.269461078 L0,0.641317365 C1.61676647,0.641317365 2.57550898,1.45320359 2.83931138,3.1147006 L4.0658982,14.0806886 L7.93886228,14.0806886 L15.7702096,0.269461078 L11.8681437,0.269461078 L8.50526946,6.12592814 Z" id="Fill-75"></path>
                        <path d="M40.6134431,5.90901198 C40.5719461,4.88802395 40.5374551,3.50218563 40.6064371,2.66362275 L40.5514671,2.66362275 C40.3243114,3.34967066 39.3467066,5.40889222 38.9169162,6.42206587 L37.5259581,9.45 L40.8036826,9.45 L40.6134431,5.90901198 L40.6134431,5.90901198 Z M41.0424251,14.0580539 L40.9392216,12.0036826 L36.2713473,11.9999102 L35.3163772,14.0580539 L31.257485,14.0580539 L38.617006,0.269461078 L43.5990719,0.269461078 L44.8450599,14.0580539 L41.0424251,14.0580539 L41.0424251,14.0580539 Z" id="Fill-76"></path>
                        <path d="M25.5812874,14.5107485 C22.9419162,14.5107485 21.1904192,13.6738024 19.9401198,12.9276647 L21.720988,10.2077246 C22.8432934,10.8355689 23.7247006,11.5601497 25.7529341,11.5601497 C26.4050299,11.5601497 27.0331437,11.3906587 27.3901796,10.7727844 C27.9102395,9.87413174 27.2702695,9.39071856 25.8100599,8.56401198 L25.0887126,8.0951497 C22.9241317,6.61580838 21.9877545,5.21056886 23.0068563,2.75793413 C23.6586826,1.1894012 25.3789222,0 28.2163473,0 C30.1729042,0 32.0073952,0.846377246 33.0766168,1.67335329 L31.0292515,4.07452096 C29.9856287,3.23110778 29.1214671,2.80401198 28.1317365,2.80401198 C27.3427545,2.80401198 26.7434731,3.10850299 26.5362575,3.51889222 C26.1468862,4.29035928 26.6620958,4.81634731 27.8000299,5.52233533 L28.6577246,6.06799401 C31.2857784,7.72571856 31.9122754,9.46401198 31.2534431,11.0888623 C30.1200898,13.8864072 27.9018862,14.5107485 25.5812874,14.5107485" id="Fill-77"></path>
                    </g>
                </g>
            </g>
        </g>
    </g>
</svg>