<?xml version="1.0" encoding="UTF-8" standalone="no"?>
<svg width="34px" height="39px" viewBox="0 0 34 39" version="1.1" xmlns="http://www.w3.org/2000/svg" xmlns:xlink="http://www.w3.org/1999/xlink" xmlns:sketch="http://www.bohemiancoding.com/sketch/ns">
    <!-- Generator: Sketch 3.5.2 (25235) - http://www.bohemiancoding.com/sketch -->
    <title>alfa</title>
    <desc>Created with Sketch.</desc>
    <defs></defs>
    <g id="Page-1" stroke="none" stroke-width="1" fill="none" fill-rule="evenodd" sketch:type="MSPage">
        <g id="Desktop_v1" sketch:type="MSArtboardGroup" transform="translate(-1040.000000, -302.000000)" fill="#F25241">
            <g id="про-меню" sketch:type="MSLayerGroup" transform="translate(328.000000, 255.000000)">
                <g id="3" transform="translate(661.000000, 47.000000)" sketch:type="MSShapeGroup">
                    <g id="alfa" transform="translate(57.000000, 3.000000)">
                        <path d="M0.352667835,28 C0.158061378,28 -0.000106976744,28.1704193 -0.000106976744,28.380904 L-0.000106976744,32.619096 C-0.000106976744,32.8307093 0.158061378,33 0.352667835,33 L22.6473881,33 C22.8425344,33 22.999893,32.8307093 22.999893,32.619096 L22.999893,28.380904 C22.999893,28.1704193 22.8425344,28 22.6473881,28 L0.352667835,28" id="Fill-4"></path>
                        <path d="M11.3947349,0.0620197674 C13.8118744,0.0620197674 14.5719442,1.79343837 15.2065837,3.52592674 C15.4761651,4.26005465 21.7559674,21.455764 21.9439791,21.9713919 C21.9958628,22.1147407 21.9621651,22.3530314 21.7388512,22.4367407 C21.5163395,22.5212523 18.2535488,23.790264 18.0743628,23.8584616 C17.8933047,23.9253221 17.6903163,23.8250314 17.6237233,23.6466477 C17.5563279,23.4685314 16.2046767,19.7195314 16.0511651,19.2988453 L6.74766512,19.2988453 C6.59415349,19.7195314 5.22832791,23.47495 5.16574651,23.6466477 C5.10236279,23.8183453 4.90632791,23.9333453 4.7159093,23.8584616 C4.52575814,23.7822407 1.24745581,22.5110895 1.04981628,22.4367407 C0.864211628,22.3656012 0.781037209,22.15245 0.846293023,21.9713919 C1.07656047,21.3265895 7.26088605,4.40795 7.57673488,3.52592674 C8.18944419,1.81991512 8.97679302,0.0620197674 11.3947349,0.0620197674 Z M11.3751581,5.67752326 L8.22843721,15.1235698 L14.5710884,15.1235698 L11.415007,5.67752326 L11.3751581,5.67752326 Z" id="Fill-1"></path>
                    </g>
                </g>
            </g>
        </g>
    </g>
</svg>