<?xml version="1.0" encoding="UTF-8" standalone="no"?>
<svg width="90px" height="35px" viewBox="0 0 90 35" version="1.1" xmlns="http://www.w3.org/2000/svg" xmlns:xlink="http://www.w3.org/1999/xlink">
    <!-- Generator: Sketch 3.7.1 (28215) - http://www.bohemiancoding.com/sketch -->
    <title>евросеть</title>
    <desc>Created with Sketch.</desc>
    <defs></defs>
    <g id="Page-1" stroke="none" stroke-width="1" fill="none" fill-rule="evenodd">
        <g id="01_Sposobi_Desktop" transform="translate(-1198.000000, -462.000000)">
            <g id="про-меню" transform="translate(328.000000, 255.000000)">
                <g id="6" transform="translate(660.000000, 207.000000)">
                    <g id="евросеть" transform="translate(214.000000, 8.000000)">
                        <polygon id="Fill-1" fill="#FFE62B" points="0 20.0001613 83 20.0001613 83 0.000161290322 0 0.000161290322"></polygon>
                        <g id="Group-18" transform="translate(5.161290, 5.078226)" fill="#030807">
                            <path d="M1.41696774,9.84469355 C0.650516129,9.84469355 0.0271290323,9.23872581 0.0271290323,8.49566129 L0.0271290323,1.5088871 C0.0271290323,0.7655 0.650516129,0.16066129 1.41696774,0.16066129 L6.44051613,0.16066129 C7.10841935,0.16066129 7.65180645,0.721467742 7.65180645,1.41275806 C7.65180645,2.10340323 7.10841935,2.66566129 6.44051613,2.66566129 L2.80680645,2.66566129 L2.80680645,3.78872581 L5.711,3.78872581 C6.34035484,3.78872581 6.85164516,4.31775806 6.85164516,4.96808065 C6.85164516,5.61808065 6.34035484,6.14824194 5.711,6.14824194 L2.80680645,6.14824194 L2.80680645,7.33872581 L6.44051613,7.33872581 C7.10841935,7.33872581 7.65180645,7.90017742 7.65180645,8.59179032 C7.65180645,9.28308065 7.10841935,9.84469355 6.44051613,9.84469355 L1.41696774,9.84469355 Z" id="Fill-2"></path>
                            <path d="M49.3104194,9.84469355 C48.5442903,9.84469355 47.9205806,9.23872581 47.9205806,8.49566129 L47.9205806,1.5088871 C47.9205806,0.7655 48.5442903,0.16066129 49.3104194,0.16066129 L54.3334839,0.16066129 C55.001871,0.16066129 55.5455806,0.721467742 55.5455806,1.41275806 C55.5455806,2.10340323 55.001871,2.66566129 54.3334839,2.66566129 L50.6996129,2.66566129 L50.6996129,3.78872581 L53.6044516,3.78872581 C54.2333226,3.78872581 54.7450968,4.31775806 54.7450968,4.96808065 C54.7450968,5.61808065 54.2333226,6.14824194 53.6044516,6.14824194 L50.6996129,6.14824194 L50.6996129,7.33872581 L54.3334839,7.33872581 C55.001871,7.33872581 55.5455806,7.90017742 55.5455806,8.59179032 C55.5455806,9.28308065 55.001871,9.84469355 54.3334839,9.84469355 L49.3104194,9.84469355 Z" id="Fill-4"></path>
                            <path d="M20.6889516,4.8928871 L20.6889516,2.54175806 L22.1160484,2.54175806 C22.4042742,2.54175806 22.641371,2.60627419 22.8247581,2.73853226 C23.0831452,2.91643548 23.2142742,3.24514516 23.2142742,3.71659677 C23.2142742,4.20772581 23.0837903,4.53127419 22.8102419,4.71127419 C22.6392742,4.82998387 22.398629,4.8928871 22.1160484,4.8928871 L20.6889516,4.8928871 Z M20.6889516,8.63304839 L20.6889516,7.23304839 L22.4850806,7.23304839 C23.3997581,7.23304839 24.1054032,7.01143548 24.7042742,6.53772581 C25.5497581,5.88837097 26.0349194,4.85240323 26.0349194,3.69546774 C26.0349194,2.58320968 25.5865323,1.57337097 24.8066935,0.928532258 C24.1907258,0.411435484 23.4089516,0.159822581 22.4165323,0.159822581 L19.2994355,0.159822581 C18.5329839,0.159822581 17.9095968,0.770951613 17.9095968,1.52240323 L17.9095968,8.63304839 C17.9095968,9.37708065 18.5329839,9.9811129 19.2994355,9.9811129 C20.0529839,9.9811129 20.6889516,9.36353226 20.6889516,8.63304839 L20.6889516,8.63304839 Z" id="Fill-6"></path>
                            <path d="M68.4050645,7.48298387 L68.4050645,5.40637097 L69.7471613,5.40637097 C70.0132903,5.40637097 70.2384516,5.46120968 70.4023226,5.56862903 C70.6537742,5.7241129 70.7749032,6.01072581 70.7749032,6.44475806 C70.7749032,6.86120968 70.6537742,7.1525 70.4082903,7.31104839 C70.2400645,7.42508065 70.0179677,7.48298387 69.7471613,7.48298387 L68.4050645,7.48298387 Z M70.0318387,9.84524194 C70.9715161,9.84524194 71.7129677,9.60669355 72.2945806,9.11717742 C73.035871,8.50459677 73.4602258,7.54814516 73.4602258,6.49346774 C73.4602258,5.39814516 73.0002258,4.41701613 72.2010323,3.80233871 C71.6323226,3.35266129 70.9632903,3.14314516 70.0963548,3.14314516 L68.4050645,3.14314516 L68.4050645,1.37298387 C68.4050645,0.641048387 67.7684516,0.0231451613 67.0152258,0.0231451613 C66.2490968,0.0231451613 65.6255484,0.628306452 65.6255484,1.37298387 L65.6255484,8.48282258 C65.6255484,9.23362903 66.2490968,9.84524194 67.0152258,9.84524194 L70.0318387,9.84524194 Z" id="Fill-8"></path>
                            <path d="M34.2493065,5.00929032 C34.2493065,6.38832258 33.3083387,7.35219355 31.9607581,7.35219355 C30.6054355,7.35219355 29.6581774,6.38832258 29.6581774,5.00929032 C29.6581774,3.64380645 30.6262419,2.65219355 31.9607581,2.65219355 C33.3083387,2.65219355 34.2493065,3.6213871 34.2493065,5.00929032 M37.1789839,5.00929032 C37.1789839,2.16719355 34.9357581,0.0231612903 31.9607581,0.0231612903 C28.9780161,0.0231612903 26.7288226,2.16719355 26.7288226,5.00929032 C26.7288226,7.8363871 28.9780161,9.96687097 31.9607581,9.96687097 C34.9357581,9.96687097 37.1789839,7.8363871 37.1789839,5.00929032" id="Fill-10"></path>
                            <path d="M62.0214839,8.63375806 L62.0214839,2.66569355 L63.8043871,2.66569355 C64.4792258,2.66569355 65.0292258,2.10424194 65.0292258,1.41262903 C65.0292258,0.734241935 64.4682581,0.160693548 63.8043871,0.160693548 L57.4590645,0.160693548 C56.7943871,0.160693548 56.2330968,0.734241935 56.2330968,1.41262903 C56.2330968,2.10424194 56.7832581,2.66569355 57.4590645,2.66569355 L59.242129,2.66569355 L59.242129,8.63375806 C59.242129,9.37698387 59.8655161,9.98182258 60.6319677,9.98182258 C61.3851935,9.98182258 62.0214839,9.36343548 62.0214839,8.63375806" id="Fill-12"></path>
                            <path d="M46.0619355,9.33104839 C46.6053226,9.0241129 46.7953226,8.62685484 46.8582258,8.34766129 C46.9398387,7.98895161 46.8632258,7.61733871 46.6419355,7.30120968 C46.391129,6.94298387 46.0153226,6.74653226 45.5840323,6.74653226 C45.3782258,6.74653226 45.1666129,6.79153226 44.9622581,6.8808871 L44.7804839,6.9708871 C44.4877419,7.15185484 44.0101613,7.3658871 43.3990323,7.3658871 C42.0435484,7.3658871 41.0969355,6.40266129 41.0969355,5.02201613 C41.0969355,3.65653226 42.065,2.66572581 43.3990323,2.66572581 C43.8419355,2.66572581 44.2956452,2.80008065 44.7854839,3.07475806 L44.891129,3.12798387 C45.0995161,3.2158871 45.3172581,3.26153226 45.5264516,3.26153226 C45.9567742,3.26153226 46.3374194,3.07120968 46.5970968,2.72427419 C46.8151613,2.43362903 46.8929032,2.07169355 46.8145161,1.70556452 C46.7256452,1.28733871 46.4403226,0.917983871 46.0314516,0.691370968 C45.2617742,0.263467742 44.3340323,0.0366935484 43.3990323,0.0366935484 C40.4166129,0.0366935484 38.1672581,2.17991935 38.1672581,5.02201613 C38.1672581,7.8491129 40.4166129,9.98104839 43.3990323,9.98104839 C44.3740323,9.98104839 45.3203226,9.75072581 46.0619355,9.33104839" id="Fill-14"></path>
                            <path d="M11.4941452,4.011 L11.4941452,2.46164516 L12.459629,2.46164516 C13.3675323,2.46164516 13.4897903,2.85712903 13.4897903,3.24358065 C13.4897903,3.45309677 13.4897903,4.00777419 12.2744677,4.011 L11.4941452,4.011 Z M11.4941452,7.55583871 L11.4941452,5.75922581 L12.7943065,5.75922581 C13.8772097,5.75922581 14.0155968,6.2343871 14.0155968,6.64954839 C14.0155968,7.09777419 13.8933387,7.55583871 12.9844677,7.55583871 L11.4941452,7.55583871 Z M13.2176935,9.84470968 C14.9741452,9.84470968 16.8499516,9.03245161 16.8499516,6.75309677 C16.8499516,5.61374194 16.0304355,4.83664516 15.0249516,4.5693871 C15.482371,4.41922581 16.3239839,3.79616129 16.3239839,2.66277419 C16.3239839,1.17922581 15.5238226,0.160677419 12.6918871,0.160677419 L10.104629,0.160677419 C9.3418871,0.160677419 8.71914516,0.762612903 8.7168871,1.48019355 L8.71527419,1.496 L8.71527419,8.49567742 C8.71527419,9.23874194 9.33801613,9.84470968 10.104629,9.84470968 L13.2176935,9.84470968 Z" id="Fill-16"></path>
                        </g>
                    </g>
                </g>
            </g>
        </g>
    </g>
</svg>