<?xml version="1.0" encoding="utf-8"?>
<!-- Generator: Adobe Illustrator 18.1.1, SVG Export Plug-In . SVG Version: 6.00 Build 0)  -->
<svg version="1.1" id="Слой_1" xmlns="http://www.w3.org/2000/svg" xmlns:xlink="http://www.w3.org/1999/xlink" x="0px" y="0px"
	 viewBox="0 0 566.9 566.9" enable-background="new 0 0 566.9 566.9" xml:space="preserve">
<g>
	<g>
		<path fill="#8C81A8" d="M281.9,106c24.6,0,44.5,23.6,44.5,52.9s-19.9,80.8-44.5,80.8c-24.6,0-44.7-51.5-44.7-80.8
			C237.4,129.8,257.3,106,281.9,106 M281.9,77.5c-40.2,0-73,36.5-73,81.6c0,38.3,25.2,109.3,73.2,109.3s73.2-71.3,73.2-109.3
			C355.1,114,322.3,77.5,281.9,77.5L281.9,77.5z"/>
	</g>
	<g>
		<path fill="#8C81A8" d="M338.7,342.8c28.3,20.3,46.9,75.2,46.9,118.1H178.2c0-42.8,18.7-97.8,46.9-118.1
			c16.8,10.5,36.1,16.8,56.8,16.8C302.8,359.6,322.1,353.6,338.7,342.8 M225.1,313.3c-5.9,0-11.7,1.8-16.6,5.3
			c-36.9,26.6-58.8,93.1-58.8,141.4c0,15.8,12.7,29.5,28.5,29.5h207.5c15.8,0,28.5-13.7,28.5-29.5c0-48.2-22.1-114.4-58.8-140.8
			c-4.9-3.5-10.7-5.7-16.6-5.7c-5.3,0-10.7,1.4-15.4,4.3c-12.7,8-26.9,12.3-41.6,12.3c-14.4,0-28.9-4.3-41.6-12.3
			C235.8,314.9,230.4,313.3,225.1,313.3L225.1,313.3z"/>
	</g>
	<g>
		<path fill="#8C81A8" d="M209.1,445.7c-3.9,0-7.2-3.1-7.2-7.2c0-35.7,9.8-58.8,31.6-74.6c2.3-1.8,5.5-1.8,8-0.2
			c4.1,2.5,8.4,4.9,12.7,6.4c3.7,1.6,5.5,5.7,3.9,9.4c-1.6,3.7-5.7,5.5-9.4,3.9c-3.5-1.4-7.2-3.1-10.5-5.1
			c-15.4,12.9-22.1,31-22.1,60.1C216.3,442.6,213.2,445.7,209.1,445.7z"/>
	</g>
	<g>
		<path fill="#8C81A8" d="M281.9,390.1c-2.7,0-5.7-0.2-8.4-0.4c-3.9-0.4-6.8-3.9-6.4-7.8c0.4-3.9,3.9-6.8,7.8-6.4
			c2.3,0.2,4.7,0.4,7,0.4c3.9,0,7.2,3.1,7.2,7.2C289.1,386.9,285.8,390.1,281.9,390.1z"/>
	</g>
	<g>
		<path fill="#8C81A8" d="M496.5,475.2h-55.6c-7.8,0-14.3-6.4-14.3-14.3c0-7.8,6.4-14.3,14.3-14.3H481c-4.3-32-21.5-77.1-43.7-94.9
			c-2.9,0.8-6.2,1.8-10,2.7c-3.3,0.8-7.4,2-8.8,2.5c-7.4,2.7-15.6-1-18.4-8.4s1-15.6,8.4-18.4c2.9-1.2,7-2.1,11.7-3.3
			c3.7-1,10.7-2.7,12.7-3.7c4.3-2,9.6-2,13.7,0.4c39.2,22.8,64.2,96.6,64.2,137.5C510.7,468.8,504.5,475.2,496.5,475.2z"/>
	</g>
	<g>
		<path fill="#8C81A8" d="M98.4,475.2H70.3c-7.8,0-14.3-6.4-14.3-14.3c0-40.8,25-114.6,64.2-137.5c4.3-2.5,9.4-2.5,13.7-0.4
			c3.3,1.8,5.7,3.5,7.4,4.9c1.6,1.2,2.1,1.8,3.1,2.1c7.4,2.7,11.1,10.9,8.4,18.4s-10.9,11.1-18.4,8.4c-2.9-1-5.1-2.3-7-3.5
			c-21.5,18.7-37.7,62.3-42,93.3h12.7c7.8,0,14.3,6.4,14.3,14.3C112.4,468.8,106.2,475.2,98.4,475.2z"/>
	</g>
	<g>
		<path fill="#8C81A8" d="M179,290.1c-1.8,0-3.3-0.2-4.7-0.2c-35.9-1.4-57.8-62.1-57.8-95.3c0-37.1,26.4-67.2,59-67.2
			c7.8,0,14.3,6.4,14.3,14.3s-6.4,14.3-14.3,14.3c-16.8,0-30.3,17.4-30.3,38.7c0,28.1,19.3,66.6,30.3,66.6c0.8,0,1.6,0,2.3,0.2
			c1,0.2,12.5,1.2,21.1-11.7c4.3-6.6,13.3-8.4,19.7-3.9c6.6,4.3,8.4,13.3,3.9,19.7C209.7,285,191.1,290.1,179,290.1z"/>
	</g>
	<g>
		<path fill="#8C81A8" d="M383.6,290.1c-12.1,0-30.7-5.1-43.5-24.6c-4.3-6.6-2.5-15.4,3.9-19.7c6.6-4.3,15.4-2.5,19.7,3.9
			c9,13.3,20.9,11.9,21.1,11.7c0.8-0.2,1.6-0.2,2.3-0.2c10.9,0,30.3-38.5,30.3-66.6c0-21.3-13.7-38.7-30.3-38.7
			c-7.8,0-14.3-6.4-14.3-14.3c0-7.8,6.4-14.3,14.3-14.3c32.4,0,59,30.3,59,67.2c0,33.2-21.9,93.9-57.8,95.1
			C386.9,289.9,385.4,290.1,383.6,290.1z"/>
	</g>
</g>
</svg>
