<?xml version="1.0" encoding="utf-8"?>
<!-- Generator: Adobe Illustrator 18.1.1, SVG Export Plug-In . SVG Version: 6.00 Build 0)  -->
<svg version="1.1" xmlns="http://www.w3.org/2000/svg" xmlns:xlink="http://www.w3.org/1999/xlink" x="0px" y="0px"
	 viewBox="0 0 841.8 211" enable-background="new 0 0 841.8 211" xml:space="preserve">
<g id="Слой_1" display="none">
	<g display="inline">
		<g>
			<path fill="#8D81AC" d="M221.3,107.9c0.1-2.1-0.7-3.9-2-5.3l-19.4-19.5l0.2-44.7c-0.1-0.3-0.2-0.8-0.3-1.2c0-0.1,0-0.3-0.1-0.4
				c-0.1-0.2-0.2-0.5-0.2-0.7c-0.1-0.3-0.1-0.5-0.2-0.8c-0.1-0.1-0.2-0.3-0.2-0.4c-0.1-0.3-0.3-0.5-0.4-0.8l-0.2-0.3
				c-0.2-0.3-0.4-0.5-0.6-0.7c-0.1-0.1-0.2-0.2-0.3-0.3c-0.3-0.2-0.5-0.5-0.8-0.7c-0.2-0.1-0.3-0.2-0.5-0.3l-0.3-0.1
				c-0.1-0.1-0.3-0.2-0.5-0.3c-0.6-0.3-1.4-0.4-2.2-0.5h-0.4h-16.1c-1.8,0-3.5,0.7-4.8,2c-1.3,1.3-2,3-2,4.8c0,3.7,3.1,6.8,6.8,6.8
				h9.3v41.1c0,0.6,0,1.2,0.1,1.7c0.3,2.1,1.5,3.8,3.1,4.9l0.8,0.6l14.9,14.9l-16.6,16.6c-0.8,0.7-1.4,1.6-1.8,2.5
				c-0.2,0.4-0.2,0.7-0.3,1.1l-0.1,0.3c-0.1,0.5-0.1,1.2-0.1,1.8v41.7h-9.3c-3.8,0-6.8,2.9-6.8,6.6c0,1.8,0.7,3.5,2,4.7
				c1.3,1.3,3,2,4.8,2l16.2-0.1c0.9,0,1.7-0.2,2.5-0.5l0.9-0.5c0.1-0.1,0.3-0.1,0.4-0.2c0.2-0.2,0.5-0.4,0.8-0.7l0.3-0.3
				c0.2-0.2,0.4-0.5,0.6-0.8l0.2-0.2c0.2-0.3,0.3-0.6,0.4-0.8l0.1-0.3c0.1-0.2,0.1-0.5,0.2-0.7c0-0.2,0.1-0.4,0.2-0.6
				c0.1-0.2,0.1-0.5,0.2-0.7c0-0.1,0,0,0,0.1c0-0.5,0.2-0.9,0.3-1.3l-0.2-45.1l19.3-19.5C220.6,111.6,221.3,109.9,221.3,107.9z
				 M146.8,5.6c-0.8-0.6-2-1.4-3.1-1.4h-0.5L99,0c-0.1,0-0.2,0-0.3,0.1c-0.1,0-0.2,0-0.3,0.1c-0.3,0.1-0.6,0.2-0.9,0.3
				S97,0.6,96.7,0.7c-0.1,0-0.3,0.1-0.4,0.2l-0.8,0.4c-0.3,0.1-0.6,0.4-0.8,0.6L94.4,2c-0.2,0.1-0.4,0.4-0.7,0.7l-0.2,0.2
				c-0.2,0.3-0.4,0.6-0.5,0.8L92.9,4c-0.1,0.3-0.2,0.5-0.3,0.8c0,0.1-0.1,0.3-0.2,0.4c0,0.1,0,0.1,0,0.2l-0.1,0.4
				c0,0.2-0.1,0.4-0.1,0.6L77.1,178.9c-0.3,1.9,0.2,3.8,1.4,5.2l19.8,24c0.1,0.1,0.1,0.3,0.2,0.4c1.3,1.5,3.1,2.4,5,2.4
				c1.5,0,3-0.5,4.2-1.6l23.9-20.5c0.2-0.2,0.5-0.5,0.8-0.9l0.1-0.2c0.8-1.1,1.2-2.4,1.3-3.7l11.6-133.7l0.1-0.4
				c0.1-0.5,0.2-0.8,0.2-1.1s0-0.6,0-1.1v-0.4l3.2-35.9C149.3,9.2,148.4,7,146.8,5.6z M121.7,176.5l-30.9-2.7l10.6-122.3l30.9,2.7
				L121.7,176.5z M133.3,40.9l-30.9-2.7l2.2-24l30.9,2.7L133.3,40.9z M44.5,171.7h-9.3v-41.6c0-0.6,0-1.3-0.1-1.8L35,128
				c-0.1-0.3-0.2-0.7-0.3-1.1c-0.4-0.9-1-1.8-1.8-2.5l-16.6-16.6l14.9-14.9l0.8-0.6c1.6-1,2.7-2.7,3.1-4.9c0.1-0.5,0.1-1.1,0.1-1.8
				V44.5h9.3c3.8,0,6.8-3,6.8-6.8c0-1.8-0.7-3.5-2-4.8c-1.3-1.3-3-2-4.8-2H28.4H28c-0.8,0-1.6,0.2-2.2,0.5c-0.2,0.1-0.4,0.2-0.5,0.3
				l-0.3,0c-0.2,0.1-0.3,0.2-0.5,0.3c-0.3,0.2-0.6,0.4-0.8,0.7c-0.1,0.1-0.2,0.2-0.3,0.3c-0.2,0.2-0.4,0.5-0.6,0.7L22.6,34
				c-0.1,0.2-0.3,0.5-0.4,0.8c-0.2,0.1-0.2,0.3-0.3,0.4c-0.1,0.2-0.2,0.5-0.2,0.8c-0.1,0.2-0.1,0.5-0.2,0.7c0,0.1-0.1,0.3-0.1,0.4
				c0,0.5-0.1,0.9-0.3,1.2L21.3,83L2,102.6c-1.4,1.4-2.1,3.1-2,5.3c0,1.9,0.6,3.7,1.9,5l19.3,19.5l-0.1,45c0.1,0.3,0.2,0.8,0.3,1.3
				c0-0.1,0-0.2,0-0.1c0.1,0.2,0.1,0.5,0.2,0.7c0.1,0.2,0.1,0.4,0.2,0.6c0.1,0.2,0.1,0.5,0.2,0.7l0.1,0.3c0.1,0.3,0.3,0.6,0.4,0.8
				l0.2,0.2c0.2,0.3,0.4,0.6,0.6,0.8l0.3,0.3c0.3,0.3,0.6,0.5,0.8,0.7c0.1,0.1,0.3,0.2,0.4,0.2l0.9,0.5c0.8,0.3,1.7,0.5,2.5,0.5
				l16.2,0.1c1.8,0,3.6-0.7,4.8-2c1.3-1.3,2-2.9,2-4.7C51.4,174.7,48.4,171.7,44.5,171.7z"/>
		</g>
	</g>
	<g display="inline">
		<path fill="#333333" d="M361.9,58.4v13.2h-39.6v26.5h33.4v13.3h-33.4v36.4h-16.7V58.4H361.9z"/>
		<path fill="#333333" d="M460.6,103.1c0,6.5-1.1,12.6-3.3,18.2c-2.2,5.5-5.2,10.4-9.2,14.5c-3.9,4.1-8.8,7.2-14.3,9.6
			c-5.5,2.3-11.7,3.4-18.5,3.4s-12.9-1.1-18.5-3.4c-5.5-2.3-10.4-5.4-14.3-9.6c-4-4.1-7-9-9.3-14.5c-2.3-5.5-3.3-11.7-3.3-18.2
			c0-6.5,1.1-12.6,3.3-18.2c2.2-5.5,5.2-10.4,9.3-14.5c4-4.1,8.8-7.2,14.3-9.6c5.5-2.3,11.8-3.4,18.5-3.4s12.9,1.1,18.5,3.4
			c5.5,2.3,10.4,5.5,14.3,9.6c3.9,4,7,8.9,9.2,14.5S460.6,96.6,460.6,103.1z M443.5,103.1c0-4.9-0.6-9.3-1.9-13.2
			c-1.3-3.9-3.1-7.2-5.6-10c-2.4-2.7-5.4-4.8-8.9-6.2c-3.5-1.4-7.4-2.1-11.8-2.1s-8.3,0.7-11.8,2.1c-3.5,1.4-6.4,3.5-9,6.2
			c-2.4,2.7-4.3,6-5.6,10c-1.3,3.9-2,8.3-2,13.2c0,4.9,0.7,9.3,2,13.2s3.2,7.1,5.6,9.9c2.4,2.7,5.4,4.7,9,6.2
			c3.5,1.4,7.4,2.1,11.8,2.1s8.3-0.7,11.8-2.1c3.5-1.4,6.4-3.5,8.9-6.2c2.4-2.7,4.3-6,5.6-9.9C442.9,112.4,443.5,108,443.5,103.1z"
			/>
		<path fill="#333333" d="M490.9,112.9v34.9h-16.6V58.4h27.3c6.1,0,11.3,0.6,15.7,1.9c4.3,1.2,7.9,3,10.7,5.2
			c2.8,2.3,4.8,4.9,6.1,8.2c1.3,3.2,1.9,6.6,1.9,10.4c0,3-0.4,5.8-1.3,8.6c-0.9,2.7-2.1,5.1-3.8,7.2c-1.7,2.2-3.7,4.1-6.1,5.7
			c-2.4,1.6-5.2,2.9-8.4,3.9c2.1,1.2,3.9,2.9,5.4,5.1l22.3,33h-15c-1.4,0-2.7-0.3-3.7-0.9c-1-0.6-1.9-1.4-2.5-2.5L504,115.7
			c-0.7-1.1-1.5-1.8-2.3-2.3s-2.1-0.7-3.7-0.7h-7.1V112.9z M490.9,101h10.4c3.1,0,5.8-0.4,8.2-1.2c2.3-0.8,4.2-1.9,5.7-3.2
			c1.5-1.4,2.6-3,3.3-4.9c0.7-1.9,1.1-3.9,1.1-6.2c0-4.5-1.5-8-4.5-10.5c-3-2.4-7.5-3.6-13.7-3.6h-10.7V101H490.9z"/>
		<path fill="#333333" d="M571.8,95.9h3.9c1.6,0,2.8-0.2,3.9-0.6c1-0.4,1.9-1.1,2.6-2.1L606.9,62c1-1.3,2.1-2.2,3.2-2.7
			c1.1-0.5,2.5-0.8,4.3-0.8h14.3l-30.1,37.1c-0.9,1.1-1.8,2.1-2.7,2.9s-1.8,1.4-2.8,1.9c1.4,0.5,2.6,1.2,3.7,2.1
			c1.1,0.9,2.1,2,3.2,3.4l31,41.9h-14.7c-2,0-3.4-0.3-4.4-0.8c-1-0.6-1.8-1.4-2.4-2.4l-25.4-33c-0.8-1.1-1.7-1.8-2.8-2.3
			c-1-0.5-2.5-0.7-4.4-0.7h-5.2v39.2H555V58.4h16.6v37.4h0.2V95.9z"/>
		<path fill="#8D81AC" d="M659.5,147.8h-16.7V58.4h16.7V147.8z"/>
		<path fill="#8D81AC" d="M765.4,103.1c0,6.5-1.1,12.6-3.3,18.2c-2.2,5.5-5.2,10.4-9.2,14.5c-3.9,4.1-8.8,7.2-14.3,9.6
			c-5.5,2.3-11.7,3.4-18.5,3.4c-6.8,0-12.9-1.1-18.5-3.4c-5.5-2.3-10.4-5.4-14.3-9.6c-4-4.1-7-9-9.3-14.5
			c-2.3-5.5-3.3-11.7-3.3-18.2c0-6.5,1.1-12.6,3.3-18.2c2.2-5.5,5.2-10.4,9.3-14.5c3.9-4.1,8.8-7.2,14.3-9.6
			c5.5-2.3,11.8-3.4,18.5-3.4c6.7,0,12.9,1.1,18.5,3.4c5.5,2.3,10.4,5.5,14.3,9.6c3.9,4.1,7,8.9,9.2,14.5
			C764.2,90.5,765.4,96.6,765.4,103.1z M748.2,103.1c0-4.9-0.6-9.3-1.9-13.2c-1.3-3.9-3.1-7.2-5.6-10c-2.4-2.7-5.4-4.8-8.9-6.2
			c-3.5-1.4-7.4-2.1-11.8-2.1c-4.4,0-8.3,0.7-11.8,2.1s-6.4,3.5-9,6.2c-2.4,2.7-4.3,6-5.6,10c-1.3,4-2,8.3-2,13.2
			c0,4.9,0.7,9.3,2,13.2s3.2,7.1,5.6,9.9c2.4,2.7,5.4,4.7,9,6.2c3.5,1.4,7.4,2.1,11.8,2.1c4.4,0,8.3-0.7,11.8-2.1
			c3.5-1.4,6.4-3.5,8.9-6.2c2.4-2.7,4.3-6,5.6-9.9C747.6,112.4,748.2,108,748.2,103.1z"/>
	</g>
</g>
<g id="Слой_2">
	<g>
		<g>
			<path fill="#8D81AC" d="M115.7,14.6c12.6,0,22.8,12.1,22.8,27.1c0,15-10.2,41.4-22.8,41.4c-12.6,0-22.9-26.4-22.9-41.4
				C92.9,26.8,103.1,14.6,115.7,14.6 M115.7,0C95.1,0,78.3,18.7,78.3,41.8c0,19.6,12.9,56,37.5,56c24.6,0,37.5-36.5,37.5-56
				C153.2,18.7,136.4,0,115.7,0L115.7,0z"/>
		</g>
		<g>
			<path fill="#8D81AC" d="M144.8,135.9c14.5,10.4,24,38.5,24,60.5H62.6c0-21.9,9.6-50.1,24-60.5c8.6,5.4,18.5,8.6,29.1,8.6
				C126.4,144.5,136.3,141.4,144.8,135.9 M86.6,120.8c-3,0-6,0.9-8.5,2.7C59.2,137.1,48,171.2,48,195.9c0,8.1,6.5,15.1,14.6,15.1
				h106.3c8.1,0,14.6-7,14.6-15.1c0-24.7-11.3-58.6-30.1-72.1c-2.5-1.8-5.5-2.9-8.5-2.9c-2.7,0-5.5,0.7-7.9,2.2
				c-6.5,4.1-13.8,6.3-21.3,6.3c-7.4,0-14.8-2.2-21.3-6.3C92.1,121.6,89.3,120.8,86.6,120.8L86.6,120.8z"/>
		</g>
		<g>
			<path fill="#8D81AC" d="M78.4,188.6c-2,0-3.7-1.6-3.7-3.7c0-18.3,5-30.1,16.2-38.2c1.2-0.9,2.8-0.9,4.1-0.1
				c2.1,1.3,4.3,2.5,6.5,3.3c1.9,0.8,2.8,2.9,2,4.8c-0.8,1.9-2.9,2.8-4.8,2c-1.8-0.7-3.7-1.6-5.4-2.6c-7.9,6.6-11.3,15.9-11.3,30.8
				C82.1,187,80.5,188.6,78.4,188.6z"/>
		</g>
		<g>
			<path fill="#8D81AC" d="M115.7,160.1c-1.4,0-2.9-0.1-4.3-0.2c-2-0.2-3.5-2-3.3-4c0.2-2,2-3.5,4-3.3c1.2,0.1,2.4,0.2,3.6,0.2
				c2,0,3.7,1.6,3.7,3.7C119.4,158.5,117.7,160.1,115.7,160.1z"/>
		</g>
		<g>
			<path fill="#8D81AC" d="M225.6,203.7h-28.5c-4,0-7.3-3.3-7.3-7.3s3.3-7.3,7.3-7.3h20.6c-2.2-16.4-11-39.5-22.4-48.6
				c-1.5,0.4-3.2,0.9-5.1,1.4c-1.7,0.4-3.8,1-4.5,1.3c-3.8,1.4-8-0.5-9.4-4.3c-1.4-3.8,0.5-8,4.3-9.4c1.5-0.6,3.6-1.1,6-1.7
				c1.9-0.5,5.5-1.4,6.5-1.9c2.2-1,4.9-1,7,0.2c20.1,11.7,32.9,49.5,32.9,70.4C232.9,200.4,229.7,203.7,225.6,203.7z"/>
		</g>
		<g>
			<path fill="#8D81AC" d="M21.7,203.7H7.3c-4,0-7.3-3.3-7.3-7.3c0-20.9,12.8-58.7,32.9-70.4c2.2-1.3,4.8-1.3,7-0.2
				c1.7,0.9,2.9,1.8,3.8,2.5c0.8,0.6,1.1,0.9,1.6,1.1c3.8,1.4,5.7,5.6,4.3,9.4c-1.4,3.8-5.6,5.7-9.4,4.3c-1.5-0.5-2.6-1.2-3.6-1.8
				c-11,9.6-19.3,31.9-21.5,47.8h6.5c4,0,7.3,3.3,7.3,7.3S25.7,203.7,21.7,203.7z"/>
		</g>
		<g>
			<path fill="#8D81AC" d="M63,108.9c-0.9,0-1.7-0.1-2.4-0.1C42.2,108.1,31,77,31,60c0-19,13.5-34.4,30.2-34.4c4,0,7.3,3.3,7.3,7.3
				c0,4-3.3,7.3-7.3,7.3c-8.6,0-15.5,8.9-15.5,19.8c0,14.4,9.9,34.1,15.5,34.1c0.4,0,0.8,0,1.2,0.1c0.5,0.1,6.4,0.6,10.8-6
				c2.2-3.4,6.8-4.3,10.1-2c3.4,2.2,4.3,6.8,2,10.1C78.7,106.3,69.2,108.9,63,108.9z"/>
		</g>
		<g>
			<path fill="#8D81AC" d="M167.8,108.9c-6.2,0-15.7-2.6-22.3-12.6c-2.2-3.4-1.3-7.9,2-10.1c3.4-2.2,7.9-1.3,10.1,2
				c4.6,6.8,10.7,6.1,10.8,6c0.4-0.1,0.8-0.1,1.2-0.1c5.6,0,15.5-19.7,15.5-34.1c0-10.9-7-19.8-15.5-19.8c-4,0-7.3-3.3-7.3-7.3
				c0-4,3.3-7.3,7.3-7.3c16.6,0,30.2,15.5,30.2,34.4c0,17-11.2,48.1-29.6,48.7C169.5,108.8,168.7,108.9,167.8,108.9z"/>
		</g>
	</g>
	<g>
		<path fill="#333333" d="M323,133.7h32.5v13.9h-49.9V58.7H323V133.7z"/>
		<path fill="#333333" d="M411.4,108.5h-29.8v25.1h35.1v13.9h-52.5V58.7h52.4v13.9h-35v22.1h29.8V108.5z"/>
		<path fill="#333333" d="M465.6,128.5h-23.4l-4.8,19h-17.5l25-88.8H463l25,88.8h-17.5L465.6,128.5z M445.7,114.7h16.4l-8-31.4h-0.4
			L445.7,114.7z"/>
		<path fill="#333333" d="M494.8,147.5V58.7h26.8c9.1,0,16.6,3.4,22.6,10.3c5.9,6.9,8.9,15.8,8.9,26.6v14.9c0,10.9-3,19.7-8.9,26.6
			c-5.9,6.9-13.5,10.3-22.6,10.3H494.8z M512.2,72.5v61.1h8.5c4.8,0,8.6-2.1,11.2-6.3c2.6-4.2,3.9-9.8,3.9-16.8V95.5
			c0-6.9-1.3-12.5-3.9-16.7c-2.6-4.2-6.4-6.3-11.2-6.3H512.2z"/>
		<path fill="#8D81AC" d="M609.2,114.2h7.7v13.9h-7.7v19.5H592v-19.5h-29.5l-0.9-10.8l30.3-58.6h17.3V114.2z M577.3,114.2H592V83.5
			l-0.4-0.1l-0.9,1.6L577.3,114.2z"/>
		<path fill="#333333" d="M682.9,118.9l0.2,0.4c0.1,9.8-2.2,17.1-7,22.1c-4.7,5-11.7,7.4-20.9,7.4c-9.2,0-16.5-2.8-22-8.5
			c-5.5-5.6-8.2-13.6-8.2-23.9V89.9c0-10.3,2.7-18.3,8-23.9c5.3-5.7,12.4-8.5,21.3-8.5c9.4,0,16.6,2.5,21.4,7.6
			c4.8,5,7.3,12.5,7.5,22.4l-0.2,0.4h-16.7c0.2-5.8-0.5-10-2.4-12.6c-1.8-2.6-5-3.9-9.6-3.9c-3.9,0-6.9,1.5-9,4.6
			c-2.1,3.1-3.1,7.7-3.1,13.9v26.7c0,6.3,1.1,10.9,3.3,14c2.2,3.1,5.5,4.6,9.7,4.6c4.2,0,7.1-1.2,8.8-3.6c1.6-2.4,2.4-6.6,2.2-12.4
			H682.9z"/>
		<path fill="#333333" d="M711,112.2v35.3h-17.3V58.7h29c8.7,0,15.6,2.3,20.6,6.9c5,4.6,7.5,11,7.5,19.3c0,4.6-1,8.6-3.1,12
			s-5.1,6-9.1,8c4.6,1.5,7.8,4.1,9.9,7.7c2,3.6,3,8.1,3,13.4v6.3c0,2.4,0.3,5.1,0.9,7.8c0.6,2.8,1.6,4.8,3,6.1v1.3h-17.9
			c-1.4-1.3-2.3-3.4-2.7-6.3c-0.4-2.9-0.5-5.9-0.5-9v-6c0-4.4-0.9-7.9-2.7-10.3c-1.8-2.4-4.4-3.7-7.8-3.7H711z M711,98.3h11.6
			c3.5,0,6.2-1.1,8.1-3.2c1.8-2.2,2.7-5.2,2.7-9.2c0-4.1-0.9-7.3-2.7-9.7c-1.8-2.4-4.5-3.6-8-3.6H711V98.3z"/>
		<path fill="#333333" d="M786.7,58.7l15.9,65.2h0.4l16.1-65.2h22.6v88.8h-17.3v-25.8l1.5-34.5l-0.4-0.1l-17,60.4h-11.5l-16.8-59.9
			l-0.4,0.1l1.5,34v25.8h-17.3V58.7H786.7z"/>
	</g>
</g>
</svg>
