<?xml version="1.0" encoding="UTF-8" standalone="no"?>
<svg width="50px" height="35px" viewBox="0 0 50 35" version="1.1" xmlns="http://www.w3.org/2000/svg" xmlns:xlink="http://www.w3.org/1999/xlink" xmlns:sketch="http://www.bohemiancoding.com/sketch/ns">
    <!-- Generator: Sketch 3.5.2 (25235) - http://www.bohemiancoding.com/sketch -->
    <title>mastercard</title>
    <desc>Created with Sketch.</desc>
    <defs></defs>
    <g id="Page-1" stroke="none" stroke-width="1" fill="none" fill-rule="evenodd" sketch:type="MSPage">
        <g id="Desktop_v1" sketch:type="MSArtboardGroup" transform="translate(-398.000000, -306.000000)">
            <g id="про-меню" sketch:type="MSLayerGroup" transform="translate(328.000000, 255.000000)">
                <g id="1" transform="translate(0.000000, 51.000000)" sketch:type="MSShapeGroup">
                    <g id="master" transform="translate(73.000000, 4.000000)">
                        <path d="M31.3551862,26.802766 L32.0467021,26.7845745 L32.7293617,26.7350266 L33.398617,26.6493351 L34.0630851,26.5315691 L34.7093617,26.3824468 L35.3470213,26.2014894 L35.9707979,25.9891755 L36.5811702,25.7495745 L37.1776596,25.4783777 L37.7564362,25.1844415 L38.3170213,24.8589096 L38.8639628,24.5108777 L39.3881649,24.1357979 L39.8946543,23.7379787 L40.3829521,23.3174202 L40.8485106,22.8700532 L41.296117,22.4042553 L41.7164362,21.9159574 L42.1142553,21.4097074 L42.4893351,20.8855053 L42.837367,20.3383245 L43.1631383,19.7777394 L43.4568351,19.1992021 L43.7280319,18.602234 L43.967633,17.9923404 L44.1801862,17.3680851 L44.3611436,16.7309043 L44.510266,16.0843883 L44.6277926,15.4199202 L44.713484,14.7509043 L44.7632713,14.0682447 L44.7814628,13.3764894 L44.7632713,12.6892819 L44.713484,12.0114096 L44.6277926,11.3421543 L44.510266,10.6867819 L44.3611436,10.040266 L44.1801862,9.40739362 L43.967633,8.78361702 L43.7280319,8.17779255 L43.4568351,7.5856117 L43.1631383,7.00707447 L42.837367,6.45103723 L42.4893351,5.90385638 L42.1142553,5.37941489 L41.7164362,4.87771277 L41.296117,4.38965426 L40.8485106,3.92385638 L40.3829521,3.48079787 L39.8946543,3.06047872 L39.3881649,2.66265957 L38.8639628,2.28734043 L38.3170213,1.93930851 L37.7564362,1.61832447 L37.1776596,1.32462766 L36.5811702,1.05319149 L35.9707979,0.813829787 L35.3470213,0.601276596 L34.7093617,0.420319149 L34.0630851,0.271196809 L33.398617,0.153670213 L32.7293617,0.0677393617 L32.0467021,0.0181914894 L31.3551862,0 L30.6679787,0.0181914894 L29.9853191,0.0677393617 L29.3163032,0.153670213 L28.6561436,0.271196809 L28.009867,0.420319149 L27.3724468,0.601276596 L26.7529787,0.813829787 L26.1428457,1.05319149 L25.5506649,1.32462766 L24.9764362,1.61832447 L24.4160904,1.93930851 L23.8734574,2.28734043 L23.349016,2.66265957 L22.842766,3.06047872 L22.359016,3.48079787 L21.8934574,3.92385638 L21.4503989,4.38965426 L21.0300798,4.87771277 L20.6322606,5.37941489 L20.2614894,5.90385638 L19.9132181,6.45103723 L19.5924734,7.00707447 L19.2942287,7.5856117 L19.0273404,8.17779255 L18.7877394,8.78361702 L18.5799734,9.40739362 L18.399016,10.040266 L18.2498936,10.6867819 L18.132367,11.3421543 L18.0464362,12.0114096 L17.9966489,12.6892819 L17.9784574,13.3764894 L17.9966489,14.0682447 L18.0464362,14.7509043 L18.132367,15.4199202 L18.2498936,16.0843883 L18.399016,16.7309043 L18.5799734,17.3680851 L18.7877394,17.9923404 L19.0273404,18.602234 L19.2942287,19.1992021 L19.5924734,19.7777394 L19.9132181,20.3383245 L20.2614894,20.8855053 L20.6322606,21.4097074 L21.0300798,21.9159574 L21.4503989,22.4042553 L21.8934574,22.8700532 L22.359016,23.3174202 L22.842766,23.7379787 L23.349016,24.1357979 L23.8734574,24.5108777 L24.4160904,24.8589096 L24.9764362,25.1844415 L25.5506649,25.4783777 L26.1428457,25.7495745 L26.7529787,25.9891755 L27.3724468,26.2014894 L28.009867,26.3824468 L28.6561436,26.5315691 L29.3163032,26.6493351 L29.9853191,26.7350266 L30.6679787,26.7845745 L31.3551862,26.802766" id="Fill-4" fill="#F2AD3D"></path>
                        <path d="M13.4262766,26.802766 L14.113484,26.7845745 L14.7961436,26.7350266 L15.4651596,26.6493351 L16.1250798,26.5315691 L16.7715957,26.3824468 L17.409016,26.2014894 L18.0282447,25.9891755 L18.638617,25.7495745 L19.2307979,25.4783777 L19.8047872,25.1844415 L20.3656117,24.8589096 L20.9080053,24.5108777 L21.4324468,24.1357979 L21.9386968,23.7379787 L22.4222074,23.3174202 L22.8880053,22.8700532 L23.3310638,22.4042553 L23.751383,21.9159574 L24.1492021,21.4097074 L24.5199734,20.8855053 L24.8680053,20.3383245 L25.1889894,19.7777394 L25.487234,19.1992021 L25.753883,18.602234 L25.9937234,17.9923404 L26.2014894,17.3680851 L26.3822074,16.7309043 L26.5315691,16.0843883 L26.6490957,15.4199202 L26.7350266,14.7509043 L26.7848138,14.0682447 L26.802766,13.3764894 L26.7848138,12.6892819 L26.7350266,12.0114096 L26.6490957,11.3421543 L26.5315691,10.6867819 L26.3822074,10.040266 L26.2014894,9.40739362 L25.9937234,8.78361702 L25.753883,8.17779255 L25.487234,7.5856117 L25.1889894,7.00707447 L24.8680053,6.45103723 L24.5199734,5.90385638 L24.1492021,5.37941489 L23.751383,4.87771277 L23.3310638,4.38965426 L22.8880053,3.92385638 L22.4222074,3.48079787 L21.9386968,3.06047872 L21.4324468,2.66265957 L20.9080053,2.28734043 L20.3656117,1.93930851 L19.8047872,1.61832447 L19.2307979,1.32462766 L18.638617,1.05319149 L18.0282447,0.813829787 L17.409016,0.601276596 L16.7715957,0.420319149 L16.1250798,0.271196809 L15.4651596,0.153670213 L14.7961436,0.0677393617 L14.113484,0.0181914894 L13.4262766,0 L12.7347606,0.0181914894 L12.0521011,0.0677393617 L11.3828457,0.153670213 L10.7183777,0.271196809 L10.0721011,0.420319149 L9.43468085,0.601276596 L8.81066489,0.813829787 L8.20029255,1.05319149 L7.60380319,1.32462766 L7.0250266,1.61832447 L6.46444149,1.93930851 L5.9175,2.28734043 L5.39305851,2.66265957 L4.88680851,3.06047872 L4.39851064,3.48079787 L3.93295213,3.92385638 L3.48534574,4.38965426 L3.0650266,4.87771277 L2.66720745,5.37941489 L2.2918883,5.90385638 L1.94385638,6.45103723 L1.61832447,7.00707447 L1.3243883,7.5856117 L1.05343085,8.17779255 L0.813829787,8.78361702 L0.601276596,9.40739362 L0.420319149,10.040266 L0.271196809,10.6867819 L0.153670213,11.3421543 L0.0677393617,12.0114096 L0.0179521277,12.6892819 L0,13.3764894 L0.0179521277,14.0682447 L0.0677393617,14.7509043 L0.153670213,15.4199202 L0.271196809,16.0843883 L0.420319149,16.7309043 L0.601276596,17.3680851 L0.813829787,17.9923404 L1.05343085,18.602234 L1.3243883,19.1992021 L1.61832447,19.7777394 L1.94385638,20.3383245 L2.2918883,20.8855053 L2.66720745,21.4097074 L3.0650266,21.9159574 L3.48534574,22.4042553 L3.93295213,22.8700532 L4.39851064,23.3174202 L4.88680851,23.7379787 L5.39305851,24.1357979 L5.9175,24.5108777 L6.46444149,24.8589096 L7.0250266,25.1844415 L7.60380319,25.4783777 L8.20029255,25.7495745 L8.81066489,25.9891755 L9.43468085,26.2014894 L10.0721011,26.3824468 L10.7183777,26.5315691 L11.3828457,26.6493351 L12.0521011,26.7350266 L12.7347606,26.7845745 L13.4262766,26.802766" id="Fill-5" fill="#D82331"></path>
                        <path d="M20.8220745,5.14005319 L27.9421277,5.14005319 L27.9421277,4.41215426 L21.4367553,4.41215426 L20.8220745,5.14005319" id="Fill-6" fill="#F2AD3D"></path>
                        <path d="M19.7552394,6.75837766 L27.9421277,6.75837766 L27.9421277,6.03071809 L20.1846543,6.03071809 L19.7552394,6.75837766" id="Fill-7" fill="#F2AD3D"></path>
                        <path d="M18.9596011,8.37215426 L27.9421277,8.37215426 L27.9421277,7.64425532 L19.2760372,7.64425532 L18.9596011,8.37215426" id="Fill-8" fill="#F2AD3D"></path>
                        <path d="M18.4124202,9.99047872 L27.9421277,9.99047872 L27.9421277,9.26281915 L18.638617,9.26281915 L18.4124202,9.99047872" id="Fill-9" fill="#F2AD3D"></path>
                        <path d="M18.7290957,17.811383 L27.9646277,17.811383 L27.9646277,17.083484 L18.5028989,17.083484 L18.7290957,17.811383" id="Fill-10" fill="#F2AD3D"></path>
                        <path d="M19.411516,19.4297074 L27.9646277,19.4297074 L27.9646277,18.7018085 L19.0725798,18.7018085 L19.411516,19.4297074" id="Fill-11" fill="#F2AD3D"></path>
                        <path d="M20.3699202,21.0437234 L27.9646277,21.0437234 L27.9646277,20.3158245 L19.9132181,20.3158245 L20.3699202,21.0437234" id="Fill-12" fill="#F2AD3D"></path>
                        <path d="M21.69,22.6618085 L27.9646277,22.6618085 L27.9646277,21.9296011 L21.0525798,21.9296011 L21.69,22.6618085" id="Fill-13" fill="#F2AD3D"></path>
                        <path d="M18.0916755,11.6044947 L27.9421277,11.6044947 L27.9421277,10.8765957 L18.2317021,10.8765957 L18.0916755,11.6044947" id="Fill-14" fill="#F2AD3D"></path>
                        <path d="M24.0951064,16.1976064 L27.8516489,16.1976064 L27.8516489,15.4697074 L24.2305851,15.4697074 L24.0951064,16.1976064" id="Fill-15" fill="#F2AD3D"></path>
                        <path d="M24.3933511,14.5835904 L27.8516489,14.5835904 L27.8516489,13.8511436 L24.5290691,13.8511436 L24.3933511,14.5835904" id="Fill-16" fill="#F2AD3D"></path>
                        <path d="M17.8429787,13.8511436 L18.8195745,13.8511436 L18.8195745,14.5835904 L17.8882181,14.5835904 L17.8429787,13.8511436" id="Fill-17" fill="#F2AD3D"></path>
                        <path d="M16.0211968,12.9698138 L15.957766,12.965266 L15.8945745,12.9561702 L15.8356915,12.9470745 L15.7770479,12.9379787 L15.7227128,12.9291223 L15.6640691,12.9200266 L15.6051862,12.9109309 L15.5419947,12.9018351 L15.4788032,12.8927394 L15.4062766,12.8881915 L15.325133,12.883883 L15.2392021,12.8793351 L15.1441755,12.8793351 L15.0402926,12.883883 L14.9225266,12.8927394 L14.7915957,12.9018351 L14.701117,12.9154787 L14.6151862,12.9291223 L14.5383511,12.9561702 L14.4706117,12.9832181 L14.4071809,13.0148138 L14.3485372,13.0511968 L14.2626064,13.1368883 L14.2355585,13.1866755 L14.2128191,13.2364628 L14.2037234,13.2905585 L14.2037234,13.345133 L14.217367,13.4037766 L14.2355585,13.4624202 L14.2717021,13.5213032 L14.3169415,13.5799468 L14.4071809,13.6656383 L14.5158511,13.7338564 L14.642234,13.7925 L14.7779521,13.8422872 L14.9225266,13.8872872 L15.0716489,13.9370745 L15.2210106,13.9914096 L15.3655851,14.0502926 L15.5013032,14.1268883 L15.6279255,14.2219149 L15.7409043,14.3348936 L15.8356915,14.4749202 L15.9082181,14.6467819 L15.9534574,14.8504787 L15.9714096,15.0943883 L15.9534574,15.3792287 L15.9216223,15.5915426 L15.8675266,15.7770479 L15.795,15.9489096 L15.7045213,16.0980319 L15.6006383,16.2289628 L15.4831117,16.3419415 L15.3564894,16.441516 L15.2164628,16.5274468 L15.0716489,16.5951862 L14.9225266,16.6540691 L14.7688564,16.6990691 L14.6108777,16.7354521 L14.4569681,16.7625 L14.3078457,16.7761436 L14.158484,16.7852394 L14.0184574,16.7895479 L13.8240957,16.7895479 L13.6433777,16.7852394 L13.4851596,16.7852394 L13.3357979,16.7804521 L13.2003191,16.7761436 L13.0782447,16.7668085 L12.9698138,16.7579521 L12.8656915,16.7445479 L12.7709043,16.7354521 L12.6849734,16.7172606 L12.5990426,16.7038564 L12.5222074,16.681117 L12.4453723,16.6631649 L12.3730851,16.636117 L12.3005585,16.6088298 L12.2237234,16.5815426 L12.4271809,15.5826862 L12.4681117,15.5915426 L12.5176596,15.6051862 L12.5808511,15.6233777 L12.6576862,15.6413298 L12.7390691,15.6595213 L12.8295479,15.6777128 L12.9291223,15.6999734 L13.0375532,15.7184043 L13.1505319,15.7363564 L13.2680585,15.7543085 L13.390133,15.7681915 L13.5167553,15.7815957 L13.6479255,15.7861436 L13.7788564,15.7904521 L13.9100266,15.7904521 L14.0411968,15.7861436 L14.1721277,15.7590957 L14.27625,15.7227128 L14.357633,15.6729255 L14.4208245,15.609734 L14.4660638,15.5465426 L14.5022074,15.474016 L14.5249468,15.4017287 L14.5428989,15.3339894 L14.5519947,15.2028191 L14.5113032,15.0900798 L14.4344681,14.9996011 L14.32125,14.9225266 L14.1857713,14.8547872 L14.0275532,14.7870479 L13.8511436,14.723617 L13.6749734,14.6515691 L13.4942553,14.5701862 L13.3223936,14.4749202 L13.1641755,14.3573936 L13.0193617,14.217367 L12.906383,14.0455053 L12.825,13.8422872 L12.7843085,13.5978989 L12.7888564,13.30875 L12.8115957,13.1323404 L12.8431915,12.965266 L12.8884309,12.8115957 L12.9425266,12.6667819 L13.0148138,12.5313032 L13.0964362,12.4135372 L13.1912234,12.3005585 L13.3042021,12.2012234 L13.4353723,12.1152926 L13.5799468,12.0430053 L13.7427128,11.9750266 L13.9236702,11.9254787 L14.1271277,11.8847872 L14.3485372,11.8531915 L14.5924468,11.835 L14.8593351,11.8304521 L15.0266489,11.8304521 L15.1803191,11.835 L15.3203457,11.8395479 L15.4469681,11.8440957 L15.5599468,11.8531915 L15.6640691,11.8622872 L15.7543085,11.8711436 L15.8356915,11.8802394 L15.912766,11.8893351 L15.9759574,11.9027394 L16.0346011,11.9118351 L16.0889362,11.9209309 L16.1341755,11.9297872 L16.174867,11.9343351 L16.2155585,11.9436702 L16.2517021,11.9482181 L16.0211968,12.9698138" id="Fill-18" fill="#FFFFFF"></path>
                        <path d="M16.0211968,12.9698138 L16.0211968,12.9698138 L15.957766,12.965266 L15.8945745,12.9561702 L15.8356915,12.9470745 L15.7770479,12.9379787 L15.7227128,12.9291223 L15.6640691,12.9200266 L15.6051862,12.9109309 L15.5419947,12.9018351 L15.4788032,12.8927394 L15.4062766,12.8881915 L15.325133,12.883883 L15.2392021,12.8793351 L15.1441755,12.8793351 L15.0402926,12.883883 L14.9225266,12.8927394 L14.7915957,12.9018351 L14.701117,12.9154787 L14.6151862,12.9291223 L14.5383511,12.9561702 L14.4706117,12.9832181 L14.4071809,13.0148138 L14.3485372,13.0511968 L14.2626064,13.1368883 L14.2355585,13.1866755 L14.2128191,13.2364628 L14.2037234,13.2905585 L14.2037234,13.345133 L14.217367,13.4037766 L14.2355585,13.4624202 L14.2717021,13.5213032 L14.3169415,13.5799468 L14.4071809,13.6656383 L14.5158511,13.7338564 L14.642234,13.7925 L14.7779521,13.8422872 L14.9225266,13.8872872 L15.0716489,13.9370745 L15.2210106,13.9914096 L15.3655851,14.0502926 L15.5013032,14.1268883 L15.6279255,14.2219149 L15.7409043,14.3348936 L15.8356915,14.4749202 L15.9082181,14.6467819 L15.9534574,14.8504787 L15.9714096,15.0943883 L15.9534574,15.3792287 L15.9216223,15.5915426 L15.8675266,15.7770479 L15.795,15.9489096 L15.7045213,16.0980319 L15.6006383,16.2289628 L15.4831117,16.3419415 L15.3564894,16.441516 L15.2164628,16.5274468 L15.0716489,16.5951862 L14.9225266,16.6540691 L14.7688564,16.6990691 L14.6108777,16.7354521 L14.4569681,16.7625 L14.3078457,16.7761436 L14.158484,16.7852394 L14.0184574,16.7895479 L13.8240957,16.7895479 L13.6433777,16.7852394 L13.4851596,16.7852394 L13.3357979,16.7804521 L13.2003191,16.7761436 L13.0782447,16.7668085 L12.9698138,16.7579521 L12.8656915,16.7445479 L12.7709043,16.7354521 L12.6849734,16.7172606 L12.5990426,16.7038564 L12.5222074,16.681117 L12.4453723,16.6631649 L12.3730851,16.636117 L12.3005585,16.6088298 L12.2237234,16.5815426 L12.4271809,15.5826862 L12.4681117,15.5915426 L12.5176596,15.6051862 L12.5808511,15.6233777 L12.6576862,15.6413298 L12.7390691,15.6595213 L12.8295479,15.6777128 L12.9291223,15.6999734 L13.0375532,15.7184043 L13.1505319,15.7363564 L13.2680585,15.7543085 L13.390133,15.7681915 L13.5167553,15.7815957 L13.6479255,15.7861436 L13.7788564,15.7904521 L13.9100266,15.7904521 L14.0411968,15.7861436 L14.1721277,15.7590957 L14.27625,15.7227128 L14.357633,15.6729255 L14.4208245,15.609734 L14.4660638,15.5465426 L14.5022074,15.474016 L14.5249468,15.4017287 L14.5428989,15.3339894 L14.5519947,15.2028191 L14.5113032,15.0900798 L14.4344681,14.9996011 L14.32125,14.9225266 L14.1857713,14.8547872 L14.0275532,14.7870479 L13.8511436,14.723617 L13.6749734,14.6515691 L13.4942553,14.5701862 L13.3223936,14.4749202 L13.1641755,14.3573936 L13.0193617,14.217367 L12.906383,14.0455053 L12.825,13.8422872 L12.7843085,13.5978989 L12.7888564,13.30875 L12.8115957,13.1323404 L12.8431915,12.965266 L12.8884309,12.8115957 L12.9425266,12.6667819 L13.0148138,12.5313032 L13.0964362,12.4135372 L13.1912234,12.3005585 L13.3042021,12.2012234 L13.4353723,12.1152926 L13.5799468,12.0430053 L13.7427128,11.9750266 L13.9236702,11.9254787 L14.1271277,11.8847872 L14.3485372,11.8531915 L14.5924468,11.835 L14.8593351,11.8304521 L15.0266489,11.8304521 L15.1803191,11.835 L15.3203457,11.8395479 L15.4469681,11.8440957 L15.5599468,11.8531915 L15.6640691,11.8622872 L15.7543085,11.8711436 L15.8356915,11.8802394 L15.912766,11.8893351 L15.9759574,11.9027394 L16.0346011,11.9118351 L16.0889362,11.9209309 L16.1341755,11.9297872 L16.174867,11.9343351 L16.2155585,11.9436702 L16.2517021,11.9482181 L16.0211968,12.9698138" id="Stroke-19" stroke="#FFFFFF" stroke-width="0.216"></path>
                        <path d="M17.0925798,10.8315957 L18.3446809,10.8315957 L18.1594149,11.9254787 L18.9143617,11.9254787 L18.7515957,12.9470745 L17.9559574,12.9245745 L17.5219947,15.4469681 L17.5174468,15.5374468 L17.5399468,15.6142819 L17.5854255,15.6729255 L17.6440691,15.7227128 L17.7254521,15.7543085 L17.8159309,15.7815957 L17.915266,15.7995479 L18.0236968,15.8086436 L18.1232713,15.8040957 L18.2135106,15.795 L18.295133,15.7815957 L18.3671809,15.7634043 L18.4260638,15.7454521 L18.4667553,15.7318085 L18.4940426,15.7227128 L18.5028989,15.7184043 L18.3446809,16.5590426 L18.3130851,16.5815426 L18.2814894,16.599734 L18.2498936,16.6176862 L18.2180585,16.636117 L18.1864628,16.6495213 L18.1503191,16.6631649 L18.1096277,16.6768085 L18.0689362,16.6902128 L18.0236968,16.7038564 L17.9784574,16.7127128 L17.9243617,16.7218085 L17.8700266,16.7309043 L17.811383,16.7397606 L17.7436436,16.7488564 L17.671117,16.7579521 L17.5942819,16.7668085 L17.2507979,16.7668085 L17.0698404,16.7534043 L16.9116223,16.7354521 L16.7670479,16.7081649 L16.6449734,16.6768085 L16.5410904,16.636117 L16.4551596,16.5906383 L16.3780851,16.5365426 L16.3194415,16.4776596 L16.2744415,16.4144681 L16.2426064,16.337633 L16.2201064,16.2605585 L16.2064628,16.174867 L16.2019149,16.0798404 L16.2019149,15.980266 L16.2155585,15.8766223 L16.2289628,15.7634043 L17.0925798,10.8315957" id="Fill-20" fill="#FFFFFF"></path>
                        <path d="M17.0925798,10.8315957 L18.3446809,10.8315957 L18.1594149,11.9254787 L18.9143617,11.9254787 L18.7515957,12.9470745 L17.9559574,12.9245745 L17.5219947,15.4469681 L17.5174468,15.5374468 L17.5399468,15.6142819 L17.5854255,15.6729255 L17.6440691,15.7227128 L17.7254521,15.7543085 L17.8159309,15.7815957 L17.915266,15.7995479 L18.0236968,15.8086436 L18.1232713,15.8040957 L18.2135106,15.795 L18.295133,15.7815957 L18.3671809,15.7634043 L18.4260638,15.7454521 L18.4667553,15.7318085 L18.4940426,15.7227128 L18.5028989,15.7184043 L18.3446809,16.5590426 L18.3130851,16.5815426 L18.2814894,16.599734 L18.2498936,16.6176862 L18.2180585,16.636117 L18.1864628,16.6495213 L18.1503191,16.6631649 L18.1096277,16.6768085 L18.0689362,16.6902128 L18.0236968,16.7038564 L17.9784574,16.7127128 L17.9243617,16.7218085 L17.8700266,16.7309043 L17.811383,16.7397606 L17.7436436,16.7488564 L17.671117,16.7579521 L17.5942819,16.7668085 L17.2507979,16.7668085 L17.0698404,16.7534043 L16.9116223,16.7354521 L16.7670479,16.7081649 L16.6449734,16.6768085 L16.5410904,16.636117 L16.4551596,16.5906383 L16.3780851,16.5365426 L16.3194415,16.4776596 L16.2744415,16.4144681 L16.2426064,16.337633 L16.2201064,16.2605585 L16.2064628,16.174867 L16.2019149,16.0798404 L16.2019149,15.980266 L16.2155585,15.8766223 L16.2289628,15.7634043 L17.0925798,10.8315957" id="Stroke-21" stroke="#FFFFFF" stroke-width="0.216"></path>
                        <path d="M19.9132181,14.6515691 L19.8998138,14.7281649 L19.895266,14.8095479 L19.9043617,14.8954787 L19.9225532,14.9814096 L19.9541489,15.0673404 L19.9902926,15.1487234 L20.0400798,15.2344149 L20.0941755,15.31125 L20.1576064,15.3883245 L20.2253457,15.4560638 L20.297633,15.5238032 L20.379016,15.5781383 L20.4603989,15.6279255 L20.5508777,15.668617 L20.641117,15.6999734 L20.7315957,15.7184043 L20.8491223,15.7363564 L20.9621011,15.7497606 L21.079867,15.7634043 L21.1971543,15.7725 L21.3146809,15.7770479 L21.4367553,15.7770479 L21.5542819,15.7725 L21.6765957,15.7634043 L21.7984309,15.7454521 L21.9205053,15.7227128 L22.0471277,15.6956649 L22.1692021,15.6549734 L22.2958245,15.6051862 L22.4267553,15.5508511 L22.5533777,15.4788032 L22.6845479,15.4017287 L22.5035904,16.5138032 L22.4315426,16.5499468 L22.359016,16.5863298 L22.2867287,16.6133777 L22.2189894,16.6404255 L22.15125,16.6631649 L22.0787234,16.6856649 L22.0064362,16.7038564 L21.9296011,16.7172606 L21.8482181,16.7309043 L21.7579787,16.7397606 L21.6629521,16.7488564 L21.5588298,16.7579521 L21.4415426,16.7625 L21.3194681,16.7625 L21.1792021,16.7668085 L21.0300798,16.7668085 L20.8084309,16.7625 L20.5824734,16.7397606 L20.356516,16.7081649 L20.1303191,16.6540691 L19.9089096,16.5863298 L19.6963564,16.5001596 L19.4928989,16.3874202 L19.3030851,16.25625 L19.1266755,16.1025798 L18.9730053,15.9173138 L18.8420745,15.7093085 L18.7334043,15.4697074 L18.6565691,15.2028191 L18.6067819,14.9000266 L18.5933777,14.5653989 L18.616117,14.1946277 L18.6340691,14.0502926 L18.6613564,13.8829787 L18.6972606,13.7065691 L18.7470479,13.516516 L18.8150266,13.3223936 L18.8961702,13.1277926 L19.0002926,12.9291223 L19.1266755,12.7390691 L19.2714894,12.5583511 L19.4478989,12.3864894 L19.6465691,12.2328191 L19.872766,12.0973404 L20.134867,11.9841223 L20.4288032,11.9027394 L20.7543351,11.8486436 L21.1203191,11.8304521 L21.2967287,11.835 L21.4819947,11.8531915 L21.6675,11.8847872 L21.852766,11.9297872 L22.033484,11.997766 L22.2098936,12.0791489 L22.3726596,12.1875798 L22.5217819,12.3142021 L22.6575,12.4678723 L22.7704787,12.6488298 L22.8607181,12.8568351 L22.9241489,13.0961968 L22.9602926,13.3673936 L22.9648404,13.674734 L22.9332447,14.0184574 L22.865266,14.3983245 L22.842766,14.6738298 L19.547234,14.6738298 L19.7552394,13.7834043 L21.7352394,13.7834043 L21.7443351,13.6704255 L21.7397872,13.5619947 L21.7306915,13.4624202 L21.7127394,13.3721809 L21.6809043,13.2860106 L21.6493085,13.2091755 L21.6040691,13.1414362 L21.5588298,13.0782447 L21.504734,13.0239096 L21.4458511,12.9786702 L21.3781117,12.9379787 L21.3103723,12.9018351 L21.2380851,12.8747872 L21.1655585,12.8568351 L21.0887234,12.8431915 L21.0073404,12.8340957 L20.9214096,12.8386436 L20.840266,12.8520479 L20.7631915,12.8702394 L20.6863564,12.8972872 L20.6095213,12.9334309 L20.5417819,12.9743617 L20.4740426,13.0239096 L20.4151596,13.0782447 L20.356516,13.1414362 L20.3021809,13.2091755 L20.2523936,13.2814628 L20.2119415,13.3585372 L20.1710106,13.4399202 L20.1394149,13.5303989 L20.112367,13.6206383 L20.0941755,13.7154255 L19.9132181,14.6515691" id="Fill-22" fill="#FFFFFF"></path>
                        <path d="M19.9132181,14.6515691 L19.9132181,14.6515691 L19.8998138,14.7281649 L19.895266,14.8095479 L19.9043617,14.8954787 L19.9225532,14.9814096 L19.9541489,15.0673404 L19.9902926,15.1487234 L20.0400798,15.2344149 L20.0941755,15.31125 L20.1576064,15.3883245 L20.2253457,15.4560638 L20.297633,15.5238032 L20.379016,15.5781383 L20.4603989,15.6279255 L20.5508777,15.668617 L20.641117,15.6999734 L20.7315957,15.7184043 L20.8491223,15.7363564 L20.9621011,15.7497606 L21.079867,15.7634043 L21.1971543,15.7725 L21.3146809,15.7770479 L21.4367553,15.7770479 L21.5542819,15.7725 L21.6765957,15.7634043 L21.7984309,15.7454521 L21.9205053,15.7227128 L22.0471277,15.6956649 L22.1692021,15.6549734 L22.2958245,15.6051862 L22.4267553,15.5508511 L22.5533777,15.4788032 L22.6845479,15.4017287 L22.5035904,16.5138032 L22.4315426,16.5499468 L22.359016,16.5863298 L22.2867287,16.6133777 L22.2189894,16.6404255 L22.15125,16.6631649 L22.0787234,16.6856649 L22.0064362,16.7038564 L21.9296011,16.7172606 L21.8482181,16.7309043 L21.7579787,16.7397606 L21.6629521,16.7488564 L21.5588298,16.7579521 L21.4415426,16.7625 L21.3194681,16.7625 L21.1792021,16.7668085 L21.0300798,16.7668085 L20.8084309,16.7625 L20.5824734,16.7397606 L20.356516,16.7081649 L20.1303191,16.6540691 L19.9089096,16.5863298 L19.6963564,16.5001596 L19.4928989,16.3874202 L19.3030851,16.25625 L19.1266755,16.1025798 L18.9730053,15.9173138 L18.8420745,15.7093085 L18.7334043,15.4697074 L18.6565691,15.2028191 L18.6067819,14.9000266 L18.5933777,14.5653989 L18.616117,14.1946277 L18.6340691,14.0502926 L18.6613564,13.8829787 L18.6972606,13.7065691 L18.7470479,13.516516 L18.8150266,13.3223936 L18.8961702,13.1277926 L19.0002926,12.9291223 L19.1266755,12.7390691 L19.2714894,12.5583511 L19.4478989,12.3864894 L19.6465691,12.2328191 L19.872766,12.0973404 L20.134867,11.9841223 L20.4288032,11.9027394 L20.7543351,11.8486436 L21.1203191,11.8304521 L21.2967287,11.835 L21.4819947,11.8531915 L21.6675,11.8847872 L21.852766,11.9297872 L22.033484,11.997766 L22.2098936,12.0791489 L22.3726596,12.1875798 L22.5217819,12.3142021 L22.6575,12.4678723 L22.7704787,12.6488298 L22.8607181,12.8568351 L22.9241489,13.0961968 L22.9602926,13.3673936 L22.9648404,13.674734 L22.9332447,14.0184574 L22.865266,14.3983245 L22.842766,14.6738298 L19.547234,14.6738298 L19.7552394,13.7834043 L21.7352394,13.7834043 L21.7443351,13.6704255 L21.7397872,13.5619947 L21.7306915,13.4624202 L21.7127394,13.3721809 L21.6809043,13.2860106 L21.6493085,13.2091755 L21.6040691,13.1414362 L21.5588298,13.0782447 L21.504734,13.0239096 L21.4458511,12.9786702 L21.3781117,12.9379787 L21.3103723,12.9018351 L21.2380851,12.8747872 L21.1655585,12.8568351 L21.0887234,12.8431915 L21.0073404,12.8340957 L20.9214096,12.8386436 L20.840266,12.8520479 L20.7631915,12.8702394 L20.6863564,12.8972872 L20.6095213,12.9334309 L20.5417819,12.9743617 L20.4740426,13.0239096 L20.4151596,13.0782447 L20.356516,13.1414362 L20.3021809,13.2091755 L20.2523936,13.2814628 L20.2119415,13.3585372 L20.1710106,13.4399202 L20.1394149,13.5303989 L20.112367,13.6206383 L20.0941755,13.7154255 L19.9132181,14.6515691" id="Stroke-23" stroke="#FFFFFF" stroke-width="0.216"></path>
                        <path d="M30.6950266,12.1966755 L30.636383,12.1650798 L30.5777394,12.1380319 L30.5143085,12.1061968 L30.4465691,12.0746011 L30.3788298,12.0475532 L30.3017553,12.020266 L30.2249202,11.9932181 L30.1435372,11.9661702 L30.0578457,11.9436702 L29.9716755,11.9254787 L29.8768883,11.9072872 L29.7818617,11.893883 L29.6779787,11.8847872 L29.5738564,11.8756915 L29.2394681,11.8756915 L29.1219415,11.8847872 L28.999867,11.8984309 L28.873484,11.9209309 L28.7466223,11.9570745 L28.6202394,12.0068617 L28.493617,12.0700532 L28.3667553,12.1514362 L28.2451596,12.2510106 L28.1273936,12.3685372 L28.0144149,12.5131117 L27.905984,12.6804255 L27.8066489,12.8793351 L27.711383,13.1052926 L27.6256915,13.3585372 L27.5534043,13.6476862 L27.5263564,13.8104521 L27.5079255,13.9686702 L27.4988298,14.1268883 L27.503617,14.2807979 L27.5172606,14.4342287 L27.548617,14.5790426 L27.5893085,14.7145213 L27.6390957,14.8504787 L27.7070745,14.9723138 L27.7882181,15.0900798 L27.8832447,15.1937234 L27.9916755,15.28875 L28.1139894,15.370133 L28.254016,15.4381117 L28.4076862,15.4967553 L28.5795479,15.5374468 L28.6381915,15.5508511 L28.7059309,15.5644947 L28.7873138,15.5735904 L28.8777926,15.5826862 L28.9771277,15.5915426 L29.1942287,15.5915426 L29.3072074,15.5826862 L29.424734,15.5690426 L29.5425,15.5465426 L29.6552394,15.5149468 L29.7684574,15.4788032 L29.8814362,15.429016 L29.9853191,15.370133 L30.0803457,15.2978457 L30.1708245,15.2164628 L29.967367,16.4235638 L29.9403191,16.4460638 L29.9130319,16.4731117 L29.8768883,16.5049468 L29.8361968,16.5319947 L29.7864096,16.5681383 L29.7229787,16.599734 L29.6509309,16.6313298 L29.5695479,16.6583777 L29.4654255,16.6902128 L29.3478989,16.7127128 L29.2124202,16.7309043 L29.0539628,16.7488564 L28.8777926,16.7579521 L28.6745745,16.7625 L28.4438298,16.7579521 L28.1905851,16.7445479 L27.9828191,16.7218085 L27.7748138,16.6768085 L27.5670479,16.6088298 L27.3588032,16.5183511 L27.1598936,16.4099202 L26.9700798,16.2742021 L26.7893617,16.1162234 L26.6220479,15.935266 L26.4726862,15.7318085 L26.3463032,15.5058511 L26.2378723,15.2526064 L26.1564894,14.9768617 L26.1021543,14.6738298 L26.0839628,14.3530851 L26.0930585,14.0005053 L26.1428457,13.6251862 L26.1789894,13.4399202 L26.2196809,13.2589628 L26.2649202,13.0827926 L26.3101596,12.9154787 L26.3599468,12.7572606 L26.4185904,12.5990426 L26.4774734,12.4499202 L26.5404255,12.3096543 L26.6086436,12.1693883 L26.676383,12.0384574 L26.7529787,11.9118351 L26.8343617,11.7943085 L26.915984,11.6813298 L27.0062234,11.5728989 L27.0967021,11.4733245 L27.1914894,11.3785372 L27.2956117,11.2880585 L27.3994947,11.2021277 L27.5079255,11.1252926 L27.6211436,11.0530053 L27.7432181,10.9850266 L27.8652926,10.926383 L27.9916755,10.8720479 L28.1228457,10.8222606 L28.2631117,10.7772606 L28.4031383,10.741117 L28.5477128,10.7092819 L28.7016223,10.682234 L28.8550532,10.6594947 L29.0180585,10.6415426 L29.1808245,10.6324468 L29.3526862,10.6281383 L29.4972606,10.6324468 L29.6372872,10.6415426 L29.772766,10.6549468 L29.908484,10.6731383 L30.0351064,10.6913298 L30.1571809,10.7183777 L30.2747074,10.741117 L30.3831383,10.7681649 L30.4872606,10.7952128 L30.5777394,10.8222606 L30.6634309,10.8495479 L30.7359574,10.8765957 L30.7991489,10.8993351 L30.8532447,10.9172872 L30.8941755,10.9354787 L30.920984,10.9445745 L30.6950266,12.1966755" id="Fill-24" fill="#FFFFFF"></path>
                        <path d="M30.6950266,12.1966755 L30.6950266,12.1966755 L30.636383,12.1650798 L30.5777394,12.1380319 L30.5143085,12.1061968 L30.4465691,12.0746011 L30.3788298,12.0475532 L30.3017553,12.020266 L30.2249202,11.9932181 L30.1435372,11.9661702 L30.0578457,11.9436702 L29.9716755,11.9254787 L29.8768883,11.9072872 L29.7818617,11.893883 L29.6779787,11.8847872 L29.5738564,11.8756915 L29.2394681,11.8756915 L29.1219415,11.8847872 L28.999867,11.8984309 L28.873484,11.9209309 L28.7466223,11.9570745 L28.6202394,12.0068617 L28.493617,12.0700532 L28.3667553,12.1514362 L28.2451596,12.2510106 L28.1273936,12.3685372 L28.0144149,12.5131117 L27.905984,12.6804255 L27.8066489,12.8793351 L27.711383,13.1052926 L27.6256915,13.3585372 L27.5534043,13.6476862 L27.5263564,13.8104521 L27.5079255,13.9686702 L27.4988298,14.1268883 L27.503617,14.2807979 L27.5172606,14.4342287 L27.548617,14.5790426 L27.5893085,14.7145213 L27.6390957,14.8504787 L27.7070745,14.9723138 L27.7882181,15.0900798 L27.8832447,15.1937234 L27.9916755,15.28875 L28.1139894,15.370133 L28.254016,15.4381117 L28.4076862,15.4967553 L28.5795479,15.5374468 L28.6381915,15.5508511 L28.7059309,15.5644947 L28.7873138,15.5735904 L28.8777926,15.5826862 L28.9771277,15.5915426 L29.1942287,15.5915426 L29.3072074,15.5826862 L29.424734,15.5690426 L29.5425,15.5465426 L29.6552394,15.5149468 L29.7684574,15.4788032 L29.8814362,15.429016 L29.9853191,15.370133 L30.0803457,15.2978457 L30.1708245,15.2164628 L29.967367,16.4235638 L29.9403191,16.4460638 L29.9130319,16.4731117 L29.8768883,16.5049468 L29.8361968,16.5319947 L29.7864096,16.5681383 L29.7229787,16.599734 L29.6509309,16.6313298 L29.5695479,16.6583777 L29.4654255,16.6902128 L29.3478989,16.7127128 L29.2124202,16.7309043 L29.0539628,16.7488564 L28.8777926,16.7579521 L28.6745745,16.7625 L28.4438298,16.7579521 L28.1905851,16.7445479 L27.9828191,16.7218085 L27.7748138,16.6768085 L27.5670479,16.6088298 L27.3588032,16.5183511 L27.1598936,16.4099202 L26.9700798,16.2742021 L26.7893617,16.1162234 L26.6220479,15.935266 L26.4726862,15.7318085 L26.3463032,15.5058511 L26.2378723,15.2526064 L26.1564894,14.9768617 L26.1021543,14.6738298 L26.0839628,14.3530851 L26.0930585,14.0005053 L26.1428457,13.6251862 L26.1789894,13.4399202 L26.2196809,13.2589628 L26.2649202,13.0827926 L26.3101596,12.9154787 L26.3599468,12.7572606 L26.4185904,12.5990426 L26.4774734,12.4499202 L26.5404255,12.3096543 L26.6086436,12.1693883 L26.676383,12.0384574 L26.7529787,11.9118351 L26.8343617,11.7943085 L26.915984,11.6813298 L27.0062234,11.5728989 L27.0967021,11.4733245 L27.1914894,11.3785372 L27.2956117,11.2880585 L27.3994947,11.2021277 L27.5079255,11.1252926 L27.6211436,11.0530053 L27.7432181,10.9850266 L27.8652926,10.926383 L27.9916755,10.8720479 L28.1228457,10.8222606 L28.2631117,10.7772606 L28.4031383,10.741117 L28.5477128,10.7092819 L28.7016223,10.682234 L28.8550532,10.6594947 L29.0180585,10.6415426 L29.1808245,10.6324468 L29.3526862,10.6281383 L29.4972606,10.6324468 L29.6372872,10.6415426 L29.772766,10.6549468 L29.908484,10.6731383 L30.0351064,10.6913298 L30.1571809,10.7183777 L30.2747074,10.741117 L30.3831383,10.7681649 L30.4872606,10.7952128 L30.5777394,10.8222606 L30.6634309,10.8495479 L30.7359574,10.8765957 L30.7991489,10.8993351 L30.8532447,10.9172872 L30.8941755,10.9354787 L30.920984,10.9445745 L30.6950266,12.1966755" id="Stroke-25" stroke="#FFFFFF" stroke-width="0.216"></path>
                        <path d="M41.824867,16.7668085 L40.572766,16.7668085 L40.6630053,16.2653457 L40.6630053,16.219867 L40.5909574,16.3103457 L40.513883,16.3917287 L40.4370479,16.4642553 L40.3556649,16.5274468 L40.2742819,16.5863298 L40.1931383,16.636117 L40.1117553,16.6768085 L40.0255851,16.7172606 L39.9398936,16.7488564 L39.7680319,16.7943351 L39.6775532,16.8077394 L39.5870745,16.821383 L39.501383,16.8302394 L39.4109043,16.8350266 L39.3204255,16.8350266 L39.0856117,16.8165957 L38.8682713,16.7668085 L38.6693617,16.6902128 L38.4886436,16.5863298 L38.3258777,16.4551596 L38.1813032,16.3014894 L38.0546809,16.1341755 L37.94625,15.9443617 L37.8557713,15.7406649 L37.783484,15.5285904 L37.7336968,15.3069415 L37.6975532,15.0764362 L37.6839096,14.8456915 L37.6886968,14.6106383 L37.7109574,14.380133 L37.7516489,14.1496277 L37.8196277,13.8829787 L37.9010106,13.629734 L37.9960372,13.3992287 L38.109016,13.1821277 L38.2265426,12.9786702 L38.3620213,12.7979521 L38.5022872,12.6351862 L38.6514096,12.4860638 L38.8096277,12.3548936 L38.9771809,12.2419149 L39.1488032,12.1425798 L39.3204255,12.0655053 L39.501383,12.0023138 L39.6821011,11.9616223 L39.8630585,11.9343351 L40.0483245,11.9254787 L40.1794947,11.9297872 L40.3058777,11.9436702 L40.4234043,11.9661702 L40.5320745,11.997766 L40.6359574,12.0339096 L40.7264362,12.0746011 L40.8169149,12.1243883 L40.8982979,12.1739362 L40.9705851,12.2282713 L41.0383245,12.2871543 L41.0969681,12.3457979 L41.1515426,12.4046809 L41.1965426,12.4635638 L41.237234,12.5222074 L41.2733777,12.5765426 L41.3006649,12.6306383 L41.6171011,10.8540957 L42.8467021,10.8540957 L41.824867,16.7668085" id="Fill-26" fill="#FFFFFF"></path>
                        <path d="M41.824867,16.7668085 L40.572766,16.7668085 L40.6630053,16.2653457 L40.6630053,16.219867 L40.5909574,16.3103457 L40.513883,16.3917287 L40.4370479,16.4642553 L40.3556649,16.5274468 L40.2742819,16.5863298 L40.1931383,16.636117 L40.1117553,16.6768085 L40.0255851,16.7172606 L39.9398936,16.7488564 L39.7680319,16.7943351 L39.6775532,16.8077394 L39.5870745,16.821383 L39.501383,16.8302394 L39.4109043,16.8350266 L39.3204255,16.8350266 L39.0856117,16.8165957 L38.8682713,16.7668085 L38.6693617,16.6902128 L38.4886436,16.5863298 L38.3258777,16.4551596 L38.1813032,16.3014894 L38.0546809,16.1341755 L37.94625,15.9443617 L37.8557713,15.7406649 L37.783484,15.5285904 L37.7336968,15.3069415 L37.6975532,15.0764362 L37.6839096,14.8456915 L37.6886968,14.6106383 L37.7109574,14.380133 L37.7516489,14.1496277 L37.8196277,13.8829787 L37.9010106,13.629734 L37.9960372,13.3992287 L38.109016,13.1821277 L38.2265426,12.9786702 L38.3620213,12.7979521 L38.5022872,12.6351862 L38.6514096,12.4860638 L38.8096277,12.3548936 L38.9771809,12.2419149 L39.1488032,12.1425798 L39.3204255,12.0655053 L39.501383,12.0023138 L39.6821011,11.9616223 L39.8630585,11.9343351 L40.0483245,11.9254787 L40.1794947,11.9297872 L40.3058777,11.9436702 L40.4234043,11.9661702 L40.5320745,11.997766 L40.6359574,12.0339096 L40.7264362,12.0746011 L40.8169149,12.1243883 L40.8982979,12.1739362 L40.9705851,12.2282713 L41.0383245,12.2871543 L41.0969681,12.3457979 L41.1515426,12.4046809 L41.1965426,12.4635638 L41.237234,12.5222074 L41.2733777,12.5765426 L41.3006649,12.6306383 L41.6171011,10.8540957 L42.8467021,10.8540957 L41.824867,16.7668085" id="Stroke-27" stroke="#FFFFFF" stroke-width="0.216"></path>
                        <path d="M39.7771277,15.6729255 L39.90375,15.6640691 L40.0212766,15.6370213 L40.1297074,15.6051862 L40.2338298,15.5553989 L40.328617,15.5010638 L40.4190957,15.4333245 L40.5047872,15.3567287 L40.5818617,15.2751064 L40.6496011,15.184867 L40.7127926,15.0852926 L40.7716755,14.9814096 L40.8214628,14.8727394 L40.8664628,14.76 L40.9026064,14.6424734 L40.9342021,14.5203989 L40.9569415,14.3983245 L40.9796809,14.2717021 L40.9930851,14.1405319 L40.9930851,14.0184574 L40.9885372,13.8920745 L40.975133,13.7743085 L40.9569415,13.6613298 L40.9253457,13.5528989 L40.8892021,13.4487766 L40.8439628,13.3585372 L40.789867,13.2726064 L40.730984,13.2003191 L40.6630053,13.1368883 L40.5861702,13.0827926 L40.5047872,13.0464096 L40.4190957,13.0239096 L40.3240691,13.0148138 L40.2019947,13.0239096 L40.089016,13.0421011 L39.9848936,13.0782447 L39.8810106,13.123484 L39.7905319,13.1821277 L39.7002926,13.2546543 L39.6234574,13.3314894 L39.546383,13.4171809 L39.4786436,13.516516 L39.4154521,13.6206383 L39.3565691,13.7290691 L39.3067819,13.8465957 L39.2617819,13.9686702 L39.2256383,14.0907447 L39.1892553,14.2219149 L39.1624468,14.3530851 L39.1397074,14.5519947 L39.1488032,14.7688564 L39.1803989,14.9905053 L39.2390426,15.2028191 L39.3295213,15.3883245 L39.4470479,15.5374468 L39.5961702,15.6370213 L39.7771277,15.6729255" id="Fill-28" fill="#F2AD3D"></path>
                        <path d="M12.0157181,15.7634043 L11.835,16.7668085 L10.6958777,16.7668085 L10.7274734,16.5815426 L10.7502128,16.4144681 L10.7681649,16.2880851 L10.7863564,16.219867 L10.7229255,16.2923936 L10.6506383,16.3646809 L10.5647074,16.4324202 L10.4699202,16.4958511 L10.36125,16.5590426 L10.2482713,16.6133777 L10.1307447,16.6674734 L10.0086702,16.7127128 L9.8775,16.7534043 L9.74656915,16.7852394 L9.61539894,16.8122872 L9.47992021,16.8302394 L9.34875,16.8393351 L9.21757979,16.843883 L9.09095745,16.8302394 L8.96888298,16.8122872 L8.81066489,16.7715957 L8.66609043,16.7265957 L8.53946809,16.6674734 L8.42648936,16.599734 L8.32715426,16.5274468 L8.23667553,16.4460638 L8.1643883,16.360133 L8.10095745,16.2696543 L8.04662234,16.174867 L8.00162234,16.0752926 L7.96523936,15.9759574 L7.93819149,15.8766223 L7.92023936,15.7725 L7.90659574,15.668617 L7.8975,15.5690426 L7.8975,15.4697074 L7.91114362,15.2932979 L7.93819149,15.125984 L7.98343085,14.967766 L8.04207447,14.8140957 L8.11460106,14.6695213 L8.19598404,14.5383511 L8.29077128,14.4119681 L8.39944149,14.29875 L8.51242021,14.1946277 L8.63904255,14.0998404 L8.7699734,14.0141489 L8.90569149,13.9416223 L9.05026596,13.8784309 L9.19962766,13.8286436 L9.35329787,13.7879521 L9.5112766,13.7609043 L9.5206117,13.7609043 L9.5431117,13.756117 L9.57494681,13.7518085 L9.62449468,13.7472606 L9.67859043,13.7381649 L9.74202128,13.7338564 L9.80976064,13.7245213 L9.88659574,13.7154255 L9.96343085,13.7065691 L10.040266,13.6974734 L10.1216489,13.6931649 L10.1941755,13.6840691 L10.2664628,13.6795213 L10.3342021,13.674734 L10.397633,13.6704255 L10.5513032,13.6704255 L10.659734,13.674734 L10.7590691,13.6795213 L10.8586436,13.6795213 L10.9400266,13.6840691 L11.0032181,13.6883777 L11.0484574,13.6931649 L11.0618617,13.6931649 L11.0711968,13.6613298 L11.0982447,13.5799468 L11.1207447,13.4851596 L11.1298404,13.3992287 L11.1116489,13.2996543 L11.0711968,13.2091755 L11.0168617,13.1277926 L10.9445745,13.0600532 L10.8586436,13.0014096 L10.763617,12.9607181 L10.6551862,12.9334309 L10.5376596,12.9245745 L10.4110372,12.9200266 L10.2753191,12.9154787 L10.1352926,12.9154787 L9.99047872,12.9200266 L9.84135638,12.9291223 L9.69678191,12.9425266 L9.55220745,12.9561702 L9.41194149,12.9743617 L9.27646277,12.9923138 L9.14529255,13.0148138 L9.02776596,13.0375532 L8.91933511,13.0600532 L8.81976064,13.0873404 L8.73837766,13.1143883 L8.67518617,13.145984 L8.62539894,13.1730319 L8.94638298,12.0836968 L9.04571809,12.0430053 L9.14529255,12.0068617 L9.2537234,11.9750266 L9.36215426,11.9525266 L9.47082447,11.9297872 L9.58835106,11.9118351 L9.70587766,11.893883 L9.82795213,11.8847872 L9.95457447,11.8756915 L10.0855053,11.8711436 L10.2212234,11.8665957 L10.6551862,11.8665957 L10.8134043,11.8711436 L10.9716223,11.8756915 L11.0982447,11.8847872 L11.2337234,11.9072872 L11.3739894,11.9391223 L11.5185638,11.9795745 L11.6588298,12.0339096 L11.7943085,12.0973404 L11.9300266,12.1739362 L12.0566489,12.259867 L12.1693883,12.3594415 L12.2689628,12.4678723 L12.3594415,12.5899468 L12.4271809,12.7256649 L12.4724202,12.8702394 L12.4994681,13.0239096 L12.4994681,13.1957713 L12.4724202,13.3764894 L12.0157181,15.7634043" id="Fill-29" fill="#FFFFFF"></path>
                        <path d="M12.0157181,15.7634043 L11.835,16.7668085 L10.6958777,16.7668085 L10.7274734,16.5815426 L10.7502128,16.4144681 L10.7681649,16.2880851 L10.7863564,16.219867 L10.7229255,16.2923936 L10.6506383,16.3646809 L10.5647074,16.4324202 L10.4699202,16.4958511 L10.36125,16.5590426 L10.2482713,16.6133777 L10.1307447,16.6674734 L10.0086702,16.7127128 L9.8775,16.7534043 L9.74656915,16.7852394 L9.61539894,16.8122872 L9.47992021,16.8302394 L9.34875,16.8393351 L9.21757979,16.843883 L9.09095745,16.8302394 L8.96888298,16.8122872 L8.81066489,16.7715957 L8.66609043,16.7265957 L8.53946809,16.6674734 L8.42648936,16.599734 L8.32715426,16.5274468 L8.23667553,16.4460638 L8.1643883,16.360133 L8.10095745,16.2696543 L8.04662234,16.174867 L8.00162234,16.0752926 L7.96523936,15.9759574 L7.93819149,15.8766223 L7.92023936,15.7725 L7.90659574,15.668617 L7.8975,15.5690426 L7.8975,15.4697074 L7.91114362,15.2932979 L7.93819149,15.125984 L7.98343085,14.967766 L8.04207447,14.8140957 L8.11460106,14.6695213 L8.19598404,14.5383511 L8.29077128,14.4119681 L8.39944149,14.29875 L8.51242021,14.1946277 L8.63904255,14.0998404 L8.7699734,14.0141489 L8.90569149,13.9416223 L9.05026596,13.8784309 L9.19962766,13.8286436 L9.35329787,13.7879521 L9.5112766,13.7609043 L9.5206117,13.7609043 L9.5431117,13.756117 L9.57494681,13.7518085 L9.62449468,13.7472606 L9.67859043,13.7381649 L9.74202128,13.7338564 L9.80976064,13.7245213 L9.88659574,13.7154255 L9.96343085,13.7065691 L10.040266,13.6974734 L10.1216489,13.6931649 L10.1941755,13.6840691 L10.2664628,13.6795213 L10.3342021,13.674734 L10.397633,13.6704255 L10.5513032,13.6704255 L10.659734,13.674734 L10.7590691,13.6795213 L10.8586436,13.6795213 L10.9400266,13.6840691 L11.0032181,13.6883777 L11.0484574,13.6931649 L11.0618617,13.6931649 L11.0711968,13.6613298 L11.0982447,13.5799468 L11.1207447,13.4851596 L11.1298404,13.3992287 L11.1116489,13.2996543 L11.0711968,13.2091755 L11.0168617,13.1277926 L10.9445745,13.0600532 L10.8586436,13.0014096 L10.763617,12.9607181 L10.6551862,12.9334309 L10.5376596,12.9245745 L10.4110372,12.9200266 L10.2753191,12.9154787 L10.1352926,12.9154787 L9.99047872,12.9200266 L9.84135638,12.9291223 L9.69678191,12.9425266 L9.55220745,12.9561702 L9.41194149,12.9743617 L9.27646277,12.9923138 L9.14529255,13.0148138 L9.02776596,13.0375532 L8.91933511,13.0600532 L8.81976064,13.0873404 L8.73837766,13.1143883 L8.67518617,13.145984 L8.62539894,13.1730319 L8.94638298,12.0836968 L9.04571809,12.0430053 L9.14529255,12.0068617 L9.2537234,11.9750266 L9.36215426,11.9525266 L9.47082447,11.9297872 L9.58835106,11.9118351 L9.70587766,11.893883 L9.82795213,11.8847872 L9.95457447,11.8756915 L10.0855053,11.8711436 L10.2212234,11.8665957 L10.6551862,11.8665957 L10.8134043,11.8711436 L10.9716223,11.8756915 L11.0982447,11.8847872 L11.2337234,11.9072872 L11.3739894,11.9391223 L11.5185638,11.9795745 L11.6588298,12.0339096 L11.7943085,12.0973404 L11.9300266,12.1739362 L12.0566489,12.259867 L12.1693883,12.3594415 L12.2689628,12.4678723 L12.3594415,12.5899468 L12.4271809,12.7256649 L12.4724202,12.8702394 L12.4994681,13.0239096 L12.4994681,13.1957713 L12.4724202,13.3764894 L12.0157181,15.7634043" id="Stroke-30" stroke="#FFFFFF" stroke-width="0.216"></path>
                        <path d="M10.926383,14.5835904 L10.9218351,14.5610904 L10.903883,14.5383511 L10.8765957,14.5247074 L10.8315957,14.5156117 L10.7818085,14.5067553 L10.7229255,14.5022074 L10.5874468,14.5022074 L10.5149202,14.5067553 L10.4380851,14.5156117 L10.3657979,14.5247074 L10.2935106,14.5338032 L10.2257713,14.5426596 L10.1623404,14.5565426 L10.1082447,14.5701862 L10.0584574,14.5835904 L10.0266223,14.5924468 L9.99047872,14.6060904 L9.94093085,14.6242819 L9.89114362,14.6467819 L9.83226064,14.6738298 L9.77361702,14.7056649 L9.71042553,14.7372606 L9.65154255,14.7734043 L9.58835106,14.8186436 L9.52946809,14.8636436 L9.47537234,14.9182181 L9.42558511,14.9723138 L9.38034574,15.0311968 L9.34875,15.0943883 L9.32146277,15.1666755 L9.30805851,15.2392021 L9.30351064,15.392633 L9.32601064,15.5149468 L9.37125,15.6051862 L9.43013298,15.6729255 L9.49787234,15.7184043 L9.57494681,15.7454521 L9.64699468,15.7590957 L9.71952128,15.7634043 L9.855,15.7590957 L9.97707447,15.7454521 L10.0946011,15.7272606 L10.198484,15.6999734 L10.2889628,15.668617 L10.3748936,15.6279255 L10.4517287,15.587234 L10.5194681,15.5374468 L10.5783511,15.4922074 L10.6326862,15.4381117 L10.6776862,15.3883245 L10.7138298,15.3339894 L10.7456649,15.2798936 L10.7727128,15.2255585 L10.7952128,15.1757713 L10.8088564,15.125984 L10.845,14.9950532 L10.8765957,14.8456915 L10.903883,14.701117 L10.926383,14.5835904" id="Fill-31" fill="#D82331"></path>
                        <path d="M2.50444149,16.7668085 L1.27484043,16.7668085 L2.30098404,10.8315957 L4.43920213,10.8315957 L4.64265957,14.3530851 L6.12095745,10.8315957 L8.35420213,10.8315957 L7.30531915,16.7668085 L6.07571809,16.7668085 L6.85316489,12.3323936 L6.80361702,12.3323936 L4.96364362,16.7668085 L3.57582447,16.7668085 L3.56672872,16.5815426 L3.53513298,16.0886968 L3.49444149,15.3883245 L3.40396277,13.7743085 L3.36327128,13.0646011 L3.33167553,12.5492553 L3.32257979,12.3323936 L3.25484043,12.3323936 L2.50444149,16.7668085" id="Fill-32" fill="#FFFFFF"></path>
                        <path d="M2.50444149,16.7668085 L1.27484043,16.7668085 L2.30098404,10.8315957 L4.43920213,10.8315957 L4.64265957,14.3530851 L6.12095745,10.8315957 L8.35420213,10.8315957 L7.30531915,16.7668085 L6.07571809,16.7668085 L6.85316489,12.3323936 L6.80361702,12.3323936 L4.96364362,16.7668085 L3.57582447,16.7668085 L3.56672872,16.5815426 L3.53513298,16.0886968 L3.49444149,15.3883245 L3.40396277,13.7743085 L3.36327128,13.0646011 L3.33167553,12.5492553 L3.32257979,12.3323936 L3.25484043,12.3323936 L2.50444149,16.7668085" id="Stroke-33" stroke="#FFFFFF" stroke-width="0.216"></path>
                        <path d="M34.4518085,15.7634043 L34.2665426,16.7668085 L33.1319681,16.7668085 L33.1408245,16.5815426 L33.1453723,16.4187766 L33.1453723,16.2969415 L33.1542287,16.2426064 L33.0955851,16.3103457 L33.0278457,16.3780851 L32.9464628,16.441516 L32.855984,16.5049468 L32.7611968,16.5635904 L32.6525266,16.6176862 L32.5395479,16.6720213 L32.4265691,16.7172606 L32.3044947,16.7534043 L32.1778723,16.7895479 L32.05125,16.8122872 L31.924867,16.8302394 L31.7936968,16.8393351 L31.6670745,16.843883 L31.545,16.8302394 L31.4229255,16.8122872 L31.2601596,16.7715957 L31.1155851,16.7265957 L30.9889628,16.6674734 L30.8714362,16.599734 L30.7718617,16.5274468 L30.6861702,16.4460638 L30.6136436,16.360133 L30.5504521,16.2696543 L30.4963564,16.174867 L30.4556649,16.0752926 L30.4195213,15.9759574 L30.3967819,15.8766223 L30.3788298,15.7725 L30.3651862,15.668617 L30.3560904,15.5690426 L30.3560904,15.4697074 L30.3651862,15.2932979 L30.392234,15.125984 L30.4329255,14.967766 L30.4915691,14.8140957 L30.5595479,14.6695213 L30.6454787,14.5383511 L30.740266,14.4119681 L30.8443883,14.29875 L30.9616755,14.1946277 L31.0839894,14.0998404 L31.2149202,14.0141489 L31.3551862,13.9416223 L31.4954521,13.8784309 L31.6445745,13.8286436 L31.7936968,13.7879521 L31.947367,13.7609043 L31.9562234,13.7609043 L31.9789628,13.756117 L32.0105585,13.7518085 L32.0557979,13.7472606 L32.1146809,13.7381649 L32.1778723,13.7338564 L32.2456117,13.7245213 L32.3178989,13.7154255 L32.3949734,13.7065691 L32.476117,13.6974734 L32.5531915,13.6931649 L32.6300266,13.6840691 L32.7023138,13.6795213 L32.7655053,13.674734 L32.8289362,13.6704255 L32.9871543,13.6704255 L33.0955851,13.674734 L33.1994681,13.6795213 L33.2990426,13.6795213 L33.3849734,13.6840691 L33.4572606,13.6883777 L33.4979521,13.6931649 L33.5161436,13.6931649 L33.525,13.6613298 L33.5386436,13.5799468 L33.5520479,13.4851596 L33.561383,13.3992287 L33.5429521,13.2996543 L33.5070479,13.2091755 L33.4481649,13.1277926 L33.3804255,13.0600532 L33.2990426,13.0014096 L33.204016,12.9607181 L33.1044415,12.9334309 L32.9960106,12.9245745 L32.8696277,12.9200266 L32.7339096,12.9154787 L32.593883,12.9154787 L32.4490691,12.9200266 L32.2999468,12.9291223 L32.1553723,12.9425266 L32.0105585,12.9561702 L31.8705319,12.9743617 L31.7350532,12.9923138 L31.603883,13.0148138 L31.4863564,13.0375532 L31.3776862,13.0600532 L31.2781117,13.0873404 L31.1969681,13.1143883 L31.1335372,13.145984 L31.0839894,13.1730319 L31.4004255,12.0836968 L31.4997606,12.0430053 L31.603883,12.0068617 L31.7075266,11.9750266 L31.8164362,11.9525266 L31.9291755,11.9297872 L32.0423936,11.9118351 L32.1596809,11.893883 L32.2819947,11.8847872 L32.4083777,11.8756915 L32.5395479,11.8711436 L32.6707181,11.8665957 L33.0955851,11.8665957 L33.2492553,11.8711436 L33.4029255,11.8756915 L33.5295479,11.8847872 L33.665266,11.9072872 L33.8052926,11.9391223 L33.9501064,11.9795745 L34.0903723,12.0339096 L34.2301596,12.0973404 L34.3658777,12.1739362 L34.4925,12.259867 L34.6054787,12.3594415 L34.7093617,12.4678723 L34.7998404,12.5899468 L34.8678191,12.7256649 L34.9176064,12.8702394 L34.9489628,13.0239096 L34.9489628,13.1957713 L34.9264628,13.3764894 L34.4518085,15.7634043" id="Fill-34" fill="#FFFFFF"></path>
                        <path id="Fill-35" fill="#FFFFFF" d="M34.2665426,16.7986436 L34.2935904,16.7715957 L34.4790957,15.7681915 L34.4247606,15.7590957 L34.2394947,16.7625 L34.2665426,16.7354521 L34.2665426,16.7986436 L34.2890426,16.7943351 L34.2935904,16.7715957 L34.2665426,16.7986436"></path>
                        <path id="Fill-36" fill="#FFFFFF" d="M33.1044415,16.7668085 L33.1319681,16.7986436 L34.2665426,16.7986436 L34.2665426,16.7354521 L33.1319681,16.7354521 L33.1587766,16.7668085 L33.1044415,16.7668085 L33.100133,16.7986436 L33.1319681,16.7986436 L33.1044415,16.7668085"></path>
                        <path id="Fill-37" fill="#FFFFFF" d="M33.1769681,16.2605585 L33.1362766,16.2246543 L33.1180851,16.2969415 L33.1135372,16.4187766 L33.1135372,16.5815426 L33.1044415,16.7668085 L33.1587766,16.7668085 L33.1678723,16.5815426 L33.1769681,16.4187766 L33.1724202,16.2969415 L33.1724202,16.2605585 L33.1319681,16.2246543 L33.1769681,16.2605585"></path>
                        <path d="M31.4183777,16.8393351 L31.4183777,16.8393351 L31.545,16.8572872 L31.6670745,16.8709309 L31.7936968,16.866383 L31.924867,16.8572872 L32.0557979,16.8393351 L32.1824202,16.8165957 L32.3090426,16.7804521 L32.4354255,16.7445479 L32.5486436,16.6990691 L32.6659309,16.6449734 L32.7746011,16.5906383 L32.8696277,16.5274468 L32.9644149,16.4642553 L33.0457979,16.4008245 L33.1180851,16.3282979 L33.1769681,16.2605585 L33.1319681,16.2246543 L33.0730851,16.2923936 L33.0096543,16.3558245 L32.9282713,16.4187766 L32.8425798,16.4822074 L32.7475532,16.5365426 L32.638883,16.5906383 L32.5304521,16.6449734 L32.4174734,16.6902128 L32.2999468,16.7265957 L32.1733245,16.7625 L32.0467021,16.7852394 L31.924867,16.8031915 L31.7936968,16.8122872 L31.6670745,16.8165957 L31.545,16.8031915 L31.4274734,16.7852394 L31.4183777,16.8393351" id="Fill-38" fill="#FFFFFF"></path>
                        <path d="M30.3244947,15.4697074 L30.3244947,15.4697074 L30.3290426,15.5690426 L30.3381383,15.668617 L30.3515426,15.7770479 L30.369734,15.8809309 L30.392234,15.980266 L30.4283777,16.0843883 L30.4693085,16.1882713 L30.5279521,16.2832979 L30.5911436,16.3780851 L30.6634309,16.4642553 L30.7539096,16.5499468 L30.8580319,16.6224734 L30.9755585,16.6947606 L31.1064894,16.7534043 L31.2558511,16.7986436 L31.4183777,16.8393351 L31.4274734,16.7852394 L31.2647074,16.7445479 L31.1246809,16.6990691 L31.0026064,16.6404255 L30.8850798,16.577234 L30.7898138,16.5049468 L30.7086702,16.4278723 L30.636383,16.3419415 L30.5729521,16.25625 L30.5234043,16.1612234 L30.4827128,16.0664362 L30.4465691,15.9714096 L30.4238298,15.8718351 L30.4058777,15.7681915 L30.392234,15.668617 L30.3831383,15.5690426 L30.3876862,15.4697074 L30.3244947,15.4697074" id="Fill-39" fill="#FFFFFF"></path>
                        <path d="M31.947367,13.7338564 L31.947367,13.7338564 L31.7891489,13.7609043 L31.6354787,13.8015957 L31.4863564,13.8511436 L31.3415426,13.9143351 L31.2012766,13.9868617 L31.0657979,14.0771011 L30.9437234,14.172367 L30.8261968,14.2807979 L30.717766,14.3935372 L30.6227394,14.5203989 L30.5322606,14.6558777 L30.4645213,14.805 L30.4058777,14.9589096 L30.3651862,15.1214362 L30.3381383,15.2932979 L30.3244947,15.4697074 L30.3876862,15.4697074 L30.392234,15.2932979 L30.4195213,15.1305319 L30.4599734,14.9768617 L30.5188564,14.8231915 L30.5865957,14.6829255 L30.6679787,14.5565426 L30.762766,14.4299202 L30.8623404,14.3169415 L30.979867,14.217367 L31.1019415,14.1225798 L31.2285638,14.0411968 L31.3685904,13.9686702 L31.5043085,13.9054787 L31.6534309,13.8556915 L31.7980053,13.815 L31.947367,13.7879521 L31.947367,13.7338564" id="Fill-40" fill="#FFFFFF"></path>
                        <path id="Fill-41" fill="#FFFFFF" d="M32.8787234,13.6388298 L32.8289362,13.6388298 L32.7655053,13.6476862 L32.7023138,13.6524734 L32.6300266,13.6567819 L32.5531915,13.6656383 L32.476117,13.6704255 L32.3949734,13.6795213 L32.3178989,13.6883777 L32.2456117,13.6974734 L32.1778723,13.7065691 L32.1146809,13.711117 L32.0557979,13.7202128 L32.0105585,13.7245213 L31.9744149,13.7290691 L31.9562234,13.7338564 L31.947367,13.7338564 L31.947367,13.7879521 L31.9562234,13.7879521 L31.9835106,13.7834043 L32.0105585,13.7788564 L32.0557979,13.7743085 L32.1146809,13.7652128 L32.1778723,13.7609043 L32.2456117,13.7518085 L32.3178989,13.7427128 L32.3949734,13.7338564 L32.476117,13.7245213 L32.5531915,13.7202128 L32.6300266,13.711117 L32.7023138,13.7065691 L32.7655053,13.7020213 L32.8787234,13.7020213 L32.8787234,13.6388298"></path>
                        <path id="Fill-42" fill="#FFFFFF" d="M33.4888564,13.6883777 L33.5161436,13.6656383 L33.4979521,13.6656383 L33.4572606,13.6613298 L33.3849734,13.6567819 L33.2990426,13.6476862 L33.0955851,13.6476862 L32.9871543,13.6388298 L32.8787234,13.6388298 L32.8787234,13.7020213 L33.0955851,13.7020213 L33.1994681,13.711117 L33.3849734,13.711117 L33.4572606,13.7154255 L33.4979521,13.7202128 L33.5161436,13.7202128 L33.5429521,13.6974734 L33.5161436,13.7202128 L33.5386436,13.7245213 L33.5429521,13.6974734 L33.4888564,13.6883777"></path>
                        <path id="Fill-43" fill="#FFFFFF" d="M33.5340957,13.3992287 L33.5295479,13.3992287 L33.525,13.4851596 L33.5115957,13.5753989 L33.4979521,13.6567819 L33.4888564,13.6883777 L33.5429521,13.6974734 L33.5520479,13.6656383 L33.5656915,13.5844947 L33.5793351,13.4851596 L33.5927394,13.3992287 L33.5340957,13.3992287"></path>
                        <path d="M32.9960106,12.9516223 L32.9960106,12.9561702 L33.100133,12.9607181 L33.1949202,12.987766 L33.2853989,13.0284574 L33.362234,13.0827926 L33.4254255,13.145984 L33.48,13.2228191 L33.5161436,13.3042021 L33.5340957,13.3992287 L33.5884309,13.3992287 L33.5702394,13.2953457 L33.5340957,13.1957713 L33.4709043,13.1098404 L33.398617,13.0375532 L33.3124468,12.9743617 L33.2131117,12.9334309 L33.1092287,12.906383 L32.9960106,12.8927394 L32.9960106,12.9516223" id="Fill-44" fill="#FFFFFF"></path>
                        <path id="Fill-45" fill="#FFFFFF" d="M31.0569415,13.1687234 L31.1019415,13.1957713 L31.1471809,13.1730319 L31.2060638,13.1414362 L31.2828989,13.1143883 L31.382234,13.0873404 L31.4906649,13.0646011 L31.6081915,13.0421011 L31.7393617,13.0193617 L31.8705319,13.0014096 L32.0105585,12.9832181 L32.1553723,12.9698138 L32.2999468,12.9561702 L32.4490691,12.9470745 L32.8696277,12.9470745 L32.9960106,12.9516223 L32.9960106,12.8972872 L32.8696277,12.8927394 L32.7339096,12.883883 L32.593883,12.883883 L32.4490691,12.8927394 L32.2999468,12.9018351 L32.1553723,12.9154787 L32.0105585,12.9291223 L31.8705319,12.9470745 L31.730266,12.965266 L31.5990957,12.987766 L31.4818085,13.0105053 L31.3731383,13.0330053 L31.2738032,13.0600532 L31.1878723,13.0873404 L31.1198936,13.1189362 L31.0657979,13.1505319 L31.1110372,13.1775798 L31.0569415,13.1687234"></path>
                        <path id="Fill-46" fill="#FFFFFF" d="M31.3913298,12.0566489 L31.3731383,12.0791489 L31.0569415,13.1687234 L31.1110372,13.1775798 L31.4274734,12.0882447 L31.4092819,12.1107447 L31.3913298,12.0566489 L31.3776862,12.0609574 L31.3731383,12.0791489 L31.3913298,12.0566489"></path>
                        <path id="Fill-47" fill="#FFFFFF" d="M33.4029255,11.8486436 L33.4029255,11.8486436 L33.2492553,11.8395479 L33.0955851,11.835 L32.6707181,11.835 L32.5395479,11.8440957 L32.4083777,11.8486436 L32.2819947,11.8577394 L32.1596809,11.8665957 L32.0376064,11.8847872 L31.924867,11.9027394 L31.8116489,11.9254787 L31.7032181,11.9482181 L31.5947872,11.9795745 L31.4906649,12.0157181 L31.3913298,12.0566489 L31.4092819,12.1107447 L31.5088564,12.0700532 L31.6127394,12.0339096 L31.7123138,12.0023138 L31.8207447,11.9795745 L31.9339628,11.9570745 L32.0467021,11.9391223 L32.1596809,11.9209309 L32.2819947,11.9118351 L32.4083777,11.9027394 L32.5395479,11.8984309 L33.0955851,11.8984309 L33.2492553,11.9027394 L33.4029255,11.9027394 L33.4029255,11.8486436"></path>
                        <path d="M34.9535106,13.3810372 L34.9535106,13.3810372 L34.97625,13.1957713 L34.97625,13.0239096 L34.9446543,12.8656915 L34.894867,12.7165691 L34.8225798,12.5765426 L34.7318617,12.4499202 L34.6234309,12.3369415 L34.5104521,12.237367 L34.3795213,12.1514362 L34.2438032,12.0700532 L34.0992287,12.0068617 L33.9589628,11.9525266 L33.8098404,11.9118351 L33.6698138,11.8802394 L33.5295479,11.8577394 L33.4029255,11.8486436 L33.4029255,11.9027394 L33.5295479,11.9118351 L33.6607181,11.9343351 L33.800984,11.9661702 L33.9407713,12.0068617 L34.0810372,12.0609574 L34.2167553,12.1243883 L34.352234,12.1966755 L34.4743085,12.2826064 L34.5875266,12.3821809 L34.6868617,12.4860638 L34.7773404,12.6033511 L34.8405319,12.7347606 L34.8900798,12.8747872 L34.9219149,13.0239096 L34.9219149,13.1957713 L34.8991755,13.3721809 L34.9535106,13.3810372" id="Fill-48" fill="#FFFFFF"></path>
                        <path d="M34.4790957,15.7681915 L34.4790957,15.7681915 L34.9535106,13.3810372 L34.8991755,13.3721809 L34.4247606,15.7590957 L34.4790957,15.7681915" id="Fill-49" fill="#FFFFFF"></path>
                        <path d="M33.3576862,14.5835904 L33.3488298,14.5565426 L33.3308777,14.5338032 L33.2990426,14.5203989 L33.2538032,14.5067553 L33.204016,14.5022074 L33.1453723,14.4976596 L33.0773936,14.4976596 L33.0096543,14.5022074 L32.937367,14.5113032 L32.8648404,14.5203989 L32.7927926,14.5292553 L32.7248138,14.5383511 L32.6570745,14.5519947 L32.5981915,14.5610904 L32.5395479,14.5744947 L32.4943085,14.5835904 L32.4627128,14.5881383 L32.4265691,14.6017819 L32.3813298,14.6151862 L32.3315426,14.6331383 L32.2728989,14.6604255 L32.2185638,14.6874734 L32.1553723,14.7193085 L32.0376064,14.8006915 L31.9789628,14.8504787 L31.9291755,14.9000266 L31.8793883,14.9589096 L31.8389362,15.0218617 L31.8071011,15.0900798 L31.7800532,15.1621277 L31.7666489,15.2392021 L31.7621011,15.392633 L31.7846011,15.5149468 L31.8207447,15.6051862 L31.8750798,15.6729255 L31.9428191,15.7184043 L32.0196543,15.7454521 L32.0964894,15.7590957 L32.1733245,15.7634043 L32.3090426,15.7590957 L32.4354255,15.7454521 L32.5531915,15.7227128 L32.6570745,15.691117 L32.7566489,15.6549734 L32.8425798,15.6142819 L32.9237234,15.5690426 L32.9960106,15.5149468 L33.0594415,15.4649202 L33.1135372,15.4062766 L33.1633245,15.3519415 L33.204016,15.2932979 L33.2356117,15.2392021 L33.2583511,15.184867 L33.2763032,15.1305319 L33.2899468,15.080984 L33.3081383,14.9541223 L33.3308777,14.8231915 L33.3488298,14.6965691 L33.3576862,14.5835904" id="Fill-50" fill="#F2AD3D"></path>
                        <path d="M42.6702926,16.1478191 L42.6793883,16.0436968 L42.7155319,15.9216223 L42.7787234,15.8131915 L42.8557979,15.7184043 L42.9505851,15.6413298 L43.059016,15.587234 L43.1765426,15.5508511 L43.3031649,15.5374468 L43.4297872,15.5508511 L43.5473138,15.587234 L43.6557447,15.6413298 L43.7507713,15.7184043 L43.8276064,15.8131915 L43.8910372,15.9216223 L43.9269415,16.0436968 L43.9360372,16.1478191 L43.8005585,16.1478191 L43.7957713,16.0664362 L43.7687234,15.9668617 L43.7237234,15.8766223 L43.6648404,15.7995479 L43.5925532,15.7363564 L43.506383,15.691117 L43.4070479,15.6595213 L43.3031649,15.6501862 L43.1992819,15.6595213 L43.0997074,15.691117 L43.014016,15.7363564 L42.9414894,15.7995479 L42.8828457,15.8766223 L42.837367,15.9668617 L42.8103191,16.0664362 L42.8014628,16.1478191 L42.6702926,16.1478191" id="Fill-51" fill="#FFFFFF"></path>
                        <path id="Fill-52" fill="#FFFFFF" d="M43.0769681,16.1478191 L43.0769681,15.8766223 L43.3256649,15.8766223 L43.38,15.8809309 L43.4297872,15.8900266 L43.4659309,15.9036702 L43.4975266,15.9216223 L43.520266,15.9489096 L43.5382181,15.9759574 L43.5473138,16.0075532 L43.5518617,16.0391489 L43.5473138,16.0798404 L43.5382181,16.1114362 L43.5248138,16.138484 L43.5154787,16.1478191 L43.3256649,16.1478191 L43.3438564,16.1432713 L43.3756915,16.138484 L43.4027394,16.1296277 L43.4252394,16.1205319 L43.4434309,16.1071277 L43.4525266,16.093484 L43.461383,16.0707447 L43.461383,16.0391489 L43.4568351,16.0166489 L43.4477394,15.9986968 L43.4343351,15.9893617 L43.4206915,15.980266 L43.3979521,15.9759574 L43.3756915,15.9714096 L43.1901862,15.9714096 L43.1901862,16.1478191 L43.0769681,16.1478191"></path>
                        <path d="M42.6702926,16.1478191 L42.6657447,16.174867 L42.6793883,16.3060372 L42.7155319,16.4278723 L42.7787234,16.5365426 L42.8557979,16.6270213 L42.9505851,16.7038564 L43.059016,16.7625 L43.1765426,16.7986436 L43.3031649,16.8122872 L43.4297872,16.7986436 L43.5473138,16.7625 L43.6557447,16.7038564 L43.7507713,16.6270213 L43.8276064,16.5365426 L43.8910372,16.4278723 L43.9269415,16.3060372 L43.9405851,16.174867 L43.9360372,16.1478191 L43.8005585,16.1478191 L43.804867,16.174867 L43.7957713,16.2832979 L43.7687234,16.3828723 L43.7237234,16.4685638 L43.6648404,16.5453989 L43.5925532,16.6088298 L43.506383,16.6583777 L43.4070479,16.6902128 L43.3031649,16.6990691 L43.1992819,16.6902128 L43.0997074,16.6583777 L43.014016,16.6088298 L42.9414894,16.5453989 L42.8828457,16.4685638 L42.837367,16.3828723 L42.8103191,16.2832979 L42.8014628,16.174867 L42.8014628,16.1478191 L42.6702926,16.1478191" id="Fill-53" fill="#FFFFFF"></path>
                        <path id="Fill-54" fill="#FFFFFF" d="M43.0769681,16.1478191 L43.0769681,16.4235638 L43.1901862,16.4235638 L43.1901862,16.1976064 L43.3031649,16.1976064 L43.438883,16.4235638 L43.5291223,16.4235638 L43.3936436,16.1976064 L43.4252394,16.1976064 L43.4568351,16.1882713 L43.4841223,16.1791755 L43.506383,16.1612234 L43.5154787,16.1478191 L43.3256649,16.1478191 L43.3031649,16.1521277 L43.1901862,16.1521277 L43.1901862,16.1478191 L43.0769681,16.1478191"></path>
                        <path d="M43.3031649,16.6990691 L43.3031649,16.6990691 L43.4070479,16.6902128 L43.506383,16.6583777 L43.5925532,16.6088298 L43.6648404,16.5453989 L43.7237234,16.4685638 L43.7687234,16.3828723 L43.7957713,16.2832979 L43.804867,16.174867 L43.7957713,16.0664362 L43.7687234,15.9668617 L43.7237234,15.8766223 L43.6648404,15.7995479 L43.5925532,15.7363564 L43.506383,15.691117 L43.4070479,15.6595213 L43.3031649,15.6501862 L43.1992819,15.6595213 L43.0997074,15.691117 L43.014016,15.7363564 L42.9414894,15.7995479 L42.8828457,15.8766223 L42.837367,15.9668617 L42.8103191,16.0664362 L42.8014628,16.174867 L42.8103191,16.2832979 L42.837367,16.3828723 L42.8828457,16.4685638 L42.9414894,16.5453989 L43.014016,16.6088298 L43.0997074,16.6583777 L43.1992819,16.6902128 L43.3031649,16.6990691 M43.3031649,16.1521277 L43.3031649,16.1521277 L43.3438564,16.1432713 L43.3756915,16.138484 L43.4027394,16.1296277 L43.4252394,16.1205319 L43.4434309,16.1071277 L43.4525266,16.093484 L43.461383,16.0707447 L43.461383,16.0391489 L43.4568351,16.0166489 L43.4477394,15.9986968 L43.4343351,15.9893617 L43.4206915,15.980266 L43.3979521,15.9759574 L43.3756915,15.9714096 L43.1901862,15.9714096 L43.1901862,16.1521277 L43.3031649,16.1521277 M43.1901862,16.4235638 L43.0769681,16.4235638 L43.0769681,15.8766223 L43.3256649,15.8766223 L43.38,15.8809309 L43.4297872,15.8900266 L43.4659309,15.9036702 L43.4975266,15.9216223 L43.520266,15.9489096 L43.5382181,15.9759574 L43.5473138,16.0075532 L43.5518617,16.0391489 L43.5473138,16.0798404 L43.5382181,16.1114362 L43.5248138,16.138484 L43.506383,16.1612234 L43.4841223,16.1791755 L43.4568351,16.1882713 L43.4252394,16.1976064 L43.3936436,16.1976064 L43.5291223,16.4235638 L43.438883,16.4235638 L43.3031649,16.1976064 L43.1901862,16.1976064 L43.1901862,16.4235638 M42.6657447,16.174867 L42.6657447,16.174867 L42.6793883,16.0436968 L42.7155319,15.9216223 L42.7787234,15.8131915 L42.8557979,15.7184043 L42.9505851,15.6413298 L43.059016,15.587234 L43.1765426,15.5508511 L43.3031649,15.5374468 L43.4297872,15.5508511 L43.5473138,15.587234 L43.6557447,15.6413298 L43.7507713,15.7184043 L43.8276064,15.8131915 L43.8910372,15.9216223 L43.9269415,16.0436968 L43.9405851,16.174867 L43.9269415,16.3060372 L43.8910372,16.4278723 L43.8276064,16.5365426 L43.7507713,16.6270213 L43.6557447,16.7038564 L43.5473138,16.7625 L43.4297872,16.7986436 L43.3031649,16.8122872 L43.1765426,16.7986436 L43.059016,16.7625 L42.9505851,16.7038564 L42.8557979,16.6270213 L42.7787234,16.5365426 L42.7155319,16.4278723 L42.6793883,16.3060372 L42.6657447,16.174867" id="Stroke-55" stroke="#FFFFFF" stroke-width="0.216"></path>
                        <path d="M34.7907447,16.7668085 L36.0655851,16.7668085 L36.5225266,14.1946277 L36.5402394,14.0952926 L36.5675266,13.9957181 L36.5945745,13.896383 L36.6307181,13.7970479 L36.6759574,13.6974734 L36.7302926,13.6026862 L36.7889362,13.5122074 L36.8614628,13.4262766 L36.9428457,13.3494415 L37.0328457,13.2771543 L37.1369681,13.2091755 L37.2544947,13.1550798 L37.3856649,13.1098404 L37.5304787,13.0736968 L37.6886968,13.0464096 L37.864867,13.0375532 L37.9778457,13.0375532 L38.1813032,11.8756915 L38.0546809,11.8847872 L37.9326064,11.8984309 L37.8196277,11.9209309 L37.7109574,11.9525266 L37.6116223,11.9886702 L37.5168351,12.0339096 L37.4263564,12.0836968 L37.3406649,12.1380319 L37.2592819,12.2012234 L37.1822074,12.2644149 L37.037633,12.4092287 L36.9698936,12.4860638 L36.9021543,12.5719947 L36.8341755,12.6531383 L36.770984,12.743617 L36.9064628,11.9254787 L35.6361702,11.9254787 L34.7907447,16.7668085" id="Fill-56" fill="#FFFFFF"></path>
                        <path d="M34.7907447,16.7668085 L36.0655851,16.7668085 L36.5225266,14.1946277 L36.5402394,14.0952926 L36.5675266,13.9957181 L36.5945745,13.896383 L36.6307181,13.7970479 L36.6759574,13.6974734 L36.7302926,13.6026862 L36.7889362,13.5122074 L36.8614628,13.4262766 L36.9428457,13.3494415 L37.0328457,13.2771543 L37.1369681,13.2091755 L37.2544947,13.1550798 L37.3856649,13.1098404 L37.5304787,13.0736968 L37.6886968,13.0464096 L37.864867,13.0375532 L37.9778457,13.0375532 L38.1813032,11.8756915 L38.0546809,11.8847872 L37.9326064,11.8984309 L37.8196277,11.9209309 L37.7109574,11.9525266 L37.6116223,11.9886702 L37.5168351,12.0339096 L37.4263564,12.0836968 L37.3406649,12.1380319 L37.2592819,12.2012234 L37.1822074,12.2644149 L37.037633,12.4092287 L36.9698936,12.4860638 L36.9021543,12.5719947 L36.8341755,12.6531383 L36.770984,12.743617 L36.9064628,11.9254787 L35.6361702,11.9254787 L34.7907447,16.7668085" id="Stroke-57" stroke="#FFFFFF" stroke-width="0.216"></path>
                        <path d="M22.820266,16.7668085 L24.1176064,16.7668085 L24.5515691,14.1946277 L24.5695213,14.0952926 L24.615,13.9054787 L24.6463564,13.815 L24.6827394,13.7245213 L24.7277394,13.6388298 L24.7820745,13.5572074 L24.845266,13.4806117 L24.9177926,13.412633 L24.9991755,13.345133 L25.0985106,13.2905585 L25.2069415,13.2410106 L25.3338032,13.2003191 L25.4735904,13.1641755 L25.6275,13.1414362 L25.8036702,13.1277926 L25.8173138,13.1277926 L25.8355053,13.1323404 L25.8580053,13.1368883 L25.8807447,13.1368883 L25.9032447,13.1414362 L25.9214362,13.145984 L25.9348404,13.1505319 L25.9393883,13.1505319 L25.9575798,13.0782447 L25.9755319,12.9968617 L25.9982713,12.8972872 L26.029867,12.7797606 L26.0614628,12.6531383 L26.1428457,12.400133 L26.1789894,12.3142021 L26.2242287,12.2282713 L26.2694681,12.1425798 L26.3144681,12.0655053 L26.3553989,11.997766 L26.3869947,11.9436702 L26.409734,11.9118351 L26.4185904,11.8984309 L26.4140426,11.8984309 L26.3958511,11.893883 L26.3733511,11.8893351 L26.3417553,11.8847872 L26.3101596,11.8847872 L26.2737766,11.8802394 L26.2421809,11.8756915 L26.2108245,11.8756915 L26.0705585,11.8847872 L25.9439362,11.8984309 L25.8264096,11.9209309 L25.7179787,11.9482181 L25.6138564,11.9841223 L25.5190691,12.0293617 L25.4331383,12.0746011 L25.3517553,12.1289362 L25.2746809,12.1875798 L25.202633,12.2553191 L25.1346543,12.3232979 L25.0669149,12.400133 L24.9991755,12.4769681 L24.9357447,12.5628989 L24.8680053,12.6531383 L24.800266,12.743617 L24.9630319,11.9254787 L23.6656915,11.9254787 L22.820266,16.7668085" id="Fill-58" fill="#FFFFFF"></path>
                        <path d="M22.820266,16.7668085 L24.1176064,16.7668085 L24.5515691,14.1946277 L24.5695213,14.0952926 L24.615,13.9054787 L24.6463564,13.815 L24.6827394,13.7245213 L24.7277394,13.6388298 L24.7820745,13.5572074 L24.845266,13.4806117 L24.9177926,13.412633 L24.9991755,13.345133 L25.0985106,13.2905585 L25.2069415,13.2410106 L25.3338032,13.2003191 L25.4735904,13.1641755 L25.6275,13.1414362 L25.8036702,13.1277926 L25.8173138,13.1277926 L25.8355053,13.1323404 L25.8580053,13.1368883 L25.8807447,13.1368883 L25.9032447,13.1414362 L25.9214362,13.145984 L25.9348404,13.1505319 L25.9393883,13.1505319 L25.9575798,13.0782447 L25.9755319,12.9968617 L25.9982713,12.8972872 L26.029867,12.7797606 L26.0614628,12.6531383 L26.1428457,12.400133 L26.1789894,12.3142021 L26.2242287,12.2282713 L26.2694681,12.1425798 L26.3144681,12.0655053 L26.3553989,11.997766 L26.3869947,11.9436702 L26.409734,11.9118351 L26.4185904,11.8984309 L26.4140426,11.8984309 L26.3958511,11.893883 L26.3733511,11.8893351 L26.3417553,11.8847872 L26.3101596,11.8847872 L26.2737766,11.8802394 L26.2421809,11.8756915 L26.2108245,11.8756915 L26.0705585,11.8847872 L25.9439362,11.8984309 L25.8264096,11.9209309 L25.7179787,11.9482181 L25.6138564,11.9841223 L25.5190691,12.0293617 L25.4331383,12.0746011 L25.3517553,12.1289362 L25.2746809,12.1875798 L25.202633,12.2553191 L25.1346543,12.3232979 L25.0669149,12.400133 L24.9991755,12.4769681 L24.9357447,12.5628989 L24.8680053,12.6531383 L24.800266,12.743617 L24.9630319,11.9254787 L23.6656915,11.9254787 L22.820266,16.7668085" id="Stroke-59" stroke="#FFFFFF" stroke-width="0.216"></path>
                    </g>
                </g>
            </g>
        </g>
    </g>
</svg>