<?xml version="1.0" encoding="UTF-8" standalone="no"?>
<svg width="50px" height="35px" viewBox="0 0 50 35" version="1.1" xmlns="http://www.w3.org/2000/svg" xmlns:xlink="http://www.w3.org/1999/xlink" xmlns:sketch="http://www.bohemiancoding.com/sketch/ns">
    <!-- Generator: Sketch 3.5.2 (25235) - http://www.bohemiancoding.com/sketch -->
    <title>masterpass</title>
    <desc>Created with Sketch.</desc>
    <defs>
        <linearGradient x1="50%" y1="19.0349968%" x2="50%" y2="100%" id="linearGradient-1">
            <stop stop-color="#FAD770" offset="0%"></stop>
            <stop stop-color="#D82332" offset="100%"></stop>
        </linearGradient>
    </defs>
    <g id="Page-1" stroke="none" stroke-width="1" fill="none" fill-rule="evenodd" sketch:type="MSPage">
        <g id="Desktop_v1" sketch:type="MSArtboardGroup" transform="translate(-1149.000000, -305.000000)">
            <g id="про-меню" sketch:type="MSLayerGroup" transform="translate(328.000000, 255.000000)">
                <g id="3" transform="translate(661.000000, 47.000000)" sketch:type="MSShapeGroup">
                    <g id="masterpass" transform="translate(163.000000, 7.000000)">
                        <path d="M31.1716424,26.9816746 L31.8593193,26.9317622 L32.5334935,26.8454401 L33.2028452,26.7268075 L33.8538718,26.5765878 L34.496218,26.3942988 L35.1245792,26.1804226 L35.7394376,25.9390584 L36.340311,25.6658659 L36.9233414,25.3697667 L37.4880467,25.0418393 L38.039008,24.6912463 L38.5670629,24.3134064 L39.0772748,23.9126599 L39.5691615,23.4890066 L40.0381418,23.0383475 L40.4890379,22.569122 L40.9124463,22.0772308 L41.3131893,21.5672555 L41.6910258,21.0391959 L42.0416157,20.4879885 L42.3697813,19.9232782 L42.6656367,19.3404837 L42.9388267,18.7391227 L43.1801888,18.124741 L43.3943042,17.495892 L43.5765916,16.8540223 L43.72681,16.2027488 L43.8452004,15.5333911 L43.9315217,14.859452 L43.9816748,14.171769 L44,13.4749232 L43.9816748,12.7826588 L43.9315217,12.0997982 L43.8452004,11.425618 L43.72681,10.7654229 L43.5765916,10.1141495 L43.3943042,9.47661999 L43.1801888,8.8482532 L42.9388267,8.23797064 L42.6656367,7.64143209 L42.3697813,7.05863757 L42.0416157,6.49850861 L41.6910258,5.94730121 L41.3131893,5.4190005 L40.9124463,4.91360649 L40.4890379,4.42195649 L40.0381418,3.95273094 L39.5691615,3.50641209 L39.0772748,3.08299993 L38.5670629,2.68225334 L38.039008,2.30417232 L37.4880467,1.95357934 L36.9233414,1.63023326 L36.340311,1.33437522 L35.7394376,1.06094163 L35.1245792,0.819818533 L34.496218,0.605701222 L33.8538718,0.42341216 L33.2028452,0.27319247 L32.5334935,0.154801029 L31.8593193,0.0682378367 L31.1716424,0.0183253554 L30.475044,0 L29.7827858,0.0183253554 L29.0951088,0.0682378367 L28.4211758,0.154801029 L27.7561642,0.27319247 L27.1051377,0.42341216 L26.4630326,0.605701222 L25.8390116,0.819818533 L25.2243943,1.06094163 L24.6278611,1.33437522 L24.0494119,1.63023326 L23.4849478,1.95357934 L22.9383266,2.30417232 L22.4100306,2.68225334 L21.9000598,3.08299993 L21.4127544,3.50641209 L20.9437742,3.95273094 L20.4974593,4.42195649 L20.0740509,4.91360649 L19.6733079,5.4190005 L19.2998116,5.94730121 L18.9489806,6.49850861 L18.6258785,7.05863757 L18.3254418,7.64143209 L18.056592,8.23797064 L17.8152299,8.8482532 L17.6059369,9.47661999 L17.4236495,10.1141495 L17.2734312,10.7654229 L17.1550408,11.425618 L17.0684783,12.0997982 L17.0183252,12.7826588 L17,13.4749232 L17.0183252,14.171769 L17.0684783,14.859452 L17.1550408,15.5333911 L17.2734312,16.2027488 L17.4236495,16.8540223 L17.6059369,17.495892 L17.8152299,18.124741 L18.056592,18.7391227 L18.3254418,19.3404837 L18.6258785,19.9232782 L18.9489806,20.4879885 L19.2998116,21.0391959 L19.6733079,21.5672555 L20.0740509,22.0772308 L20.4974593,22.569122 L20.9437742,23.0383475 L21.4127544,23.4890066 L21.9000598,23.9126599 L22.4100306,24.3134064 L22.9383266,24.6912463 L23.4849478,25.0418393 L24.0494119,25.3697667 L24.6278611,25.6658659 L25.2243943,25.9390584 L25.8390116,26.1804226 L26.4630326,26.3942988 L27.1051377,26.5765878 L27.7561642,26.7268075 L28.4211758,26.8454401 L29.0951088,26.9317622 L29.7827858,26.9816746 L30.475044,27 L31.1716424,26.9816746 Z" id="Fill-4" fill="#F2AD3D"></path>
                        <path d="M13.5250768,27 L14.2173412,26.9816746 L14.9050243,26.9317622 L15.5789633,26.8454401 L16.2437397,26.7268075 L16.8950132,26.5765878 L17.537124,26.3942988 L18.1609095,26.1804226 L18.7757734,25.9390584 L19.3723119,25.6658659 L19.9505251,25.3697667 L20.5154765,25.0418393 L21.0618615,24.6912463 L21.5901622,24.3134064 L22.1001375,23.9126599 L22.5872062,23.4890066 L23.0564317,23.0383475 L23.5027506,22.569122 L23.9261627,22.0772308 L24.3269093,21.5672555 L24.700409,21.0391959 L25.051002,20.4879885 L25.3743481,19.9232782 L25.6747875,19.3404837 L25.9433986,18.7391227 L26.1850039,18.124741 L26.3942988,17.495892 L26.5763467,16.8540223 L26.7268075,16.2027488 L26.845199,15.5333911 L26.9317622,14.859452 L26.9819158,14.171769 L27,13.4749232 L26.9819158,12.7826588 L26.9317622,12.0997982 L26.845199,11.425618 L26.7268075,10.7654229 L26.5763467,10.1141495 L26.3942988,9.47661999 L26.1850039,8.8482532 L25.9433986,8.23797064 L25.6747875,7.64143209 L25.3743481,7.05863757 L25.051002,6.49850861 L24.700409,5.94730121 L24.3269093,5.4190005 L23.9261627,4.91360649 L23.5027506,4.42195649 L23.0564317,3.95273094 L22.5872062,3.50641209 L22.1001375,3.08299993 L21.5901622,2.68225334 L21.0618615,2.30417232 L20.5154765,1.95357934 L19.9505251,1.63023326 L19.3723119,1.33437522 L18.7757734,1.06094163 L18.1609095,0.819818533 L17.537124,0.605701222 L16.8950132,0.42341216 L16.2437397,0.27319247 L15.5789633,0.154801029 L14.9050243,0.0682378367 L14.2173412,0.0183253554 L13.5250768,0 L12.8284722,0.0183253554 L12.1407891,0.0682378367 L11.4666089,0.154801029 L10.7972512,0.27319247 L10.1462188,0.42341216 L9.50410802,0.605701222 L8.87550011,0.819818533 L8.26063621,1.06094163 L7.65975745,1.33437522 L7.0767218,1.63023326 L6.5120115,1.95357934 L5.96104522,2.30417232 L5.43274452,2.68225334 L4.92276916,3.08299993 L4.43087805,3.50641209 L3.96189362,3.95273094 L3.51099343,4.42195649 L3.08758127,4.91360649 L2.68683468,5.4190005 L2.30875366,5.94730121 L1.95816068,6.49850861 L1.63023326,7.05863757 L1.3341341,7.64143209 L1.06118275,8.23797064 L0.819818533,8.8482532 L0.605701222,9.47661999 L0.42341216,10.1141495 L0.27319247,10.7654229 L0.154801029,11.425618 L0.0682378367,12.0997982 L0.0180842323,12.7826588 L0,13.4749232 L0.0180842323,14.171769 L0.0682378367,14.859452 L0.154801029,15.5333911 L0.27319247,16.2027488 L0.42341216,16.8540223 L0.605701222,17.495892 L0.819818533,18.124741 L1.06118275,18.7391227 L1.3341341,19.3404837 L1.63023326,19.9232782 L1.95816068,20.4879885 L2.30875366,21.0391959 L2.68683468,21.5672555 L3.08758127,22.0772308 L3.51099343,22.569122 L3.96189362,23.0383475 L4.43087805,23.4890066 L4.92276916,23.9126599 L5.43274452,24.3134064 L5.96104522,24.6912463 L6.5120115,25.0418393 L7.0767218,25.3697667 L7.65975745,25.6658659 L8.26063621,25.9390584 L8.87550011,26.1804226 L9.50410802,26.3942988 L10.1462188,26.5765878 L10.7972512,26.7268075 L11.4666089,26.8454401 L12.1407891,26.9317622 L12.8284722,26.9816746 L13.5250768,27" id="Fill-5" fill="#D82331"></path>
                        <path d="M21.9964482,23.9857741 C22.0127563,23.9857746 27,20.4480591 27,13.5 C27,6.55194094 22.0127563,3.0010052 22.0127564,3.0010052 C18.954971,5.47595783 17,9.25967494 17,13.5 C17,17.7327818 18.9480217,21.5105788 21.9964482,23.9857741 Z" id="Oval-174" opacity="0.5" fill="url(#linearGradient-1)"></path>
                    </g>
                </g>
            </g>
        </g>
    </g>
</svg>