<?xml version="1.0" encoding="UTF-8" standalone="no"?>
<svg width="35px" height="35px" viewBox="0 0 35 35" version="1.1" xmlns="http://www.w3.org/2000/svg" xmlns:xlink="http://www.w3.org/1999/xlink" xmlns:sketch="http://www.bohemiancoding.com/sketch/ns">
    <!-- Generator: Sketch 3.5.2 (25235) - http://www.bohemiancoding.com/sketch -->
    <title>psb</title>
    <desc>Created with Sketch.</desc>
    <defs>
        <path id="path-1" d="M0,0.688 L28.333,0.688 L28.333,29 L0,29 L0,0.688 Z"></path>
    </defs>
    <g id="Page-1" stroke="none" stroke-width="1" fill="none" fill-rule="evenodd" sketch:type="MSPage">
        <g id="Desktop_v1" sketch:type="MSArtboardGroup" transform="translate(-1094.000000, -305.000000)">
            <g id="про-меню" sketch:type="MSLayerGroup" transform="translate(328.000000, 255.000000)">
                <g id="3" transform="translate(661.000000, 47.000000)">
                    <g id="prom" transform="translate(108.000000, 6.000000)">
                        <g id="Group-3">
                            <mask id="mask-2" sketch:name="Clip 2" fill="white">
                                <use xlink:href="#path-1"></use>
                            </mask>
                            <g id="Clip-2"></g>
                            <path d="M28.333,7.5811 C28.333,3.7731 25.247,0.6871 21.439,0.6871 L11.701,0.6871 C8.559,0.6871 5.878,2.8051 5.065,5.7331 L16.837,5.7331 C21.365,5.7331 23.287,7.8391 23.287,12.7831 L23.287,23.9551 C26.209,23.1421 28.333,20.4521 28.333,17.3221 L28.333,7.5811 Z" id="Fill-1" fill="#4163AC" sketch:type="MSShapeGroup" mask="url(#mask-2)"></path>
                        </g>
                        <path d="M0,22.1069 C0,25.9159 3.087,28.9999 6.894,28.9999 L16.633,28.9999 C19.776,28.9999 22.456,26.8839 23.268,23.9549 L11.497,23.9549 C6.968,23.9549 5.046,21.8489 5.046,16.9049 L5.046,5.7329 C2.125,6.5459 0,9.2369 0,12.3669 L0,22.1069 Z" id="Fill-4" fill="#F46A40" sketch:type="MSShapeGroup"></path>
                        <path d="M18.2676,14.4502 L17.3576,14.4502 L17.3576,12.2342 L18.2676,12.2342 C19.3816,12.2342 19.6856,12.7702 19.6856,13.3372 C19.6856,13.9042 19.2806,14.4502 18.2676,14.4502 L18.2676,14.4502 Z M17.3576,9.0062 L18.0856,9.0062 C19.3206,9.0062 19.3816,9.7642 19.3816,9.9962 C19.3816,10.3402 19.1996,10.9782 18.1466,10.9782 L17.3576,10.9782 L17.3576,9.0062 Z M15.7586,12.8712 L15.7586,14.8032 C15.3726,14.5712 14.9296,14.3892 14.4646,14.1862 C13.9586,13.9632 13.4126,13.6802 13.4126,13.0412 C13.4126,12.7172 13.6146,12.2342 14.5866,12.2342 L15.2326,12.2342 L15.7586,12.2342 L16.3856,12.2342 L15.7586,12.8712 Z M9.5666,17.8102 L8.8176,17.8102 L8.8176,15.2072 L9.5666,15.2072 C10.4976,15.2072 10.9226,15.7732 10.9226,16.4612 C10.9226,17.1012 10.5386,17.8102 9.5666,17.8102 L9.5666,17.8102 Z M19.7256,11.5752 L19.7256,11.5452 C20.2716,11.3732 20.9996,10.9172 20.9996,9.7232 C20.9996,8.3782 19.9076,7.7612 18.3696,7.7612 L15.7586,7.7612 L15.7586,10.9782 L14.2216,10.9782 C12.1576,10.9782 11.7316,12.4272 11.7316,13.2152 C11.7316,14.3372 12.3806,14.8352 13.5746,15.4302 C14.3026,15.7932 15.1716,16.0162 15.1716,16.8482 C15.1716,17.2842 14.7676,17.8102 13.8976,17.8102 L12.2796,17.8102 C12.5216,17.3942 12.6226,16.9392 12.6226,16.5442 C12.6226,16.0292 12.4406,13.9632 9.5666,13.9632 L7.2196,13.9632 L7.2196,21.9262 L8.8176,21.9262 L8.8176,18.4562 L9.4646,19.1042 L13.8376,19.1042 C15.8786,19.1042 16.8516,18.0532 16.8516,16.7982 C16.8516,16.3532 16.7706,15.9952 16.6286,15.7052 L18.2676,15.7052 C20.7976,15.7052 21.3856,14.4502 21.3856,13.4672 C21.3856,12.4672 20.7376,11.7272 19.7256,11.5752 L19.7256,11.5752 Z" id="Fill-6" fill="#4163AC" sketch:type="MSShapeGroup"></path>
                    </g>
                </g>
            </g>
        </g>
    </g>
</svg>