<?xml version="1.0" encoding="UTF-8" standalone="no"?>
<svg width="34px" height="34px" viewBox="0 0 34 34" version="1.1" xmlns="http://www.w3.org/2000/svg" xmlns:xlink="http://www.w3.org/1999/xlink" xmlns:sketch="http://www.bohemiancoding.com/sketch/ns">
    <!-- Generator: Sketch 3.5.2 (25235) - http://www.bohemiancoding.com/sketch -->
    <title>webmoney</title>
    <desc>Created with Sketch.</desc>
    <defs></defs>
    <g id="Page-1" stroke="none" stroke-width="1" fill="none" fill-rule="evenodd" sketch:type="MSPage">
        <g id="Desktop_v1" sketch:type="MSArtboardGroup" transform="translate(-712.000000, -307.000000)" fill="#0068A3">
            <g id="про-меню" sketch:type="MSLayerGroup" transform="translate(328.000000, 255.000000)">
                <g id="2" transform="translate(329.000000, 46.000000)" sketch:type="MSShapeGroup">
                    <g id="webmoney" transform="translate(59.000000, 9.000000)">
                        <path d="M13.37985,0 C15.48072,0 17.47035,0.48924 19.24236,1.35783 C19.52073,1.48986 19.79829,1.63512 20.07666,1.7955 L18.84492,2.89791 L16.99434,0.98442 L13.87098,3.77028 L12.01581,1.74555 L6.19758,6.99003 L9.92763,11.10078 L8.4618,12.39003 L12.13569,16.50699 L10.6785,17.79327 L15.92838,23.63688 L19.04472,20.76786 L21.73905,23.84235 C21.2031,24.25896 20.61936,24.651 19.97622,25.01334 C18.0279,26.12439 15.7761,26.76051 13.37985,26.76051 C6.01047,26.76051 0,20.74923 0,13.38066 C0,6.01047 6.01047,0 13.37985,0" id="Fill-1"></path>
                        <path d="M10.8,12.58524 L13.98168,9.72 L16.84665,12.90249 L13.66524,15.76665 L10.8,12.58524" id="Fill-2"></path>
                        <path d="M13.23,17.98443 L16.41195,15.12 L19.27719,18.30168 L16.09551,21.16692 L13.23,17.98443" id="Fill-3"></path>
                        <path d="M8.64,7.18443 L11.82168,4.32 L14.68584,7.50168 L11.50416,10.36611 L8.64,7.18443" id="Fill-4"></path>
                        <path d="M14.31,5.65812 L16.69626,3.51 L18.84465,5.89626 L16.45839,8.04519 L14.31,5.65812" id="Fill-5"></path>
                        <path d="M18.63,15.37893 L21.01707,13.23 L23.16546,15.6168 L20.7792,17.76519 L18.63,15.37893" id="Fill-6"></path>
                        <path d="M20.79,20.2392 L23.17572,18.09 L25.32465,20.47626 L22.93839,22.62465 L20.79,20.2392" id="Fill-7"></path>
                        <path d="M21.6,9.26235 L23.19084,7.83 L24.62292,9.42084 L23.03289,10.85292 L21.6,9.26235" id="Fill-8"></path>
                        <path d="M19.71,4.40208 L21.30084,2.97 L22.73319,4.56084 L21.14208,5.99292 L19.71,4.40208" id="Fill-9"></path>
                        <path d="M23.76,13.85235 L25.35084,12.42 L26.78319,14.01057 L25.19235,15.44292 L23.76,13.85235" id="Fill-10"></path>
                        <path d="M16.74,10.2492 L19.12599,8.1 L21.27438,10.48626 L18.88893,12.63465 L16.74,10.2492" id="Fill-11"></path>
                    </g>
                </g>
            </g>
        </g>
    </g>
</svg>