<?xml version="1.0" encoding="UTF-8" standalone="no"?>
<svg width="35px" height="40px" viewBox="0 0 35 40" version="1.1" xmlns="http://www.w3.org/2000/svg" xmlns:xlink="http://www.w3.org/1999/xlink" xmlns:sketch="http://www.bohemiancoding.com/sketch/ns">
    <!-- Generator: Sketch 3.5.2 (25235) - http://www.bohemiancoding.com/sketch -->
    <title>yamoney</title>
    <desc>Created with Sketch.</desc>
    <defs></defs>
    <g id="Page-1" stroke="none" stroke-width="1" fill="none" fill-rule="evenodd" sketch:type="MSPage">
        <g id="Desktop_v1" sketch:type="MSArtboardGroup" transform="translate(-657.000000, -301.000000)">
            <g id="про-меню" sketch:type="MSLayerGroup" transform="translate(328.000000, 255.000000)">
                <g id="2" transform="translate(329.000000, 46.000000)" sketch:type="MSShapeGroup">
                    <g id="yamoney-copy-2" transform="translate(4.000000, 2.000000)">
                        <path d="M0.000367206178,16.6031166 C0.000367206178,14.7354588 0.160716511,13.5503846 4.1193856,10.663276 C7.39687622,8.27315715 17.9019583,0.105353215 17.9019583,0.105353215 L17.9019583,13.7400443 L25.8910252,13.7400443 L25.8910252,33.3638444 L2.495696,33.3638444 C1.12330188,33.3638444 0,32.2663055 0,30.9255333 L0.000367206178,16.6031166" id="Fill-1" fill="#F9C637"></path>
                        <path d="M17.9019583,13.7400443 L17.9019583,21.6404592 L3.22179678,31.4108039 L21.7824112,25.5109042 L21.7824112,13.7400443 L17.9019583,13.7400443" id="Fill-4" fill="#C8A332"></path>
                        <path d="M11.1936048,13.3314269 C12.0520243,12.3320661 13.3056865,11.9791747 13.9942093,12.5436097 C14.6826096,13.1080446 14.5450275,14.3759902 13.6864855,15.3752314 C12.8284331,16.3744726 11.5744037,16.7268856 10.885881,16.1624507 C10.1974807,15.5981354 10.33543,14.330668 11.1936048,13.3314269" id="Fill-5" fill="#000106"></path>
                    </g>
                </g>
            </g>
        </g>
    </g>
</svg>